<?xml version="1.0" encoding="us-ascii" standalone="no"?><svg xmlns="http://www.w3.org/2000/svg" xmlns:xlink="http://www.w3.org/1999/xlink" contentStyleType="text/css" height="656px" preserveAspectRatio="none" style="width:2474px;height:656px;background:#FFFFFF;" version="1.1" viewBox="0 0 2474 656" width="2474px" zoomAndPan="magnify"><defs/><g><!--cluster Common--><g id="cluster_Common"><rect fill="none" height="330.78" rx="2.5" ry="2.5" style="stroke:#181818;stroke-width:1.0;" width="1844" x="624" y="7"/><rect fill="none" height="10" style="stroke:#181818;stroke-width:1.0;" width="15" x="2448" y="12"/><rect fill="none" height="2" style="stroke:#181818;stroke-width:1.0;" width="4" x="2446" y="14"/><rect fill="none" height="2" style="stroke:#181818;stroke-width:1.0;" width="4" x="2446" y="18"/><text fill="#000000" font-family="sans-serif" font-size="14" font-weight="bold" lengthAdjust="spacing" textLength="69" x="1511.5" y="32.9951">Common</text></g><!--cluster Common--><g id="cluster_Common"><path d="M650.5,50 L720.5,50 A3.75,3.75 0 0 1 723,52.5 L730,72.2969 L2441.5,72.2969 A2.5,2.5 0 0 1 2444,74.7969 L2444,311.28 A2.5,2.5 0 0 1 2441.5,313.78 L650.5,313.78 A2.5,2.5 0 0 1 648,311.28 L648,52.5 A2.5,2.5 0 0 1 650.5,50 " fill="none" style="stroke:#000000;stroke-width:1.5;"/><line style="stroke:#000000;stroke-width:1.5;" x1="648" x2="730" y1="72.2969" y2="72.2969"/><text fill="#000000" font-family="sans-serif" font-size="14" font-weight="bold" lengthAdjust="spacing" textLength="69" x="652" y="64.9951">Common</text></g><!--cluster services--><g id="cluster_services"><path d="M674.5,117.44 L742.5,117.44 A3.75,3.75 0 0 1 745,119.94 L752,139.7369 L2004.5,139.7369 A2.5,2.5 0 0 1 2007,142.2369 L2007,262.83 A2.5,2.5 0 0 1 2004.5,265.33 L674.5,265.33 A2.5,2.5 0 0 1 672,262.83 L672,119.94 A2.5,2.5 0 0 1 674.5,117.44 " fill="none" style="stroke:#000000;stroke-width:1.5;"/><line style="stroke:#000000;stroke-width:1.5;" x1="672" x2="752" y1="139.7369" y2="139.7369"/><text fill="#000000" font-family="sans-serif" font-size="14" font-weight="bold" lengthAdjust="spacing" textLength="67" x="676" y="132.4351">services</text></g><!--cluster data--><g id="cluster_data"><path d="M2033.5,93 L2068.5,93 A3.75,3.75 0 0 1 2071,95.5 L2078,115.2969 L2417.5,115.2969 A2.5,2.5 0 0 1 2420,117.7969 L2420,287.28 A2.5,2.5 0 0 1 2417.5,289.78 L2033.5,289.78 A2.5,2.5 0 0 1 2031,287.28 L2031,95.5 A2.5,2.5 0 0 1 2033.5,93 " fill="none" style="stroke:#000000;stroke-width:1.5;"/><line style="stroke:#000000;stroke-width:1.5;" x1="2031" x2="2078" y1="115.2969" y2="115.2969"/><text fill="#000000" font-family="sans-serif" font-size="14" font-weight="bold" lengthAdjust="spacing" textLength="34" x="2035" y="107.9951">data</text></g><!--cluster Bomb--><g id="cluster_Bomb"><rect fill="none" height="263.78" rx="2.5" ry="2.5" style="stroke:#181818;stroke-width:1.0;" width="490" x="1837" y="386.78"/><rect fill="none" height="10" style="stroke:#181818;stroke-width:1.0;" width="15" x="2307" y="391.78"/><rect fill="none" height="2" style="stroke:#181818;stroke-width:1.0;" width="4" x="2305" y="393.78"/><rect fill="none" height="2" style="stroke:#181818;stroke-width:1.0;" width="4" x="2305" y="397.78"/><text fill="#000000" font-family="sans-serif" font-size="14" font-weight="bold" lengthAdjust="spacing" textLength="44" x="2060" y="412.7751">Bomb</text></g><!--cluster BombSystem--><g id="cluster_BombSystem"><path d="M1863.5,429.78 L1966.5,429.78 A3.75,3.75 0 0 1 1969,432.28 L1976,452.0769 L2300.5,452.0769 A2.5,2.5 0 0 1 2303,454.5769 L2303,624.06 A2.5,2.5 0 0 1 2300.5,626.56 L1863.5,626.56 A2.5,2.5 0 0 1 1861,624.06 L1861,432.28 A2.5,2.5 0 0 1 1863.5,429.78 " fill="none" style="stroke:#000000;stroke-width:1.5;"/><line style="stroke:#000000;stroke-width:1.5;" x1="1861" x2="1976" y1="452.0769" y2="452.0769"/><text fill="#000000" font-family="sans-serif" font-size="14" font-weight="bold" lengthAdjust="spacing" textLength="102" x="1865" y="444.7751">BombSystem</text></g><!--cluster Enemy--><g id="cluster_Enemy"><rect fill="none" height="190.89" rx="2.5" ry="2.5" style="stroke:#181818;stroke-width:1.0;" width="1311" x="7" y="427.52"/><rect fill="none" height="10" style="stroke:#181818;stroke-width:1.0;" width="15" x="1298" y="432.52"/><rect fill="none" height="2" style="stroke:#181818;stroke-width:1.0;" width="4" x="1296" y="434.52"/><rect fill="none" height="2" style="stroke:#181818;stroke-width:1.0;" width="4" x="1296" y="438.52"/><text fill="#000000" font-family="sans-serif" font-size="14" font-weight="bold" lengthAdjust="spacing" textLength="52" x="636.5" y="453.5151">Enemy</text></g><!--cluster AI--><g id="cluster_AI"><rect fill="none" height="115.3" rx="2.5" ry="2.5" style="stroke:#181818;stroke-width:1.0;" width="453" x="31" y="470.52"/><rect fill="none" height="10" style="stroke:#181818;stroke-width:1.0;" width="15" x="464" y="475.52"/><rect fill="none" height="2" style="stroke:#181818;stroke-width:1.0;" width="4" x="462" y="477.52"/><rect fill="none" height="2" style="stroke:#181818;stroke-width:1.0;" width="4" x="462" y="481.52"/><text fill="#000000" font-family="sans-serif" font-size="14" font-weight="bold" lengthAdjust="spacing" textLength="15" x="250" y="496.5151">AI</text></g><!--cluster Player--><g id="cluster_Player"><rect fill="none" height="180.48" rx="2.5" ry="2.5" style="stroke:#181818;stroke-width:1.0;" width="471" x="1342" y="437.93"/><rect fill="none" height="10" style="stroke:#181818;stroke-width:1.0;" width="15" x="1793" y="442.93"/><rect fill="none" height="2" style="stroke:#181818;stroke-width:1.0;" width="4" x="1791" y="444.93"/><rect fill="none" height="2" style="stroke:#181818;stroke-width:1.0;" width="4" x="1791" y="448.93"/><text fill="#000000" font-family="sans-serif" font-size="14" font-weight="bold" lengthAdjust="spacing" textLength="49" x="1553" y="463.9251">Player</text></g><!--class IActor--><g id="elem_IActor"><rect codeLine="5" fill="#F1F1F1" height="96.8906" id="IActor" rx="2.5" ry="2.5" style="stroke:#181818;stroke-width:0.5;" width="116" x="688" y="152.44"/><ellipse cx="723.25" cy="168.44" fill="#B4A7E5" rx="11" ry="11" style="stroke:#181818;stroke-width:1.0;"/><path d="M719.1719,164.2056 L719.1719,162.0494 L726.5625,162.0494 L726.5625,164.2056 L724.0938,164.2056 L724.0938,172.2837 L726.5625,172.2837 L726.5625,174.44 L719.1719,174.44 L719.1719,172.2837 L721.6406,172.2837 L721.6406,164.2056 L719.1719,164.2056 Z " fill="#000000"/><text fill="#000000" font-family="sans-serif" font-size="14" font-style="italic" lengthAdjust="spacing" textLength="39" x="741.75" y="173.2867">IActor</text><line style="stroke:#181818;stroke-width:0.5;" x1="689" x2="803" y1="184.44" y2="184.44"/><text fill="#000000" font-family="sans-serif" font-size="14" lengthAdjust="spacing" textLength="44" x="694" y="201.4351">speed</text><line style="stroke:#181818;stroke-width:0.5;" x1="689" x2="803" y1="208.7369" y2="208.7369"/><text fill="#000000" font-family="sans-serif" font-size="14" lengthAdjust="spacing" textLength="48" x="694" y="225.732">move()</text><text fill="#000000" font-family="sans-serif" font-size="14" lengthAdjust="spacing" textLength="104" x="694" y="242.0289">placeWeapon()</text></g><!--class IWeapon--><g id="elem_IWeapon"><rect codeLine="11" fill="#F1F1F1" height="80.5938" id="IWeapon" rx="2.5" ry="2.5" style="stroke:#181818;stroke-width:0.5;" width="146" x="1580" y="160.59"/><ellipse cx="1619.3" cy="176.59" fill="#B4A7E5" rx="11" ry="11" style="stroke:#181818;stroke-width:1.0;"/><path d="M1615.2219,172.3556 L1615.2219,170.1994 L1622.6125,170.1994 L1622.6125,172.3556 L1620.1438,172.3556 L1620.1438,180.4337 L1622.6125,180.4337 L1622.6125,182.59 L1615.2219,182.59 L1615.2219,180.4337 L1617.6906,180.4337 L1617.6906,172.3556 L1615.2219,172.3556 Z " fill="#000000"/><text fill="#000000" font-family="sans-serif" font-size="14" font-style="italic" lengthAdjust="spacing" textLength="60" x="1638.7" y="181.4367">IWeapon</text><line style="stroke:#181818;stroke-width:0.5;" x1="1581" x2="1725" y1="192.59" y2="192.59"/><line style="stroke:#181818;stroke-width:0.5;" x1="1581" x2="1725" y1="200.59" y2="200.59"/><text fill="#000000" font-family="sans-serif" font-size="14" lengthAdjust="spacing" textLength="134" x="1586" y="217.5851">getDamagePoints()</text><text fill="#000000" font-family="sans-serif" font-size="14" lengthAdjust="spacing" textLength="133" x="1586" y="233.882">setDamagePoints()</text></g><!--class ICollidable--><g id="elem_ICollidable"><rect codeLine="16" fill="#F1F1F1" height="80.5938" id="ICollidable" rx="2.5" ry="2.5" style="stroke:#181818;stroke-width:0.5;" width="111" x="995.5" y="160.59"/><ellipse cx="1015" cy="176.59" fill="#B4A7E5" rx="11" ry="11" style="stroke:#181818;stroke-width:1.0;"/><path d="M1010.9219,172.3556 L1010.9219,170.1994 L1018.3125,170.1994 L1018.3125,172.3556 L1015.8438,172.3556 L1015.8438,180.4337 L1018.3125,180.4337 L1018.3125,182.59 L1010.9219,182.59 L1010.9219,180.4337 L1013.3906,180.4337 L1013.3906,172.3556 L1010.9219,172.3556 Z " fill="#000000"/><text fill="#000000" font-family="sans-serif" font-size="14" font-style="italic" lengthAdjust="spacing" textLength="69" x="1030" y="181.4367">ICollidable</text><line style="stroke:#181818;stroke-width:0.5;" x1="996.5" x2="1105.5" y1="192.59" y2="192.59"/><line style="stroke:#181818;stroke-width:0.5;" x1="996.5" x2="1105.5" y1="200.59" y2="200.59"/><text fill="#000000" font-family="sans-serif" font-size="14" lengthAdjust="spacing" textLength="99" x="1001.5" y="217.5851">getCollidable()</text><text fill="#000000" font-family="sans-serif" font-size="14" lengthAdjust="spacing" textLength="98" x="1001.5" y="233.882">setCollidable()</text></g><!--class IDamageable--><g id="elem_IDamageable"><rect codeLine="21" fill="#F1F1F1" height="80.5938" id="IDamageable" rx="2.5" ry="2.5" style="stroke:#181818;stroke-width:0.5;" width="122" x="839" y="160.59"/><ellipse cx="854" cy="176.59" fill="#B4A7E5" rx="11" ry="11" style="stroke:#181818;stroke-width:1.0;"/><path d="M849.9219,172.3556 L849.9219,170.1994 L857.3125,170.1994 L857.3125,172.3556 L854.8438,172.3556 L854.8438,180.4337 L857.3125,180.4337 L857.3125,182.59 L849.9219,182.59 L849.9219,180.4337 L852.3906,180.4337 L852.3906,172.3556 L849.9219,172.3556 Z " fill="#000000"/><text fill="#000000" font-family="sans-serif" font-size="14" font-style="italic" lengthAdjust="spacing" textLength="90" x="868" y="181.4367">IDamageable</text><line style="stroke:#181818;stroke-width:0.5;" x1="840" x2="960" y1="192.59" y2="192.59"/><line style="stroke:#181818;stroke-width:0.5;" x1="840" x2="960" y1="200.59" y2="200.59"/><text fill="#000000" font-family="sans-serif" font-size="14" lengthAdjust="spacing" textLength="94" x="845" y="217.5851">getHitPoints()</text><text fill="#000000" font-family="sans-serif" font-size="14" lengthAdjust="spacing" textLength="93" x="845" y="233.882">setHitPoints()</text></g><!--class IGamePluginService--><g id="elem_IGamePluginService"><rect codeLine="26" fill="#F1F1F1" height="80.5938" id="IGamePluginService" rx="2.5" ry="2.5" style="stroke:#181818;stroke-width:0.5;" width="168" x="1142" y="160.59"/><ellipse cx="1157" cy="176.59" fill="#B4A7E5" rx="11" ry="11" style="stroke:#181818;stroke-width:1.0;"/><path d="M1152.9219,172.3556 L1152.9219,170.1994 L1160.3125,170.1994 L1160.3125,172.3556 L1157.8438,172.3556 L1157.8438,180.4337 L1160.3125,180.4337 L1160.3125,182.59 L1152.9219,182.59 L1152.9219,180.4337 L1155.3906,180.4337 L1155.3906,172.3556 L1152.9219,172.3556 Z " fill="#000000"/><text fill="#000000" font-family="sans-serif" font-size="14" font-style="italic" lengthAdjust="spacing" textLength="136" x="1171" y="181.4367">IGamePluginService</text><line style="stroke:#181818;stroke-width:0.5;" x1="1143" x2="1309" y1="192.59" y2="192.59"/><line style="stroke:#181818;stroke-width:0.5;" x1="1143" x2="1309" y1="200.59" y2="200.59"/><text fill="#000000" font-family="sans-serif" font-size="14" lengthAdjust="spacing" textLength="41" x="1148" y="217.5851">start()</text><text fill="#000000" font-family="sans-serif" font-size="14" lengthAdjust="spacing" textLength="41" x="1148" y="233.882">stop()</text></g><!--class IEntityProcessingService--><g id="elem_IEntityProcessingService"><rect codeLine="31" fill="#F1F1F1" height="64.2969" id="IEntityProcessingService" rx="2.5" ry="2.5" style="stroke:#181818;stroke-width:0.5;" width="200" x="1345" y="168.74"/><ellipse cx="1360" cy="184.74" fill="#B4A7E5" rx="11" ry="11" style="stroke:#181818;stroke-width:1.0;"/><path d="M1355.9219,180.5056 L1355.9219,178.3494 L1363.3125,178.3494 L1363.3125,180.5056 L1360.8438,180.5056 L1360.8438,188.5837 L1363.3125,188.5837 L1363.3125,190.74 L1355.9219,190.74 L1355.9219,188.5837 L1358.3906,188.5837 L1358.3906,180.5056 L1355.9219,180.5056 Z " fill="#000000"/><text fill="#000000" font-family="sans-serif" font-size="14" font-style="italic" lengthAdjust="spacing" textLength="168" x="1374" y="189.5867">IEntityProcessingService</text><line style="stroke:#181818;stroke-width:0.5;" x1="1346" x2="1544" y1="200.74" y2="200.74"/><line style="stroke:#181818;stroke-width:0.5;" x1="1346" x2="1544" y1="208.74" y2="208.74"/><text fill="#000000" font-family="sans-serif" font-size="14" lengthAdjust="spacing" textLength="66" x="1351" y="225.7351">process()</text></g><!--class IPostEntityProcessingService--><g id="elem_IPostEntityProcessingService"><rect codeLine="35" fill="#F1F1F1" height="64.2969" id="IPostEntityProcessingService" rx="2.5" ry="2.5" style="stroke:#181818;stroke-width:0.5;" width="231" x="1760.5" y="168.74"/><ellipse cx="1775.5" cy="184.74" fill="#B4A7E5" rx="11" ry="11" style="stroke:#181818;stroke-width:1.0;"/><path d="M1771.4219,180.5056 L1771.4219,178.3494 L1778.8125,178.3494 L1778.8125,180.5056 L1776.3438,180.5056 L1776.3438,188.5837 L1778.8125,188.5837 L1778.8125,190.74 L1771.4219,190.74 L1771.4219,188.5837 L1773.8906,188.5837 L1773.8906,180.5056 L1771.4219,180.5056 Z " fill="#000000"/><text fill="#000000" font-family="sans-serif" font-size="14" font-style="italic" lengthAdjust="spacing" textLength="199" x="1789.5" y="189.5867">IPostEntityProcessingService</text><line style="stroke:#181818;stroke-width:0.5;" x1="1761.5" x2="1990.5" y1="200.74" y2="200.74"/><line style="stroke:#181818;stroke-width:0.5;" x1="1761.5" x2="1990.5" y1="208.74" y2="208.74"/><text fill="#000000" font-family="sans-serif" font-size="14" lengthAdjust="spacing" textLength="97" x="1766.5" y="225.7351">postProcess()</text></g><!--class World--><g id="elem_World"><rect codeLine="41" fill="#F1F1F1" height="129.4844" id="World" rx="2.5" ry="2.5" style="stroke:#181818;stroke-width:0.5;" width="112" x="2047" y="136.15"/><ellipse cx="2080.45" cy="152.15" fill="#ADD1B2" rx="11" ry="11" style="stroke:#181818;stroke-width:1.0;"/><path d="M2083.4188,157.7906 Q2082.8406,158.0875 2082.2,158.2281 Q2081.5594,158.3844 2080.8563,158.3844 Q2078.3563,158.3844 2077.0281,156.7437 Q2075.7156,155.0875 2075.7156,151.9625 Q2075.7156,148.8375 2077.0281,147.1812 Q2078.3563,145.525 2080.8563,145.525 Q2081.5594,145.525 2082.2,145.6812 Q2082.8563,145.8375 2083.4188,146.1344 L2083.4188,148.8531 Q2082.7938,148.275 2082.2,148.0094 Q2081.6063,147.7281 2080.9813,147.7281 Q2079.6375,147.7281 2078.95,148.8062 Q2078.2625,149.8687 2078.2625,151.9625 Q2078.2625,154.0562 2078.95,155.1344 Q2079.6375,156.1969 2080.9813,156.1969 Q2081.6063,156.1969 2082.2,155.9312 Q2082.7938,155.65 2083.4188,155.0719 L2083.4188,157.7906 Z " fill="#000000"/><text fill="#000000" font-family="sans-serif" font-size="14" lengthAdjust="spacing" textLength="39" x="2098.55" y="156.9967">World</text><line style="stroke:#181818;stroke-width:0.5;" x1="2048" x2="2158" y1="168.15" y2="168.15"/><text fill="#000000" font-family="sans-serif" font-size="14" lengthAdjust="spacing" textLength="51" x="2053" y="185.1451">entities</text><text fill="#000000" font-family="sans-serif" font-size="14" lengthAdjust="spacing" textLength="30" x="2053" y="201.442">map</text><line style="stroke:#181818;stroke-width:0.5;" x1="2048" x2="2158" y1="208.7437" y2="208.7437"/><text fill="#000000" font-family="sans-serif" font-size="14" lengthAdjust="spacing" textLength="74" x="2053" y="225.7389">addEntity()</text><text fill="#000000" font-family="sans-serif" font-size="14" lengthAdjust="spacing" textLength="100" x="2053" y="242.0357">removeEntity()</text><text fill="#000000" font-family="sans-serif" font-size="14" lengthAdjust="spacing" textLength="71" x="2053" y="258.3326">getEntity()</text></g><!--class Entity--><g id="elem_Entity"><rect codeLine="49" fill="#F1F1F1" height="145.7813" id="Entity" rx="2.5" ry="2.5" style="stroke:#181818;stroke-width:0.5;" width="210" x="2194" y="128"/><ellipse cx="2275.75" cy="144" fill="#ADD1B2" rx="11" ry="11" style="stroke:#181818;stroke-width:1.0;"/><path d="M2278.7188,149.6406 Q2278.1406,149.9375 2277.5,150.0781 Q2276.8594,150.2344 2276.1563,150.2344 Q2273.6563,150.2344 2272.3281,148.5938 Q2271.0156,146.9375 2271.0156,143.8125 Q2271.0156,140.6875 2272.3281,139.0313 Q2273.6563,137.375 2276.1563,137.375 Q2276.8594,137.375 2277.5,137.5313 Q2278.1563,137.6875 2278.7188,137.9844 L2278.7188,140.7031 Q2278.0938,140.125 2277.5,139.8594 Q2276.9063,139.5781 2276.2813,139.5781 Q2274.9375,139.5781 2274.25,140.6563 Q2273.5625,141.7188 2273.5625,143.8125 Q2273.5625,145.9063 2274.25,146.9844 Q2274.9375,148.0469 2276.2813,148.0469 Q2276.9063,148.0469 2277.5,147.7813 Q2278.0938,147.5 2278.7188,146.9219 L2278.7188,149.6406 Z " fill="#000000"/><text fill="#000000" font-family="sans-serif" font-size="14" lengthAdjust="spacing" textLength="38" x="2296.25" y="148.8467">Entity</text><line style="stroke:#181818;stroke-width:0.5;" x1="2195" x2="2403" y1="160" y2="160"/><text fill="#000000" font-family="sans-serif" font-size="14" lengthAdjust="spacing" textLength="82" x="2200" y="176.9951">coordinates</text><text fill="#000000" font-family="sans-serif" font-size="14" lengthAdjust="spacing" textLength="60" x="2200" y="193.292">direction</text><line style="stroke:#181818;stroke-width:0.5;" x1="2195" x2="2403" y1="200.5938" y2="200.5938"/><text fill="#000000" font-family="sans-serif" font-size="14" lengthAdjust="spacing" textLength="117" x="2200" y="217.5889">getCoordinates()</text><text fill="#000000" font-family="sans-serif" font-size="14" lengthAdjust="spacing" textLength="198" x="2200" y="233.8857">setCoordinates(coordinates)</text><text fill="#000000" font-family="sans-serif" font-size="14" lengthAdjust="spacing" textLength="95" x="2200" y="250.1826">getDirection()</text><text fill="#000000" font-family="sans-serif" font-size="14" lengthAdjust="spacing" textLength="154" x="2200" y="266.4795">setDirection(direction)</text></g><!--class Bomb--><g id="elem_Bomb"><rect codeLine="80" fill="#F1F1F1" height="145.7813" id="Bomb" rx="2.5" ry="2.5" style="stroke:#181818;stroke-width:0.5;" width="181" x="2105.5" y="464.78"/><ellipse cx="2171.25" cy="480.78" fill="#ADD1B2" rx="11" ry="11" style="stroke:#181818;stroke-width:1.0;"/><path d="M2174.2188,486.4206 Q2173.6406,486.7175 2173,486.8581 Q2172.3594,487.0144 2171.6563,487.0144 Q2169.1563,487.0144 2167.8281,485.3738 Q2166.5156,483.7175 2166.5156,480.5925 Q2166.5156,477.4675 2167.8281,475.8113 Q2169.1563,474.155 2171.6563,474.155 Q2172.3594,474.155 2173,474.3113 Q2173.6563,474.4675 2174.2188,474.7644 L2174.2188,477.4831 Q2173.5938,476.905 2173,476.6394 Q2172.4063,476.3581 2171.7813,476.3581 Q2170.4375,476.3581 2169.75,477.4363 Q2169.0625,478.4988 2169.0625,480.5925 Q2169.0625,482.6863 2169.75,483.7644 Q2170.4375,484.8269 2171.7813,484.8269 Q2172.4063,484.8269 2173,484.5613 Q2173.5938,484.28 2174.2188,483.7019 L2174.2188,486.4206 Z " fill="#000000"/><text fill="#000000" font-family="sans-serif" font-size="14" lengthAdjust="spacing" textLength="41" x="2191.75" y="485.6267">Bomb</text><line style="stroke:#181818;stroke-width:0.5;" x1="2106.5" x2="2285.5" y1="496.78" y2="496.78"/><rect fill="none" height="6" style="stroke:#C82930;stroke-width:1.0;" width="6" x="2113.5" y="507.4284"/><text fill="#000000" font-family="sans-serif" font-size="14" lengthAdjust="spacing" textLength="118" x="2125.5" y="513.7751">timeOfPlacement</text><rect fill="none" height="6" style="stroke:#C82930;stroke-width:1.0;" width="6" x="2113.5" y="523.7253"/><text fill="#000000" font-family="sans-serif" font-size="14" lengthAdjust="spacing" textLength="114" x="2125.5" y="530.072">timeTillExplosion</text><rect fill="none" height="6" style="stroke:#C82930;stroke-width:1.0;" width="6" x="2113.5" y="540.0222"/><text fill="#000000" font-family="sans-serif" font-size="14" lengthAdjust="spacing" textLength="99" x="2125.5" y="546.3689">damagePoints</text><rect fill="none" height="6" style="stroke:#C82930;stroke-width:1.0;" width="6" x="2113.5" y="556.3191"/><text fill="#000000" font-family="sans-serif" font-size="14" lengthAdjust="spacing" textLength="64" x="2125.5" y="562.6657">blastArea</text><line style="stroke:#181818;stroke-width:0.5;" x1="2106.5" x2="2285.5" y1="569.9675" y2="569.9675"/><ellipse cx="2116.5" cy="583.6159" fill="#84BE84" rx="3" ry="3" style="stroke:#038048;stroke-width:1.0;"/><text fill="#000000" font-family="sans-serif" font-size="14" lengthAdjust="spacing" textLength="97" x="2125.5" y="586.9626">setBlastArea()</text><ellipse cx="2116.5" cy="599.9128" fill="#84BE84" rx="3" ry="3" style="stroke:#038048;stroke-width:1.0;"/><text fill="#000000" font-family="sans-serif" font-size="14" lengthAdjust="spacing" textLength="155" x="2125.5" y="603.2595">calcTimeTillExplosion()</text></g><!--class BombExplosionSystem--><g id="elem_BombExplosionSystem"><rect codeLine="90" fill="#F1F1F1" height="129.4844" id="BombExplosionSystem" rx="2.5" ry="2.5" style="stroke:#181818;stroke-width:0.5;" width="194" x="1877" y="472.93"/><ellipse cx="1893.8" cy="488.93" fill="#ADD1B2" rx="11" ry="11" style="stroke:#181818;stroke-width:1.0;"/><path d="M1896.7688,494.5706 Q1896.1906,494.8675 1895.55,495.0081 Q1894.9094,495.1644 1894.2063,495.1644 Q1891.7063,495.1644 1890.3781,493.5237 Q1889.0656,491.8675 1889.0656,488.7425 Q1889.0656,485.6175 1890.3781,483.9612 Q1891.7063,482.305 1894.2063,482.305 Q1894.9094,482.305 1895.55,482.4612 Q1896.2063,482.6175 1896.7688,482.9144 L1896.7688,485.6331 Q1896.1438,485.055 1895.55,484.7894 Q1894.9563,484.5081 1894.3313,484.5081 Q1892.9875,484.5081 1892.3,485.5862 Q1891.6125,486.6487 1891.6125,488.7425 Q1891.6125,490.8362 1892.3,491.9144 Q1892.9875,492.9769 1894.3313,492.9769 Q1894.9563,492.9769 1895.55,492.7112 Q1896.1438,492.43 1896.7688,491.8519 L1896.7688,494.5706 Z " fill="#000000"/><text fill="#000000" font-family="sans-serif" font-size="14" lengthAdjust="spacing" textLength="158" x="1908.2" y="493.7767">BombExplosionSystem</text><line style="stroke:#181818;stroke-width:0.5;" x1="1878" x2="2070" y1="504.93" y2="504.93"/><rect fill="none" height="6" style="stroke:#C82930;stroke-width:1.0;" width="6" x="1885" y="515.5784"/><text fill="#000000" font-family="sans-serif" font-size="14" lengthAdjust="spacing" textLength="37" x="1897" y="521.9251">world</text><rect fill="none" height="6" style="stroke:#C82930;stroke-width:1.0;" width="6" x="1885" y="531.8753"/><text fill="#000000" font-family="sans-serif" font-size="14" lengthAdjust="spacing" textLength="71" x="1897" y="538.222">gameData</text><line style="stroke:#181818;stroke-width:0.5;" x1="1878" x2="2070" y1="545.5238" y2="545.5238"/><ellipse cx="1888" cy="559.1722" fill="#84BE84" rx="3" ry="3" style="stroke:#038048;stroke-width:1.0;"/><text fill="#000000" font-family="sans-serif" font-size="14" lengthAdjust="spacing" textLength="168" x="1897" y="562.5189">BombExplosionSystem()</text><ellipse cx="1888" cy="575.4691" fill="#84BE84" rx="3" ry="3" style="stroke:#038048;stroke-width:1.0;"/><text fill="#000000" font-family="sans-serif" font-size="14" lengthAdjust="spacing" textLength="136" x="1897" y="578.8157">calculateBlastArea()</text><ellipse cx="1888" cy="591.7659" fill="#84BE84" rx="3" ry="3" style="stroke:#038048;stroke-width:1.0;"/><text fill="#000000" font-family="sans-serif" font-size="14" lengthAdjust="spacing" textLength="66" x="1897" y="595.1126">process()</text></g><!--class EnemyCollisionControlSystem--><g id="elem_EnemyCollisionControlSystem"><rect codeLine="112" fill="#F1F1F1" height="96.8906" id="EnemyCollisionControlSystem" rx="2.5" ry="2.5" style="stroke:#181818;stroke-width:0.5;" width="237" x="503.5" y="489.22"/><ellipse cx="518.5" cy="505.22" fill="#ADD1B2" rx="11" ry="11" style="stroke:#181818;stroke-width:1.0;"/><path d="M521.4688,510.8606 Q520.8906,511.1575 520.25,511.2981 Q519.6094,511.4544 518.9063,511.4544 Q516.4063,511.4544 515.0781,509.8137 Q513.7656,508.1575 513.7656,505.0325 Q513.7656,501.9075 515.0781,500.2512 Q516.4063,498.595 518.9063,498.595 Q519.6094,498.595 520.25,498.7512 Q520.9063,498.9075 521.4688,499.2044 L521.4688,501.9231 Q520.8438,501.345 520.25,501.0794 Q519.6563,500.7981 519.0313,500.7981 Q517.6875,500.7981 517,501.8762 Q516.3125,502.9387 516.3125,505.0325 Q516.3125,507.1262 517,508.2044 Q517.6875,509.2669 519.0313,509.2669 Q519.6563,509.2669 520.25,509.0012 Q520.8438,508.72 521.4688,508.1419 L521.4688,510.8606 Z " fill="#000000"/><text fill="#000000" font-family="sans-serif" font-size="14" lengthAdjust="spacing" textLength="205" x="532.5" y="510.0667">EnemyCollisionControlSystem</text><line style="stroke:#181818;stroke-width:0.5;" x1="504.5" x2="739.5" y1="521.22" y2="521.22"/><text fill="#000000" font-family="sans-serif" font-size="14" lengthAdjust="spacing" textLength="106" x="509.5" y="538.2151">XCord  'maybe?</text><text fill="#000000" font-family="sans-serif" font-size="14" lengthAdjust="spacing" textLength="106" x="509.5" y="554.512">YCord  'maybe?</text><line style="stroke:#181818;stroke-width:0.5;" x1="504.5" x2="739.5" y1="561.8137" y2="561.8137"/><text fill="#000000" font-family="sans-serif" font-size="14" lengthAdjust="spacing" textLength="109" x="509.5" y="578.8089">checkCollision()</text></g><!--class Enemy--><g id="elem_Enemy"><rect codeLine="118" fill="#F1F1F1" height="48" id="Enemy" rx="2.5" ry="2.5" style="stroke:#181818;stroke-width:0.5;" width="79" x="1223.5" y="513.67"/><ellipse cx="1238.5" cy="529.67" fill="#ADD1B2" rx="11" ry="11" style="stroke:#181818;stroke-width:1.0;"/><path d="M1241.4688,535.3106 Q1240.8906,535.6075 1240.25,535.7481 Q1239.6094,535.9044 1238.9063,535.9044 Q1236.4063,535.9044 1235.0781,534.2638 Q1233.7656,532.6075 1233.7656,529.4825 Q1233.7656,526.3575 1235.0781,524.7013 Q1236.4063,523.045 1238.9063,523.045 Q1239.6094,523.045 1240.25,523.2013 Q1240.9063,523.3575 1241.4688,523.6544 L1241.4688,526.3731 Q1240.8438,525.795 1240.25,525.5294 Q1239.6563,525.2481 1239.0313,525.2481 Q1237.6875,525.2481 1237,526.3263 Q1236.3125,527.3888 1236.3125,529.4825 Q1236.3125,531.5763 1237,532.6544 Q1237.6875,533.7169 1239.0313,533.7169 Q1239.6563,533.7169 1240.25,533.4513 Q1240.8438,533.17 1241.4688,532.5919 L1241.4688,535.3106 Z " fill="#000000"/><text fill="#000000" font-family="sans-serif" font-size="14" lengthAdjust="spacing" textLength="47" x="1252.5" y="534.5167">Enemy</text><line style="stroke:#181818;stroke-width:0.5;" x1="1224.5" x2="1301.5" y1="545.67" y2="545.67"/><line style="stroke:#181818;stroke-width:0.5;" x1="1224.5" x2="1301.5" y1="553.67" y2="553.67"/></g><!--class EnemyControlSystem--><g id="elem_EnemyControlSystem"><rect codeLine="121" fill="#F1F1F1" height="129.4844" id="EnemyControlSystem" rx="2.5" ry="2.5" style="stroke:#181818;stroke-width:0.5;" width="231" x="775.5" y="472.93"/><ellipse cx="813.45" cy="488.93" fill="#ADD1B2" rx="11" ry="11" style="stroke:#181818;stroke-width:1.0;"/><path d="M816.4188,494.5706 Q815.8406,494.8675 815.2,495.0081 Q814.5594,495.1644 813.8563,495.1644 Q811.3563,495.1644 810.0281,493.5237 Q808.7156,491.8675 808.7156,488.7425 Q808.7156,485.6175 810.0281,483.9612 Q811.3563,482.305 813.8563,482.305 Q814.5594,482.305 815.2,482.4612 Q815.8563,482.6175 816.4188,482.9144 L816.4188,485.6331 Q815.7938,485.055 815.2,484.7894 Q814.6063,484.5081 813.9813,484.5081 Q812.6375,484.5081 811.95,485.5862 Q811.2625,486.6487 811.2625,488.7425 Q811.2625,490.8362 811.95,491.9144 Q812.6375,492.9769 813.9813,492.9769 Q814.6063,492.9769 815.2,492.7112 Q815.7938,492.43 816.4188,491.8519 L816.4188,494.5706 Z " fill="#000000"/><text fill="#000000" font-family="sans-serif" font-size="14" lengthAdjust="spacing" textLength="148" x="832.55" y="493.7767">EnemyControlSystem</text><line style="stroke:#181818;stroke-width:0.5;" x1="776.5" x2="1005.5" y1="504.93" y2="504.93"/><rect fill="none" height="6" style="stroke:#C82930;stroke-width:1.0;" width="6" x="783.5" y="515.5784"/><text fill="#000000" font-family="sans-serif" font-size="14" lengthAdjust="spacing" textLength="205" x="795.5" y="521.9251">IWeapon[] placeableWeapons</text><line style="stroke:#181818;stroke-width:0.5;" x1="776.5" x2="1005.5" y1="529.2269" y2="529.2269"/><ellipse cx="786.5" cy="542.8753" fill="#84BE84" rx="3" ry="3" style="stroke:#038048;stroke-width:1.0;"/><text fill="#000000" font-family="sans-serif" font-size="14" lengthAdjust="spacing" textLength="104" x="795.5" y="546.222">placeWeapon()</text><ellipse cx="786.5" cy="559.1722" fill="#84BE84" rx="3" ry="3" style="stroke:#038048;stroke-width:1.0;"/><text fill="#000000" font-family="sans-serif" font-size="14" lengthAdjust="spacing" textLength="98" x="795.5" y="562.5189">takeDamage()</text><ellipse cx="786.5" cy="575.4691" fill="#84BE84" rx="3" ry="3" style="stroke:#038048;stroke-width:1.0;"/><text fill="#000000" font-family="sans-serif" font-size="14" lengthAdjust="spacing" textLength="66" x="795.5" y="578.8157">process()</text><ellipse cx="786.5" cy="591.7659" fill="#84BE84" rx="3" ry="3" style="stroke:#038048;stroke-width:1.0;"/><text fill="#000000" font-family="sans-serif" font-size="14" lengthAdjust="spacing" textLength="48" x="795.5" y="595.1126">move()</text></g><!--class EnemyPlugin--><g id="elem_EnemyPlugin"><rect codeLine="129" fill="#F1F1F1" height="113.1875" id="EnemyPlugin" rx="2.5" ry="2.5" style="stroke:#181818;stroke-width:0.5;" width="147" x="1041.5" y="481.08"/><ellipse cx="1068.2" cy="497.08" fill="#ADD1B2" rx="11" ry="11" style="stroke:#181818;stroke-width:1.0;"/><path d="M1071.1688,502.7206 Q1070.5906,503.0175 1069.95,503.1581 Q1069.3094,503.3144 1068.6063,503.3144 Q1066.1063,503.3144 1064.7781,501.6737 Q1063.4656,500.0175 1063.4656,496.8925 Q1063.4656,493.7675 1064.7781,492.1112 Q1066.1063,490.455 1068.6063,490.455 Q1069.3094,490.455 1069.95,490.6112 Q1070.6063,490.7675 1071.1688,491.0644 L1071.1688,493.7831 Q1070.5438,493.205 1069.95,492.9394 Q1069.3563,492.6581 1068.7313,492.6581 Q1067.3875,492.6581 1066.7,493.7362 Q1066.0125,494.7987 1066.0125,496.8925 Q1066.0125,498.9862 1066.7,500.0644 Q1067.3875,501.1269 1068.7313,501.1269 Q1069.3563,501.1269 1069.95,500.8612 Q1070.5438,500.58 1071.1688,500.0019 L1071.1688,502.7206 Z " fill="#000000"/><text fill="#000000" font-family="sans-serif" font-size="14" lengthAdjust="spacing" textLength="89" x="1084.8" y="501.9267">EnemyPlugin</text><line style="stroke:#181818;stroke-width:0.5;" x1="1042.5" x2="1187.5" y1="513.08" y2="513.08"/><rect fill="none" height="6" style="stroke:#C82930;stroke-width:1.0;" width="6" x="1049.5" y="523.7284"/><text fill="#000000" font-family="sans-serif" font-size="14" lengthAdjust="spacing" textLength="121" x="1061.5" y="530.0751">Entity playerEntity</text><line style="stroke:#181818;stroke-width:0.5;" x1="1042.5" x2="1187.5" y1="537.3769" y2="537.3769"/><ellipse cx="1052.5" cy="551.0253" fill="#84BE84" rx="3" ry="3" style="stroke:#038048;stroke-width:1.0;"/><text fill="#000000" font-family="sans-serif" font-size="14" lengthAdjust="spacing" textLength="95" x="1061.5" y="554.372">createPlayer()</text><ellipse cx="1052.5" cy="567.3222" fill="#84BE84" rx="3" ry="3" style="stroke:#038048;stroke-width:1.0;"/><text fill="#000000" font-family="sans-serif" font-size="14" lengthAdjust="spacing" textLength="41" x="1061.5" y="570.6689">start()</text><ellipse cx="1052.5" cy="583.6191" fill="#84BE84" rx="3" ry="3" style="stroke:#038048;stroke-width:1.0;"/><text fill="#000000" font-family="sans-serif" font-size="14" lengthAdjust="spacing" textLength="41" x="1061.5" y="586.9657">stop()</text></g><!--class PathFinding--><g id="elem_PathFinding"><rect codeLine="103" fill="#F1F1F1" height="64.2969" id="PathFinding" rx="2.5" ry="2.5" style="stroke:#181818;stroke-width:0.5;" width="173" x="47.5" y="505.52"/><ellipse cx="89.5" cy="521.52" fill="#ADD1B2" rx="11" ry="11" style="stroke:#181818;stroke-width:1.0;"/><path d="M92.4688,527.1606 Q91.8906,527.4575 91.25,527.5981 Q90.6094,527.7544 89.9063,527.7544 Q87.4063,527.7544 86.0781,526.1138 Q84.7656,524.4575 84.7656,521.3325 Q84.7656,518.2075 86.0781,516.5513 Q87.4063,514.895 89.9063,514.895 Q90.6094,514.895 91.25,515.0513 Q91.9063,515.2075 92.4688,515.5044 L92.4688,518.2231 Q91.8438,517.645 91.25,517.3794 Q90.6563,517.0981 90.0313,517.0981 Q88.6875,517.0981 88,518.1763 Q87.3125,519.2388 87.3125,521.3325 Q87.3125,523.4263 88,524.5044 Q88.6875,525.5669 90.0313,525.5669 Q90.6563,525.5669 91.25,525.3013 Q91.8438,525.02 92.4688,524.4419 L92.4688,527.1606 Z " fill="#000000"/><text fill="#000000" font-family="sans-serif" font-size="14" lengthAdjust="spacing" textLength="81" x="109.5" y="526.3667">PathFinding</text><line style="stroke:#181818;stroke-width:0.5;" x1="48.5" x2="219.5" y1="537.52" y2="537.52"/><line style="stroke:#181818;stroke-width:0.5;" x1="48.5" x2="219.5" y1="545.52" y2="545.52"/><text fill="#000000" font-family="sans-serif" font-size="14" lengthAdjust="spacing" textLength="161" x="53.5" y="562.5151">calculatePathToPlayer()</text></g><!--class BombPlacing--><g id="elem_BombPlacing"><rect codeLine="107" fill="#F1F1F1" height="64.2969" id="BombPlacing" rx="2.5" ry="2.5" style="stroke:#181818;stroke-width:0.5;" width="213" x="255.5" y="505.52"/><ellipse cx="312.75" cy="521.52" fill="#ADD1B2" rx="11" ry="11" style="stroke:#181818;stroke-width:1.0;"/><path d="M315.7188,527.1606 Q315.1406,527.4575 314.5,527.5981 Q313.8594,527.7544 313.1563,527.7544 Q310.6563,527.7544 309.3281,526.1138 Q308.0156,524.4575 308.0156,521.3325 Q308.0156,518.2075 309.3281,516.5513 Q310.6563,514.895 313.1563,514.895 Q313.8594,514.895 314.5,515.0513 Q315.1563,515.2075 315.7188,515.5044 L315.7188,518.2231 Q315.0938,517.645 314.5,517.3794 Q313.9063,517.0981 313.2813,517.0981 Q311.9375,517.0981 311.25,518.1763 Q310.5625,519.2388 310.5625,521.3325 Q310.5625,523.4263 311.25,524.5044 Q311.9375,525.5669 313.2813,525.5669 Q313.9063,525.5669 314.5,525.3013 Q315.0938,525.02 315.7188,524.4419 L315.7188,527.1606 Z " fill="#000000"/><text fill="#000000" font-family="sans-serif" font-size="14" lengthAdjust="spacing" textLength="90" x="333.25" y="526.3667">BombPlacing</text><line style="stroke:#181818;stroke-width:0.5;" x1="256.5" x2="467.5" y1="537.52" y2="537.52"/><line style="stroke:#181818;stroke-width:0.5;" x1="256.5" x2="467.5" y1="545.52" y2="545.52"/><text fill="#000000" font-family="sans-serif" font-size="14" lengthAdjust="spacing" textLength="201" x="261.5" y="562.5151">calculateOptimalPlacement())</text></g><!--class Player--><g id="elem_Player"><rect codeLine="144" fill="#F1F1F1" height="48" id="Player" rx="2.5" ry="2.5" style="stroke:#181818;stroke-width:0.5;" width="73" x="1723.5" y="513.67"/><ellipse cx="1738.5" cy="529.67" fill="#ADD1B2" rx="11" ry="11" style="stroke:#181818;stroke-width:1.0;"/><path d="M1741.4688,535.3106 Q1740.8906,535.6075 1740.25,535.7481 Q1739.6094,535.9044 1738.9063,535.9044 Q1736.4063,535.9044 1735.0781,534.2638 Q1733.7656,532.6075 1733.7656,529.4825 Q1733.7656,526.3575 1735.0781,524.7013 Q1736.4063,523.045 1738.9063,523.045 Q1739.6094,523.045 1740.25,523.2013 Q1740.9063,523.3575 1741.4688,523.6544 L1741.4688,526.3731 Q1740.8438,525.795 1740.25,525.5294 Q1739.6563,525.2481 1739.0313,525.2481 Q1737.6875,525.2481 1737,526.3263 Q1736.3125,527.3888 1736.3125,529.4825 Q1736.3125,531.5763 1737,532.6544 Q1737.6875,533.7169 1739.0313,533.7169 Q1739.6563,533.7169 1740.25,533.4513 Q1740.8438,533.17 1741.4688,532.5919 L1741.4688,535.3106 Z " fill="#000000"/><text fill="#000000" font-family="sans-serif" font-size="14" lengthAdjust="spacing" textLength="41" x="1752.5" y="534.5167">Player</text><line style="stroke:#181818;stroke-width:0.5;" x1="1724.5" x2="1795.5" y1="545.67" y2="545.67"/><line style="stroke:#181818;stroke-width:0.5;" x1="1724.5" x2="1795.5" y1="553.67" y2="553.67"/></g><!--class PlayerControlSystem--><g id="elem_PlayerControlSystem"><rect codeLine="147" fill="#F1F1F1" height="129.4844" id="PlayerControlSystem" rx="2.5" ry="2.5" style="stroke:#181818;stroke-width:0.5;" width="174" x="1358" y="472.93"/><ellipse cx="1373" cy="488.93" fill="#ADD1B2" rx="11" ry="11" style="stroke:#181818;stroke-width:1.0;"/><path d="M1375.9688,494.5706 Q1375.3906,494.8675 1374.75,495.0081 Q1374.1094,495.1644 1373.4063,495.1644 Q1370.9063,495.1644 1369.5781,493.5237 Q1368.2656,491.8675 1368.2656,488.7425 Q1368.2656,485.6175 1369.5781,483.9612 Q1370.9063,482.305 1373.4063,482.305 Q1374.1094,482.305 1374.75,482.4612 Q1375.4063,482.6175 1375.9688,482.9144 L1375.9688,485.6331 Q1375.3438,485.055 1374.75,484.7894 Q1374.1563,484.5081 1373.5313,484.5081 Q1372.1875,484.5081 1371.5,485.5862 Q1370.8125,486.6487 1370.8125,488.7425 Q1370.8125,490.8362 1371.5,491.9144 Q1372.1875,492.9769 1373.5313,492.9769 Q1374.1563,492.9769 1374.75,492.7112 Q1375.3438,492.43 1375.9688,491.8519 L1375.9688,494.5706 Z " fill="#000000"/><text fill="#000000" font-family="sans-serif" font-size="14" lengthAdjust="spacing" textLength="142" x="1387" y="493.7767">PlayerControlSystem</text><line style="stroke:#181818;stroke-width:0.5;" x1="1359" x2="1531" y1="504.93" y2="504.93"/><rect fill="none" height="6" style="stroke:#C82930;stroke-width:1.0;" width="6" x="1366" y="515.5784"/><text fill="#000000" font-family="sans-serif" font-size="14" lengthAdjust="spacing" textLength="60" x="1378" y="521.9251">IWeapon</text><line style="stroke:#181818;stroke-width:0.5;" x1="1359" x2="1531" y1="529.2269" y2="529.2269"/><ellipse cx="1369" cy="542.8753" fill="#84BE84" rx="3" ry="3" style="stroke:#038048;stroke-width:1.0;"/><text fill="#000000" font-family="sans-serif" font-size="14" lengthAdjust="spacing" textLength="104" x="1378" y="546.222">placeWeapon()</text><ellipse cx="1369" cy="559.1722" fill="#84BE84" rx="3" ry="3" style="stroke:#038048;stroke-width:1.0;"/><text fill="#000000" font-family="sans-serif" font-size="14" lengthAdjust="spacing" textLength="98" x="1378" y="562.5189">takeDamage()</text><ellipse cx="1369" cy="575.4691" fill="#84BE84" rx="3" ry="3" style="stroke:#038048;stroke-width:1.0;"/><text fill="#000000" font-family="sans-serif" font-size="14" lengthAdjust="spacing" textLength="66" x="1378" y="578.8157">process()</text><ellipse cx="1369" cy="591.7659" fill="#84BE84" rx="3" ry="3" style="stroke:#038048;stroke-width:1.0;"/><text fill="#000000" font-family="sans-serif" font-size="14" lengthAdjust="spacing" textLength="48" x="1378" y="595.1126">move()</text></g><!--class PlayerPlugin--><g id="elem_PlayerPlugin"><rect codeLine="155" fill="#F1F1F1" height="113.1875" id="PlayerPlugin" rx="2.5" ry="2.5" style="stroke:#181818;stroke-width:0.5;" width="121" x="1567.5" y="481.08"/><ellipse cx="1585.2" cy="497.08" fill="#ADD1B2" rx="11" ry="11" style="stroke:#181818;stroke-width:1.0;"/><path d="M1588.1688,502.7206 Q1587.5906,503.0175 1586.95,503.1581 Q1586.3094,503.3144 1585.6063,503.3144 Q1583.1063,503.3144 1581.7781,501.6737 Q1580.4656,500.0175 1580.4656,496.8925 Q1580.4656,493.7675 1581.7781,492.1112 Q1583.1063,490.455 1585.6063,490.455 Q1586.3094,490.455 1586.95,490.6112 Q1587.6063,490.7675 1588.1688,491.0644 L1588.1688,493.7831 Q1587.5438,493.205 1586.95,492.9394 Q1586.3563,492.6581 1585.7313,492.6581 Q1584.3875,492.6581 1583.7,493.7362 Q1583.0125,494.7987 1583.0125,496.8925 Q1583.0125,498.9862 1583.7,500.0644 Q1584.3875,501.1269 1585.7313,501.1269 Q1586.3563,501.1269 1586.95,500.8612 Q1587.5438,500.58 1588.1688,500.0019 L1588.1688,502.7206 Z " fill="#000000"/><text fill="#000000" font-family="sans-serif" font-size="14" lengthAdjust="spacing" textLength="83" x="1599.8" y="501.9267">PlayerPlugin</text><line style="stroke:#181818;stroke-width:0.5;" x1="1568.5" x2="1687.5" y1="513.08" y2="513.08"/><rect fill="none" height="6" style="stroke:#C82930;stroke-width:1.0;" width="6" x="1575.5" y="523.7284"/><text fill="#000000" font-family="sans-serif" font-size="14" lengthAdjust="spacing" textLength="38" x="1587.5" y="530.0751">Entity</text><line style="stroke:#181818;stroke-width:0.5;" x1="1568.5" x2="1687.5" y1="537.3769" y2="537.3769"/><ellipse cx="1578.5" cy="551.0253" fill="#84BE84" rx="3" ry="3" style="stroke:#038048;stroke-width:1.0;"/><text fill="#000000" font-family="sans-serif" font-size="14" lengthAdjust="spacing" textLength="95" x="1587.5" y="554.372">createPlayer()</text><ellipse cx="1578.5" cy="567.3222" fill="#84BE84" rx="3" ry="3" style="stroke:#038048;stroke-width:1.0;"/><text fill="#000000" font-family="sans-serif" font-size="14" lengthAdjust="spacing" textLength="41" x="1587.5" y="570.6689">start()</text><ellipse cx="1578.5" cy="583.6191" fill="#84BE84" rx="3" ry="3" style="stroke:#038048;stroke-width:1.0;"/><text fill="#000000" font-family="sans-serif" font-size="14" lengthAdjust="spacing" textLength="41" x="1587.5" y="586.9657">stop()</text></g><!--reverse link IWeapon to Bomb--><g id="link_IWeapon_Bomb"><path d="M1673.0918,258.2038 C1686.7218,292.0038 1704.65,322.08 1743,345.78 C1874.03,426.76 1955.34,300.5 2088,378.78 C2121.32,398.44 2146.68,432.91 2164.43,464.63 " fill="none" id="IWeapon-backto-Bomb" style="stroke:#181818;stroke-width:1.0;stroke-dasharray:7.0,7.0;"/><polygon fill="none" points="1666.36,241.51,1667.5272,260.4477,1678.6564,255.9598,1666.36,241.51" style="stroke:#181818;stroke-width:1.0;"/></g><!--link Bomb to Entity--><g id="link_Bomb_Entity"><path codeLine="88" d="M2218.27,464.28 C2235.58,408.02 2254.186,347.5439 2271.486,291.3239 " fill="none" id="Bomb-to-Entity" style="stroke:#181818;stroke-width:1.0;"/><polygon fill="none" points="2276.78,274.12,2265.7514,289.5592,2277.2207,293.0885,2276.78,274.12" style="stroke:#181818;stroke-width:1.0;"/><text fill="#000000" font-family="sans-serif" font-size="13" lengthAdjust="spacing" textLength="47" x="2253" y="366.8469">inherits</text></g><!--reverse link IEntityProcessingService to BombExplosionSystem--><g id="link_IEntityProcessingService_BombExplosionSystem"><path d="M1472.8603,248.6513 C1493.1703,281.0513 1519.22,315.66 1562,345.78 C1589.36,365.04 1600.16,364.41 1633,370.78 C1672.31,378.4 1776.28,362.82 1813,378.78 C1858.96,398.75 1899.21,438.23 1927.97,472.71 " fill="none" id="IEntityProcessingService-backto-BombExplosionSystem" style="stroke:#181818;stroke-width:1.0;stroke-dasharray:7.0,7.0;"/><polygon fill="none" points="1463.3,233.4,1467.7765,251.838,1477.944,245.4645,1463.3,233.4" style="stroke:#181818;stroke-width:1.0;"/></g><!--reverse link IActor to EnemyControlSystem--><g id="link_IActor_EnemyControlSystem"><path codeLine="136" d="M769.9314,266.426 C782.7414,300.456 794.49,330.33 812,370.78 C826.7,404.74 844.3,441.98 859.15,472.56 " fill="none" id="IActor-backto-EnemyControlSystem" style="stroke:#181818;stroke-width:1.0;stroke-dasharray:7.0,7.0;"/><polygon fill="none" points="763.59,249.58,764.316,268.5398,775.5467,264.3122,763.59,249.58" style="stroke:#181818;stroke-width:1.0;"/></g><!--reverse link IDamageable to EnemyControlSystem--><g id="link_IDamageable_EnemyControlSystem"><path codeLine="137" d="M898.4476,259.6035 C896.9176,316.6735 894.55,404.5 892.72,472.68 " fill="none" id="IDamageable-backto-EnemyControlSystem" style="stroke:#181818;stroke-width:1.0;stroke-dasharray:7.0,7.0;"/><polygon fill="none" points="898.93,241.61,892.4498,259.4427,904.4455,259.7643,898.93,241.61" style="stroke:#181818;stroke-width:1.0;"/></g><!--reverse link Entity to Enemy--><g id="link_Entity_Enemy"><path codeLine="138" d="M2245.9341,288.5096 C2225.6241,316.1196 2209.3,330.2 2177,345.78 C2164.28,351.91 1937.11,353.25 1923,353.78 C1858.43,356.18 1396.23,343.64 1342,378.78 C1294.8,409.36 1274.67,477.23 1267.06,513.21 " fill="none" id="Entity-backto-Enemy" style="stroke:#181818;stroke-width:1.0;"/><polygon fill="none" points="2256.6,274.01,2241.1009,284.9543,2250.7673,292.0649,2256.6,274.01" style="stroke:#181818;stroke-width:1.0;"/></g><!--reverse link IEntityProcessingService to EnemyControlSystem--><g id="link_IEntityProcessingService_EnemyControlSystem"><path codeLine="139" d="M1420.1454,248.9472 C1400.9354,282.9972 1374.16,320.25 1327,345.78 C1207.87,410.27 1143.55,315.07 1024,378.78 C983.99,400.1 951.04,438.9 927.95,472.71 " fill="none" id="IEntityProcessingService-backto-EnemyControlSystem" style="stroke:#181818;stroke-width:1.0;stroke-dasharray:7.0,7.0;"/><polygon fill="none" points="1428.99,233.27,1414.9197,245.999,1425.3711,251.8954,1428.99,233.27" style="stroke:#181818;stroke-width:1.0;"/></g><!--reverse link IGamePluginService to EnemyPlugin--><g id="link_IGamePluginService_EnemyPlugin"><path codeLine="140" d="M1207.1647,258.6952 C1187.4647,318.1052 1155.92,413.25 1133.5,480.87 " fill="none" id="IGamePluginService-backto-EnemyPlugin" style="stroke:#181818;stroke-width:1.0;stroke-dasharray:7.0,7.0;"/><polygon fill="none" points="1212.83,241.61,1201.4696,256.8067,1212.8597,260.5836,1212.83,241.61" style="stroke:#181818;stroke-width:1.0;"/></g><!--reverse link IActor to PlayerControlSystem--><g id="link_IActor_PlayerControlSystem"><path codeLine="162" d="M764.744,266.6107 C775.994,298.9507 789.79,322.83 822,345.78 C881.34,388.05 911.43,364.34 984,370.78 C1002.49,372.42 1301.36,370.56 1318,378.78 C1358.37,398.72 1390.12,438.19 1411.78,472.68 " fill="none" id="IActor-backto-PlayerControlSystem" style="stroke:#181818;stroke-width:1.0;stroke-dasharray:7.0,7.0;"/><polygon fill="none" points="758.83,249.61,759.0771,268.5821,770.4109,264.6394,758.83,249.61" style="stroke:#181818;stroke-width:1.0;"/></g><!--reverse link IDamageable to PlayerControlSystem--><g id="link_IDamageable_PlayerControlSystem"><path codeLine="163" d="M915.6425,258.4919 C926.5025,292.1819 941.76,321.76 978,345.78 C1104.54,429.67 1184.41,306.65 1318,378.78 C1357.16,399.92 1388.63,438.72 1410.44,472.57 " fill="none" id="IDamageable-backto-PlayerControlSystem" style="stroke:#181818;stroke-width:1.0;stroke-dasharray:7.0,7.0;"/><polygon fill="none" points="910.12,241.36,909.9318,260.3327,921.3531,256.6511,910.12,241.36" style="stroke:#181818;stroke-width:1.0;"/></g><!--reverse link Entity to Player--><g id="link_Entity_Player"><path codeLine="164" d="M2244.3809,288.4006 C2224.0809,315.4706 2208.28,329.26 2177,345.78 C2169.2,349.9 1868.51,374.14 1861,378.78 C1810.18,410.14 1780.32,477.66 1767.49,513.4 " fill="none" id="Entity-backto-Player" style="stroke:#181818;stroke-width:1.0;"/><polygon fill="none" points="2255.18,274,2239.5806,284.8009,2249.1811,292.0004,2255.18,274" style="stroke:#181818;stroke-width:1.0;"/></g><!--reverse link IEntityProcessingService to PlayerControlSystem--><g id="link_IEntityProcessingService_PlayerControlSystem"><path codeLine="165" d="M1445,251.38 C1445,305.91 1445,400.92 1445,472.54 " fill="none" id="IEntityProcessingService-backto-PlayerControlSystem" style="stroke:#181818;stroke-width:1.0;stroke-dasharray:7.0,7.0;"/><polygon fill="none" points="1445,233.38,1439,251.38,1451,251.38,1445,233.38" style="stroke:#181818;stroke-width:1.0;"/></g><!--reverse link IGamePluginService to PlayerPlugin--><g id="link_IGamePluginService_PlayerPlugin"><path codeLine="166" d="M1250.6547,257.6114 C1267.0347,291.1214 1287.39,321.34 1327,345.78 C1348.32,358.93 1529.75,364.03 1550,378.78 C1583.49,403.17 1603.38,445.97 1614.68,480.86 " fill="none" id="IGamePluginService-backto-PlayerPlugin" style="stroke:#181818;stroke-width:1.0;stroke-dasharray:7.0,7.0;"/><polygon fill="none" points="1242.75,241.44,1245.2643,260.2463,1256.0452,254.9765,1242.75,241.44" style="stroke:#181818;stroke-width:1.0;"/></g><!--SRC=[fLRRJjj047sEly9l0KNs1rIe5GJQ8hN24aYqGdtOh8UmOksrx8KsAldtpcPzsIiaD2zHPcRdpENCPAYe6b53BTEbg2fHft-J53yDeOza3PDm9pKr7RJFZ4BNFnW-h9RGtXCAwUKfbQ9rrEhJDG2b9wt4CnmTU-A6ewzR81YaezqcCM1j7a1UWpmd5KPV23Jl0d3TgnPnoANWd9LanI4CE-d3e55z75B76OVyokHhQSRKSS0lf8A2FwrPVQrx7-gj9AqC0KhHx0rqKKicDqKha5uTgzTnk4RRxEsv49qym3jQ5n640DOm6IMHnF56EUcwz5Qql0pWW8g8GUVF16ay6IbBdK6WoYseAOggaHH1dLCl7Qos34HBXMXBLXCP2BXaBL39H9s4Xs1y6Pk2oS202MPoFa15fdXKZp75MzWN8PdFwBWE2oIoMcxpsMmYKCyTL6dDR28W_jecS_Mbw_UDtSFEa5KDXmfTTjvpwy5tyOniFEW9qfcfpFPxj4ssoPJVcQXMzgvNakjD9w4okgw1bCe4q7yBUVyr_1Na_UQrEPEbabLmTL-eJQwU1xGtZFEBFmt7V90xjhuqzh6ZMc5myhG5OiaNglzdWygXnoAbXDCR5zEmceYnophBNZuEm_01Tya3j0m32HHeTDONSOzwxRUBilItsXoER8th-1nNZPDU899W2PuuZbQyIlvc7SO41sLYqKKDrKP7EmbFBxLaNf7D2b9IJolOALj1vCDdLkEShvs5EKIeB6u4ScS3hHLCe06AOUWfZRYwQf1gX8yyF3hsaqlC1OYfxVwNLIMNefQjuBgW4y2F9Mwf8TDFe_XdM4mVW3wEBljqV50Z0I_FFYeZ6CCw6swVkr_wS5BNWPPCexE8t5IBL997q5U59VQfi72ljN2O-bYmuki7gTdrK_yml59a8hRSRVR2EoiMxa5X112RDNsEdhpakOukzqlvfW_ZvdgF8tKPv7q9Jbwop7p_9dPiL_nVHlvHv_hJMXpxcJ7tkaTzQ_jPDaKMgRKcHDgHi4cCcG5Mkeoqs1W0jcWuK329CivccyMqtlaU3DCUyq3coI7yEiYDnoxhTV9kRhqpbmYpB6y3j_u1]--></g></svg>