<?xml version="1.0" encoding="us-ascii" standalone="no"?><svg xmlns="http://www.w3.org/2000/svg" xmlns:xlink="http://www.w3.org/1999/xlink" contentStyleType="text/css" height="657px" preserveAspectRatio="none" style="width:2430px;height:657px;background:#FFFFFF;" version="1.1" viewBox="0 0 2430 657" width="2430px" zoomAndPan="magnify"><defs/><g><!--cluster Common--><g id="cluster_Common"><rect fill="none" height="331" rx="2.5" ry="2.5" style="stroke:#181818;stroke-width:1.0;" width="1901" x="393" y="7"/><rect fill="none" height="10" style="stroke:#181818;stroke-width:1.0;" width="15" x="2274" y="12"/><rect fill="none" height="2" style="stroke:#181818;stroke-width:1.0;" width="4" x="2272" y="14"/><rect fill="none" height="2" style="stroke:#181818;stroke-width:1.0;" width="4" x="2272" y="18"/><text fill="#000000" font-family="sans-serif" font-size="14" font-weight="bold" lengthAdjust="spacing" textLength="70" x="1308.5" y="32.9951">Common</text></g><!--cluster Common--><g id="cluster_Common"><path d="M419.5,50 L490.5,50 A3.75,3.75 0 0 1 493,52.5 L500,72.2969 L2267.5,72.2969 A2.5,2.5 0 0 1 2270,74.7969 L2270,311.5 A2.5,2.5 0 0 1 2267.5,314 L419.5,314 A2.5,2.5 0 0 1 417,311.5 L417,52.5 A2.5,2.5 0 0 1 419.5,50 " fill="none" style="stroke:#000000;stroke-width:1.5;"/><line style="stroke:#000000;stroke-width:1.5;" x1="417" x2="500" y1="72.2969" y2="72.2969"/><text fill="#000000" font-family="sans-serif" font-size="14" font-weight="bold" lengthAdjust="spacing" textLength="70" x="421" y="64.9951">Common</text></g><!--cluster services--><g id="cluster_services"><path d="M443.5,117.5 L510.5,117.5 A3.75,3.75 0 0 1 513,120 L520,139.7969 L1813.5,139.7969 A2.5,2.5 0 0 1 1816,142.2969 L1816,263 A2.5,2.5 0 0 1 1813.5,265.5 L443.5,265.5 A2.5,2.5 0 0 1 441,263 L441,120 A2.5,2.5 0 0 1 443.5,117.5 " fill="none" style="stroke:#000000;stroke-width:1.5;"/><line style="stroke:#000000;stroke-width:1.5;" x1="441" x2="520" y1="139.7969" y2="139.7969"/><text fill="#000000" font-family="sans-serif" font-size="14" font-weight="bold" lengthAdjust="spacing" textLength="66" x="445" y="132.4951">services</text></g><!--cluster data--><g id="cluster_data"><path d="M1842.5,93 L1881.5,93 A3.75,3.75 0 0 1 1884,95.5 L1891,115.2969 L2243.5,115.2969 A2.5,2.5 0 0 1 2246,117.7969 L2246,287.5 A2.5,2.5 0 0 1 2243.5,290 L1842.5,290 A2.5,2.5 0 0 1 1840,287.5 L1840,95.5 A2.5,2.5 0 0 1 1842.5,93 " fill="none" style="stroke:#000000;stroke-width:1.5;"/><line style="stroke:#000000;stroke-width:1.5;" x1="1840" x2="1891" y1="115.2969" y2="115.2969"/><text fill="#000000" font-family="sans-serif" font-size="14" font-weight="bold" lengthAdjust="spacing" textLength="38" x="1844" y="107.9951">data</text></g><!--cluster Bomb--><g id="cluster_Bomb"><rect fill="none" height="264" rx="2.5" ry="2.5" style="stroke:#181818;stroke-width:1.0;" width="507" x="1917" y="387"/><rect fill="none" height="10" style="stroke:#181818;stroke-width:1.0;" width="15" x="2404" y="392"/><rect fill="none" height="2" style="stroke:#181818;stroke-width:1.0;" width="4" x="2402" y="394"/><rect fill="none" height="2" style="stroke:#181818;stroke-width:1.0;" width="4" x="2402" y="398"/><text fill="#000000" font-family="sans-serif" font-size="14" font-weight="bold" lengthAdjust="spacing" textLength="46" x="2147.5" y="412.9951">Bomb</text></g><!--cluster BombSystem--><g id="cluster_BombSystem"><path d="M1943.5,430 L2050.5,430 A3.75,3.75 0 0 1 2053,432.5 L2060,452.2969 L2397.5,452.2969 A2.5,2.5 0 0 1 2400,454.7969 L2400,624.5 A2.5,2.5 0 0 1 2397.5,627 L1943.5,627 A2.5,2.5 0 0 1 1941,624.5 L1941,432.5 A2.5,2.5 0 0 1 1943.5,430 " fill="none" style="stroke:#000000;stroke-width:1.5;"/><line style="stroke:#000000;stroke-width:1.5;" x1="1941" x2="2060" y1="452.2969" y2="452.2969"/><text fill="#000000" font-family="sans-serif" font-size="14" font-weight="bold" lengthAdjust="spacing" textLength="106" x="1945" y="444.9951">BombSystem</text></g><!--cluster Enemy--><g id="cluster_Enemy"><rect fill="none" height="190.5" rx="2.5" ry="2.5" style="stroke:#181818;stroke-width:1.0;" width="1372" x="7" y="428"/><rect fill="none" height="10" style="stroke:#181818;stroke-width:1.0;" width="15" x="1359" y="433"/><rect fill="none" height="2" style="stroke:#181818;stroke-width:1.0;" width="4" x="1357" y="435"/><rect fill="none" height="2" style="stroke:#181818;stroke-width:1.0;" width="4" x="1357" y="439"/><text fill="#000000" font-family="sans-serif" font-size="14" font-weight="bold" lengthAdjust="spacing" textLength="52" x="667" y="453.9951">Enemy</text></g><!--cluster AI--><g id="cluster_AI"><rect fill="none" height="115" rx="2.5" ry="2.5" style="stroke:#181818;stroke-width:1.0;" width="475" x="880" y="471"/><rect fill="none" height="10" style="stroke:#181818;stroke-width:1.0;" width="15" x="1335" y="476"/><rect fill="none" height="2" style="stroke:#181818;stroke-width:1.0;" width="4" x="1333" y="478"/><rect fill="none" height="2" style="stroke:#181818;stroke-width:1.0;" width="4" x="1333" y="482"/><text fill="#000000" font-family="sans-serif" font-size="14" font-weight="bold" lengthAdjust="spacing" textLength="16" x="1109.5" y="496.9951">AI</text></g><!--cluster Player--><g id="cluster_Player"><rect fill="none" height="180" rx="2.5" ry="2.5" style="stroke:#181818;stroke-width:1.0;" width="490" x="1403" y="438.5"/><rect fill="none" height="10" style="stroke:#181818;stroke-width:1.0;" width="15" x="1873" y="443.5"/><rect fill="none" height="2" style="stroke:#181818;stroke-width:1.0;" width="4" x="1871" y="445.5"/><rect fill="none" height="2" style="stroke:#181818;stroke-width:1.0;" width="4" x="1871" y="449.5"/><text fill="#000000" font-family="sans-serif" font-size="14" font-weight="bold" lengthAdjust="spacing" textLength="50" x="1623" y="464.4951">Player</text></g><!--class IActor--><g id="elem_IActor"><rect codeLine="5" fill="#F1F1F1" height="96.8906" id="IActor" rx="2.5" ry="2.5" style="stroke:#181818;stroke-width:0.5;" width="120" x="726" y="152.5"/><ellipse cx="761.7" cy="168.5" fill="#B4A7E5" rx="11" ry="11" style="stroke:#181818;stroke-width:1.0;"/><path d="M762.6531,165.2813 L764.3719,165.2813 C764.7625,165.2813 764.95,165.25 765.075,165.1719 C765.3406,165.0156 765.4813,164.7344 765.4813,164.4375 C765.4813,164.1719 765.3719,163.9063 765.1375,163.7344 C764.9656,163.625 764.825,163.5938 764.3719,163.5938 L759.2313,163.5938 C758.7938,163.5938 758.6688,163.6094 758.5125,163.7031 C758.2625,163.8594 758.1063,164.1563 758.1063,164.4375 C758.1063,164.7188 758.2469,164.9688 758.4656,165.1406 C758.6219,165.25 758.8094,165.2813 759.2313,165.2813 L760.95,165.2813 L760.95,171.7969 L759.2313,171.7969 C758.7938,171.7969 758.6688,171.8125 758.5125,171.9219 C758.2625,172.0781 758.1063,172.3594 758.1063,172.6563 C758.1063,172.9063 758.2469,173.1719 758.4656,173.3281 C758.6219,173.4531 758.825,173.5 759.2313,173.5 L764.3719,173.5 C765.1219,173.5 765.4813,173.2188 765.4813,172.6563 C765.4813,172.375 765.3719,172.125 765.1375,171.9531 C764.9656,171.8281 764.825,171.7969 764.3719,171.7969 L762.6531,171.7969 L762.6531,165.2813 Z " fill="#000000"/><text fill="#000000" font-family="sans-serif" font-size="14" font-style="italic" lengthAdjust="spacing" textLength="42" x="780.3" y="173.3467">IActor</text><line style="stroke:#181818;stroke-width:0.5;" x1="727" x2="845" y1="184.5" y2="184.5"/><text fill="#000000" font-family="sans-serif" font-size="14" lengthAdjust="spacing" textLength="44" x="732" y="201.4951">speed</text><line style="stroke:#181818;stroke-width:0.5;" x1="727" x2="845" y1="208.7969" y2="208.7969"/><text fill="#000000" font-family="sans-serif" font-size="14" lengthAdjust="spacing" textLength="50" x="732" y="225.792">move()</text><text fill="#000000" font-family="sans-serif" font-size="14" lengthAdjust="spacing" textLength="108" x="732" y="242.0889">placeWeapon()</text></g><!--class IWeapon--><g id="elem_IWeapon"><rect codeLine="11" fill="#F1F1F1" height="80.5938" id="IWeapon" rx="2.5" ry="2.5" style="stroke:#181818;stroke-width:0.5;" width="151" x="1648.5" y="160.5"/><ellipse cx="1688.7" cy="176.5" fill="#B4A7E5" rx="11" ry="11" style="stroke:#181818;stroke-width:1.0;"/><path d="M1689.6531,173.2813 L1691.3719,173.2813 C1691.7625,173.2813 1691.95,173.25 1692.075,173.1719 C1692.3406,173.0156 1692.4813,172.7344 1692.4813,172.4375 C1692.4813,172.1719 1692.3719,171.9063 1692.1375,171.7344 C1691.9656,171.625 1691.825,171.5938 1691.3719,171.5938 L1686.2313,171.5938 C1685.7938,171.5938 1685.6688,171.6094 1685.5125,171.7031 C1685.2625,171.8594 1685.1063,172.1563 1685.1063,172.4375 C1685.1063,172.7188 1685.2469,172.9688 1685.4656,173.1406 C1685.6219,173.25 1685.8094,173.2813 1686.2313,173.2813 L1687.95,173.2813 L1687.95,179.7969 L1686.2313,179.7969 C1685.7938,179.7969 1685.6688,179.8125 1685.5125,179.9219 C1685.2625,180.0781 1685.1063,180.3594 1685.1063,180.6563 C1685.1063,180.9063 1685.2469,181.1719 1685.4656,181.3281 C1685.6219,181.4531 1685.825,181.5 1686.2313,181.5 L1691.3719,181.5 C1692.1219,181.5 1692.4813,181.2188 1692.4813,180.6563 C1692.4813,180.375 1692.3719,180.125 1692.1375,179.9531 C1691.9656,179.8281 1691.825,179.7969 1691.3719,179.7969 L1689.6531,179.7969 L1689.6531,173.2813 Z " fill="#000000"/><text fill="#000000" font-family="sans-serif" font-size="14" font-style="italic" lengthAdjust="spacing" textLength="63" x="1708.3" y="181.3467">IWeapon</text><line style="stroke:#181818;stroke-width:0.5;" x1="1649.5" x2="1798.5" y1="192.5" y2="192.5"/><line style="stroke:#181818;stroke-width:0.5;" x1="1649.5" x2="1798.5" y1="200.5" y2="200.5"/><text fill="#000000" font-family="sans-serif" font-size="14" lengthAdjust="spacing" textLength="139" x="1654.5" y="217.4951">getDamagePoints()</text><text fill="#000000" font-family="sans-serif" font-size="14" lengthAdjust="spacing" textLength="137" x="1654.5" y="233.792">setDamagePoints()</text></g><!--class ICollidable--><g id="elem_ICollidable"><rect codeLine="16" fill="#F1F1F1" height="80.5938" id="ICollidable" rx="2.5" ry="2.5" style="stroke:#181818;stroke-width:0.5;" width="118" x="1255" y="160.5"/><ellipse cx="1274.95" cy="176.5" fill="#B4A7E5" rx="11" ry="11" style="stroke:#181818;stroke-width:1.0;"/><path d="M1275.9031,173.2813 L1277.6219,173.2813 C1278.0125,173.2813 1278.2,173.25 1278.325,173.1719 C1278.5906,173.0156 1278.7313,172.7344 1278.7313,172.4375 C1278.7313,172.1719 1278.6219,171.9063 1278.3875,171.7344 C1278.2156,171.625 1278.075,171.5938 1277.6219,171.5938 L1272.4813,171.5938 C1272.0438,171.5938 1271.9188,171.6094 1271.7625,171.7031 C1271.5125,171.8594 1271.3563,172.1563 1271.3563,172.4375 C1271.3563,172.7188 1271.4969,172.9688 1271.7156,173.1406 C1271.8719,173.25 1272.0594,173.2813 1272.4813,173.2813 L1274.2,173.2813 L1274.2,179.7969 L1272.4813,179.7969 C1272.0438,179.7969 1271.9188,179.8125 1271.7625,179.9219 C1271.5125,180.0781 1271.3563,180.3594 1271.3563,180.6563 C1271.3563,180.9063 1271.4969,181.1719 1271.7156,181.3281 C1271.8719,181.4531 1272.075,181.5 1272.4813,181.5 L1277.6219,181.5 C1278.3719,181.5 1278.7313,181.2188 1278.7313,180.6563 C1278.7313,180.375 1278.6219,180.125 1278.3875,179.9531 C1278.2156,179.8281 1278.075,179.7969 1277.6219,179.7969 L1275.9031,179.7969 L1275.9031,173.2813 Z " fill="#000000"/><text fill="#000000" font-family="sans-serif" font-size="14" font-style="italic" lengthAdjust="spacing" textLength="75" x="1290.05" y="181.3467">ICollidable</text><line style="stroke:#181818;stroke-width:0.5;" x1="1256" x2="1372" y1="192.5" y2="192.5"/><line style="stroke:#181818;stroke-width:0.5;" x1="1256" x2="1372" y1="200.5" y2="200.5"/><text fill="#000000" font-family="sans-serif" font-size="14" lengthAdjust="spacing" textLength="106" x="1261" y="217.4951">getCollidable()</text><text fill="#000000" font-family="sans-serif" font-size="14" lengthAdjust="spacing" textLength="104" x="1261" y="233.792">setCollidable()</text></g><!--class IDamageable--><g id="elem_IDamageable"><rect codeLine="21" fill="#F1F1F1" height="80.5938" id="IDamageable" rx="2.5" ry="2.5" style="stroke:#181818;stroke-width:0.5;" width="128" x="881" y="160.5"/><ellipse cx="896" cy="176.5" fill="#B4A7E5" rx="11" ry="11" style="stroke:#181818;stroke-width:1.0;"/><path d="M896.9531,173.2813 L898.6719,173.2813 C899.0625,173.2813 899.25,173.25 899.375,173.1719 C899.6406,173.0156 899.7813,172.7344 899.7813,172.4375 C899.7813,172.1719 899.6719,171.9063 899.4375,171.7344 C899.2656,171.625 899.125,171.5938 898.6719,171.5938 L893.5313,171.5938 C893.0938,171.5938 892.9688,171.6094 892.8125,171.7031 C892.5625,171.8594 892.4063,172.1563 892.4063,172.4375 C892.4063,172.7188 892.5469,172.9688 892.7656,173.1406 C892.9219,173.25 893.1094,173.2813 893.5313,173.2813 L895.25,173.2813 L895.25,179.7969 L893.5313,179.7969 C893.0938,179.7969 892.9688,179.8125 892.8125,179.9219 C892.5625,180.0781 892.4063,180.3594 892.4063,180.6563 C892.4063,180.9063 892.5469,181.1719 892.7656,181.3281 C892.9219,181.4531 893.125,181.5 893.5313,181.5 L898.6719,181.5 C899.4219,181.5 899.7813,181.2188 899.7813,180.6563 C899.7813,180.375 899.6719,180.125 899.4375,179.9531 C899.2656,179.8281 899.125,179.7969 898.6719,179.7969 L896.9531,179.7969 L896.9531,173.2813 Z " fill="#000000"/><text fill="#000000" font-family="sans-serif" font-size="14" font-style="italic" lengthAdjust="spacing" textLength="96" x="910" y="181.3467">IDamageable</text><line style="stroke:#181818;stroke-width:0.5;" x1="882" x2="1008" y1="192.5" y2="192.5"/><line style="stroke:#181818;stroke-width:0.5;" x1="882" x2="1008" y1="200.5" y2="200.5"/><text fill="#000000" font-family="sans-serif" font-size="14" lengthAdjust="spacing" textLength="101" x="887" y="217.4951">getHitPoints()</text><text fill="#000000" font-family="sans-serif" font-size="14" lengthAdjust="spacing" textLength="99" x="887" y="233.792">setHitPoints()</text></g><!--class IGamePluginService--><g id="elem_IGamePluginService"><rect codeLine="26" fill="#F1F1F1" height="80.5938" id="IGamePluginService" rx="2.5" ry="2.5" style="stroke:#181818;stroke-width:0.5;" width="175" x="1044.5" y="160.5"/><ellipse cx="1059.5" cy="176.5" fill="#B4A7E5" rx="11" ry="11" style="stroke:#181818;stroke-width:1.0;"/><path d="M1060.4531,173.2813 L1062.1719,173.2813 C1062.5625,173.2813 1062.75,173.25 1062.875,173.1719 C1063.1406,173.0156 1063.2813,172.7344 1063.2813,172.4375 C1063.2813,172.1719 1063.1719,171.9063 1062.9375,171.7344 C1062.7656,171.625 1062.625,171.5938 1062.1719,171.5938 L1057.0313,171.5938 C1056.5938,171.5938 1056.4688,171.6094 1056.3125,171.7031 C1056.0625,171.8594 1055.9063,172.1563 1055.9063,172.4375 C1055.9063,172.7188 1056.0469,172.9688 1056.2656,173.1406 C1056.4219,173.25 1056.6094,173.2813 1057.0313,173.2813 L1058.75,173.2813 L1058.75,179.7969 L1057.0313,179.7969 C1056.5938,179.7969 1056.4688,179.8125 1056.3125,179.9219 C1056.0625,180.0781 1055.9063,180.3594 1055.9063,180.6563 C1055.9063,180.9063 1056.0469,181.1719 1056.2656,181.3281 C1056.4219,181.4531 1056.625,181.5 1057.0313,181.5 L1062.1719,181.5 C1062.9219,181.5 1063.2813,181.2188 1063.2813,180.6563 C1063.2813,180.375 1063.1719,180.125 1062.9375,179.9531 C1062.7656,179.8281 1062.625,179.7969 1062.1719,179.7969 L1060.4531,179.7969 L1060.4531,173.2813 Z " fill="#000000"/><text fill="#000000" font-family="sans-serif" font-size="14" font-style="italic" lengthAdjust="spacing" textLength="143" x="1073.5" y="181.3467">IGamePluginService</text><line style="stroke:#181818;stroke-width:0.5;" x1="1045.5" x2="1218.5" y1="192.5" y2="192.5"/><line style="stroke:#181818;stroke-width:0.5;" x1="1045.5" x2="1218.5" y1="200.5" y2="200.5"/><text fill="#000000" font-family="sans-serif" font-size="14" lengthAdjust="spacing" textLength="45" x="1050.5" y="217.4951">start()</text><text fill="#000000" font-family="sans-serif" font-size="14" lengthAdjust="spacing" textLength="43" x="1050.5" y="233.792">stop()</text></g><!--class IEntityProcessingService--><g id="elem_IEntityProcessingService"><rect codeLine="31" fill="#F1F1F1" height="64.2969" id="IEntityProcessingService" rx="2.5" ry="2.5" style="stroke:#181818;stroke-width:0.5;" width="205" x="1408.5" y="169"/><ellipse cx="1423.5" cy="185" fill="#B4A7E5" rx="11" ry="11" style="stroke:#181818;stroke-width:1.0;"/><path d="M1424.4531,181.7813 L1426.1719,181.7813 C1426.5625,181.7813 1426.75,181.75 1426.875,181.6719 C1427.1406,181.5156 1427.2813,181.2344 1427.2813,180.9375 C1427.2813,180.6719 1427.1719,180.4063 1426.9375,180.2344 C1426.7656,180.125 1426.625,180.0938 1426.1719,180.0938 L1421.0313,180.0938 C1420.5938,180.0938 1420.4688,180.1094 1420.3125,180.2031 C1420.0625,180.3594 1419.9063,180.6563 1419.9063,180.9375 C1419.9063,181.2188 1420.0469,181.4688 1420.2656,181.6406 C1420.4219,181.75 1420.6094,181.7813 1421.0313,181.7813 L1422.75,181.7813 L1422.75,188.2969 L1421.0313,188.2969 C1420.5938,188.2969 1420.4688,188.3125 1420.3125,188.4219 C1420.0625,188.5781 1419.9063,188.8594 1419.9063,189.1563 C1419.9063,189.4063 1420.0469,189.6719 1420.2656,189.8281 C1420.4219,189.9531 1420.625,190 1421.0313,190 L1426.1719,190 C1426.9219,190 1427.2813,189.7188 1427.2813,189.1563 C1427.2813,188.875 1427.1719,188.625 1426.9375,188.4531 C1426.7656,188.3281 1426.625,188.2969 1426.1719,188.2969 L1424.4531,188.2969 L1424.4531,181.7813 Z " fill="#000000"/><text fill="#000000" font-family="sans-serif" font-size="14" font-style="italic" lengthAdjust="spacing" textLength="173" x="1437.5" y="189.8467">IEntityProcessingService</text><line style="stroke:#181818;stroke-width:0.5;" x1="1409.5" x2="1612.5" y1="201" y2="201"/><line style="stroke:#181818;stroke-width:0.5;" x1="1409.5" x2="1612.5" y1="209" y2="209"/><text fill="#000000" font-family="sans-serif" font-size="14" lengthAdjust="spacing" textLength="66" x="1414.5" y="225.9951">process()</text></g><!--class IPostEntityProcessingService--><g id="elem_IPostEntityProcessingService"><rect codeLine="35" fill="#F1F1F1" height="64.2969" id="IPostEntityProcessingService" rx="2.5" ry="2.5" style="stroke:#181818;stroke-width:0.5;" width="234" x="457" y="169"/><ellipse cx="472" cy="185" fill="#B4A7E5" rx="11" ry="11" style="stroke:#181818;stroke-width:1.0;"/><path d="M472.9531,181.7813 L474.6719,181.7813 C475.0625,181.7813 475.25,181.75 475.375,181.6719 C475.6406,181.5156 475.7813,181.2344 475.7813,180.9375 C475.7813,180.6719 475.6719,180.4063 475.4375,180.2344 C475.2656,180.125 475.125,180.0938 474.6719,180.0938 L469.5313,180.0938 C469.0938,180.0938 468.9688,180.1094 468.8125,180.2031 C468.5625,180.3594 468.4063,180.6563 468.4063,180.9375 C468.4063,181.2188 468.5469,181.4688 468.7656,181.6406 C468.9219,181.75 469.1094,181.7813 469.5313,181.7813 L471.25,181.7813 L471.25,188.2969 L469.5313,188.2969 C469.0938,188.2969 468.9688,188.3125 468.8125,188.4219 C468.5625,188.5781 468.4063,188.8594 468.4063,189.1563 C468.4063,189.4063 468.5469,189.6719 468.7656,189.8281 C468.9219,189.9531 469.125,190 469.5313,190 L474.6719,190 C475.4219,190 475.7813,189.7188 475.7813,189.1563 C475.7813,188.875 475.6719,188.625 475.4375,188.4531 C475.2656,188.3281 475.125,188.2969 474.6719,188.2969 L472.9531,188.2969 L472.9531,181.7813 Z " fill="#000000"/><text fill="#000000" font-family="sans-serif" font-size="14" font-style="italic" lengthAdjust="spacing" textLength="202" x="486" y="189.8467">IPostEntityProcessingService</text><line style="stroke:#181818;stroke-width:0.5;" x1="458" x2="690" y1="201" y2="201"/><line style="stroke:#181818;stroke-width:0.5;" x1="458" x2="690" y1="209" y2="209"/><text fill="#000000" font-family="sans-serif" font-size="14" lengthAdjust="spacing" textLength="98" x="463" y="225.9951">postProcess()</text></g><!--class World--><g id="elem_World"><rect codeLine="41" fill="#F1F1F1" height="129.4844" id="World" rx="2.5" ry="2.5" style="stroke:#181818;stroke-width:0.5;" width="121" x="2108.5" y="136.5"/><ellipse cx="2144.65" cy="152.5" fill="#ADD1B2" rx="11" ry="11" style="stroke:#181818;stroke-width:1.0;"/><path d="M2146.9938,148.1719 C2146.0563,147.7344 2145.4625,147.5938 2144.5875,147.5938 C2141.9625,147.5938 2139.9625,149.6719 2139.9625,152.3906 L2139.9625,153.5156 C2139.9625,156.0938 2142.0719,157.9844 2144.9625,157.9844 C2146.1813,157.9844 2147.3375,157.6875 2148.0875,157.1406 C2148.6656,156.7344 2148.9938,156.2813 2148.9938,155.8906 C2148.9938,155.4375 2148.6031,155.0469 2148.1344,155.0469 C2147.9156,155.0469 2147.7125,155.125 2147.525,155.3125 C2147.0719,155.7969 2147.0719,155.7969 2146.8844,155.8906 C2146.4625,156.1563 2145.775,156.2813 2145.0094,156.2813 C2142.9625,156.2813 2141.6656,155.1875 2141.6656,153.4844 L2141.6656,152.3906 C2141.6656,150.6094 2142.9156,149.2969 2144.65,149.2969 C2145.2281,149.2969 2145.8375,149.4531 2146.3063,149.7031 C2146.7906,149.9844 2146.9625,150.2031 2147.0563,150.6094 C2147.1188,151.0156 2147.15,151.1406 2147.2906,151.2656 C2147.4313,151.4063 2147.6656,151.5156 2147.8844,151.5156 C2148.15,151.5156 2148.4156,151.375 2148.5875,151.1563 C2148.6969,151 2148.7281,150.8125 2148.7281,150.3906 L2148.7281,148.9688 C2148.7281,148.5313 2148.7125,148.4063 2148.6188,148.25 C2148.4625,147.9844 2148.1813,147.8438 2147.8844,147.8438 C2147.5875,147.8438 2147.3844,147.9375 2147.1656,148.25 L2146.9938,148.1719 Z " fill="#000000"/><text fill="#000000" font-family="sans-serif" font-size="14" lengthAdjust="spacing" textLength="42" x="2163.35" y="157.3467">World</text><line style="stroke:#181818;stroke-width:0.5;" x1="2109.5" x2="2228.5" y1="168.5" y2="168.5"/><text fill="#000000" font-family="sans-serif" font-size="14" lengthAdjust="spacing" textLength="56" x="2114.5" y="185.4951">entities</text><text fill="#000000" font-family="sans-serif" font-size="14" lengthAdjust="spacing" textLength="32" x="2114.5" y="201.792">map</text><line style="stroke:#181818;stroke-width:0.5;" x1="2109.5" x2="2228.5" y1="209.0938" y2="209.0938"/><text fill="#000000" font-family="sans-serif" font-size="14" lengthAdjust="spacing" textLength="80" x="2114.5" y="226.0889">addEntity()</text><text fill="#000000" font-family="sans-serif" font-size="14" lengthAdjust="spacing" textLength="109" x="2114.5" y="242.3857">removeEntity()</text><text fill="#000000" font-family="sans-serif" font-size="14" lengthAdjust="spacing" textLength="79" x="2114.5" y="258.6826">getEntity()</text></g><!--class Entity--><g id="elem_Entity"><rect codeLine="49" fill="#F1F1F1" height="145.7813" id="Entity" rx="2.5" ry="2.5" style="stroke:#181818;stroke-width:0.5;" width="217" x="1856.5" y="128"/><ellipse cx="1938.75" cy="144" fill="#ADD1B2" rx="11" ry="11" style="stroke:#181818;stroke-width:1.0;"/><path d="M1941.0938,139.6719 C1940.1563,139.2344 1939.5625,139.0938 1938.6875,139.0938 C1936.0625,139.0938 1934.0625,141.1719 1934.0625,143.8906 L1934.0625,145.0156 C1934.0625,147.5938 1936.1719,149.4844 1939.0625,149.4844 C1940.2813,149.4844 1941.4375,149.1875 1942.1875,148.6406 C1942.7656,148.2344 1943.0938,147.7813 1943.0938,147.3906 C1943.0938,146.9375 1942.7031,146.5469 1942.2344,146.5469 C1942.0156,146.5469 1941.8125,146.625 1941.625,146.8125 C1941.1719,147.2969 1941.1719,147.2969 1940.9844,147.3906 C1940.5625,147.6563 1939.875,147.7813 1939.1094,147.7813 C1937.0625,147.7813 1935.7656,146.6875 1935.7656,144.9844 L1935.7656,143.8906 C1935.7656,142.1094 1937.0156,140.7969 1938.75,140.7969 C1939.3281,140.7969 1939.9375,140.9531 1940.4063,141.2031 C1940.8906,141.4844 1941.0625,141.7031 1941.1563,142.1094 C1941.2188,142.5156 1941.25,142.6406 1941.3906,142.7656 C1941.5313,142.9063 1941.7656,143.0156 1941.9844,143.0156 C1942.25,143.0156 1942.5156,142.875 1942.6875,142.6563 C1942.7969,142.5 1942.8281,142.3125 1942.8281,141.8906 L1942.8281,140.4688 C1942.8281,140.0313 1942.8125,139.9063 1942.7188,139.75 C1942.5625,139.4844 1942.2813,139.3438 1941.9844,139.3438 C1941.6875,139.3438 1941.4844,139.4375 1941.2656,139.75 L1941.0938,139.6719 Z " fill="#000000"/><text fill="#000000" font-family="sans-serif" font-size="14" lengthAdjust="spacing" textLength="44" x="1959.25" y="148.8467">Entity</text><line style="stroke:#181818;stroke-width:0.5;" x1="1857.5" x2="2072.5" y1="160" y2="160"/><text fill="#000000" font-family="sans-serif" font-size="14" lengthAdjust="spacing" textLength="85" x="1862.5" y="176.9951">coordinates</text><text fill="#000000" font-family="sans-serif" font-size="14" lengthAdjust="spacing" textLength="65" x="1862.5" y="193.292">direction</text><line style="stroke:#181818;stroke-width:0.5;" x1="1857.5" x2="2072.5" y1="200.5938" y2="200.5938"/><text fill="#000000" font-family="sans-serif" font-size="14" lengthAdjust="spacing" textLength="122" x="1862.5" y="217.5889">getCoordinates()</text><text fill="#000000" font-family="sans-serif" font-size="14" lengthAdjust="spacing" textLength="205" x="1862.5" y="233.8857">setCoordinates(coordinates)</text><text fill="#000000" font-family="sans-serif" font-size="14" lengthAdjust="spacing" textLength="102" x="1862.5" y="250.1826">getDirection()</text><text fill="#000000" font-family="sans-serif" font-size="14" lengthAdjust="spacing" textLength="165" x="1862.5" y="266.4795">setDirection(direction)</text></g><!--class Bomb--><g id="elem_Bomb"><rect codeLine="80" fill="#F1F1F1" height="145.7813" id="Bomb" rx="2.5" ry="2.5" style="stroke:#181818;stroke-width:0.5;" width="190" x="2194" y="465"/><ellipse cx="2263.25" cy="481" fill="#ADD1B2" rx="11" ry="11" style="stroke:#181818;stroke-width:1.0;"/><path d="M2265.5938,476.6719 C2264.6563,476.2344 2264.0625,476.0938 2263.1875,476.0938 C2260.5625,476.0938 2258.5625,478.1719 2258.5625,480.8906 L2258.5625,482.0156 C2258.5625,484.5938 2260.6719,486.4844 2263.5625,486.4844 C2264.7813,486.4844 2265.9375,486.1875 2266.6875,485.6406 C2267.2656,485.2344 2267.5938,484.7813 2267.5938,484.3906 C2267.5938,483.9375 2267.2031,483.5469 2266.7344,483.5469 C2266.5156,483.5469 2266.3125,483.625 2266.125,483.8125 C2265.6719,484.2969 2265.6719,484.2969 2265.4844,484.3906 C2265.0625,484.6563 2264.375,484.7813 2263.6094,484.7813 C2261.5625,484.7813 2260.2656,483.6875 2260.2656,481.9844 L2260.2656,480.8906 C2260.2656,479.1094 2261.5156,477.7969 2263.25,477.7969 C2263.8281,477.7969 2264.4375,477.9531 2264.9063,478.2031 C2265.3906,478.4844 2265.5625,478.7031 2265.6563,479.1094 C2265.7188,479.5156 2265.75,479.6406 2265.8906,479.7656 C2266.0313,479.9063 2266.2656,480.0156 2266.4844,480.0156 C2266.75,480.0156 2267.0156,479.875 2267.1875,479.6563 C2267.2969,479.5 2267.3281,479.3125 2267.3281,478.8906 L2267.3281,477.4688 C2267.3281,477.0313 2267.3125,476.9063 2267.2188,476.75 C2267.0625,476.4844 2266.7813,476.3438 2266.4844,476.3438 C2266.1875,476.3438 2265.9844,476.4375 2265.7656,476.75 L2265.5938,476.6719 Z " fill="#000000"/><text fill="#000000" font-family="sans-serif" font-size="14" lengthAdjust="spacing" textLength="43" x="2283.75" y="485.8467">Bomb</text><line style="stroke:#181818;stroke-width:0.5;" x1="2195" x2="2383" y1="497" y2="497"/><rect fill="none" height="6" style="stroke:#C82930;stroke-width:1.0;" width="6" x="2202" y="507.6484"/><text fill="#000000" font-family="sans-serif" font-size="14" lengthAdjust="spacing" textLength="128" x="2214" y="513.9951">timeOfPlacement</text><rect fill="none" height="6" style="stroke:#C82930;stroke-width:1.0;" width="6" x="2202" y="523.9453"/><text fill="#000000" font-family="sans-serif" font-size="14" lengthAdjust="spacing" textLength="124" x="2214" y="530.292">timeTillExplosion</text><rect fill="none" height="6" style="stroke:#C82930;stroke-width:1.0;" width="6" x="2202" y="540.2422"/><text fill="#000000" font-family="sans-serif" font-size="14" lengthAdjust="spacing" textLength="102" x="2214" y="546.5889">damagePoints</text><rect fill="none" height="6" style="stroke:#C82930;stroke-width:1.0;" width="6" x="2202" y="556.5391"/><text fill="#000000" font-family="sans-serif" font-size="14" lengthAdjust="spacing" textLength="69" x="2214" y="562.8857">blastArea</text><line style="stroke:#181818;stroke-width:0.5;" x1="2195" x2="2383" y1="570.1875" y2="570.1875"/><ellipse cx="2205" cy="583.8359" fill="#84BE84" rx="3" ry="3" style="stroke:#038048;stroke-width:1.0;"/><text fill="#000000" font-family="sans-serif" font-size="14" lengthAdjust="spacing" textLength="102" x="2214" y="587.1826">setBlastArea()</text><ellipse cx="2205" cy="600.1328" fill="#84BE84" rx="3" ry="3" style="stroke:#038048;stroke-width:1.0;"/><text fill="#000000" font-family="sans-serif" font-size="14" lengthAdjust="spacing" textLength="164" x="2214" y="603.4795">calcTimeTillExplosion()</text></g><!--class BombExplosionSystem--><g id="elem_BombExplosionSystem"><rect codeLine="90" fill="#F1F1F1" height="129.4844" id="BombExplosionSystem" rx="2.5" ry="2.5" style="stroke:#181818;stroke-width:0.5;" width="202" x="1957" y="473.5"/><ellipse cx="1973.8" cy="489.5" fill="#ADD1B2" rx="11" ry="11" style="stroke:#181818;stroke-width:1.0;"/><path d="M1976.1438,485.1719 C1975.2063,484.7344 1974.6125,484.5938 1973.7375,484.5938 C1971.1125,484.5938 1969.1125,486.6719 1969.1125,489.3906 L1969.1125,490.5156 C1969.1125,493.0938 1971.2219,494.9844 1974.1125,494.9844 C1975.3313,494.9844 1976.4875,494.6875 1977.2375,494.1406 C1977.8156,493.7344 1978.1438,493.2813 1978.1438,492.8906 C1978.1438,492.4375 1977.7531,492.0469 1977.2844,492.0469 C1977.0656,492.0469 1976.8625,492.125 1976.675,492.3125 C1976.2219,492.7969 1976.2219,492.7969 1976.0344,492.8906 C1975.6125,493.1563 1974.925,493.2813 1974.1594,493.2813 C1972.1125,493.2813 1970.8156,492.1875 1970.8156,490.4844 L1970.8156,489.3906 C1970.8156,487.6094 1972.0656,486.2969 1973.8,486.2969 C1974.3781,486.2969 1974.9875,486.4531 1975.4563,486.7031 C1975.9406,486.9844 1976.1125,487.2031 1976.2063,487.6094 C1976.2688,488.0156 1976.3,488.1406 1976.4406,488.2656 C1976.5813,488.4063 1976.8156,488.5156 1977.0344,488.5156 C1977.3,488.5156 1977.5656,488.375 1977.7375,488.1563 C1977.8469,488 1977.8781,487.8125 1977.8781,487.3906 L1977.8781,485.9688 C1977.8781,485.5313 1977.8625,485.4063 1977.7688,485.25 C1977.6125,484.9844 1977.3313,484.8438 1977.0344,484.8438 C1976.7375,484.8438 1976.5344,484.9375 1976.3156,485.25 L1976.1438,485.1719 Z " fill="#000000"/><text fill="#000000" font-family="sans-serif" font-size="14" lengthAdjust="spacing" textLength="166" x="1988.2" y="494.3467">BombExplosionSystem</text><line style="stroke:#181818;stroke-width:0.5;" x1="1958" x2="2158" y1="505.5" y2="505.5"/><rect fill="none" height="6" style="stroke:#C82930;stroke-width:1.0;" width="6" x="1965" y="516.1484"/><text fill="#000000" font-family="sans-serif" font-size="14" lengthAdjust="spacing" textLength="39" x="1977" y="522.4951">world</text><rect fill="none" height="6" style="stroke:#C82930;stroke-width:1.0;" width="6" x="1965" y="532.4453"/><text fill="#000000" font-family="sans-serif" font-size="14" lengthAdjust="spacing" textLength="74" x="1977" y="538.792">world</text><line style="stroke:#181818;stroke-width:0.5;" x1="1958" x2="2158" y1="546.0938" y2="546.0938"/><ellipse cx="1968" cy="559.7422" fill="#84BE84" rx="3" ry="3" style="stroke:#038048;stroke-width:1.0;"/><text fill="#000000" font-family="sans-serif" font-size="14" lengthAdjust="spacing" textLength="176" x="1977" y="563.0889">BombExplosionSystem()</text><ellipse cx="1968" cy="576.0391" fill="#84BE84" rx="3" ry="3" style="stroke:#038048;stroke-width:1.0;"/><text fill="#000000" font-family="sans-serif" font-size="14" lengthAdjust="spacing" textLength="143" x="1977" y="579.3857">calculateBlastArea()</text><ellipse cx="1968" cy="592.3359" fill="#84BE84" rx="3" ry="3" style="stroke:#038048;stroke-width:1.0;"/><text fill="#000000" font-family="sans-serif" font-size="14" lengthAdjust="spacing" textLength="66" x="1977" y="595.6826">process()</text></g><!--class EnemyCollisionControlSystem--><g id="elem_EnemyCollisionControlSystem"><rect codeLine="112" fill="#F1F1F1" height="96.8906" id="EnemyCollisionControlSystem" rx="2.5" ry="2.5" style="stroke:#181818;stroke-width:0.5;" width="249" x="611.5" y="489.5"/><ellipse cx="626.5" cy="505.5" fill="#ADD1B2" rx="11" ry="11" style="stroke:#181818;stroke-width:1.0;"/><path d="M628.8438,501.1719 C627.9063,500.7344 627.3125,500.5938 626.4375,500.5938 C623.8125,500.5938 621.8125,502.6719 621.8125,505.3906 L621.8125,506.5156 C621.8125,509.0938 623.9219,510.9844 626.8125,510.9844 C628.0313,510.9844 629.1875,510.6875 629.9375,510.1406 C630.5156,509.7344 630.8438,509.2813 630.8438,508.8906 C630.8438,508.4375 630.4531,508.0469 629.9844,508.0469 C629.7656,508.0469 629.5625,508.125 629.375,508.3125 C628.9219,508.7969 628.9219,508.7969 628.7344,508.8906 C628.3125,509.1563 627.625,509.2813 626.8594,509.2813 C624.8125,509.2813 623.5156,508.1875 623.5156,506.4844 L623.5156,505.3906 C623.5156,503.6094 624.7656,502.2969 626.5,502.2969 C627.0781,502.2969 627.6875,502.4531 628.1563,502.7031 C628.6406,502.9844 628.8125,503.2031 628.9063,503.6094 C628.9688,504.0156 629,504.1406 629.1406,504.2656 C629.2813,504.4063 629.5156,504.5156 629.7344,504.5156 C630,504.5156 630.2656,504.375 630.4375,504.1563 C630.5469,504 630.5781,503.8125 630.5781,503.3906 L630.5781,501.9688 C630.5781,501.5313 630.5625,501.4063 630.4688,501.25 C630.3125,500.9844 630.0313,500.8438 629.7344,500.8438 C629.4375,500.8438 629.2344,500.9375 629.0156,501.25 L628.8438,501.1719 Z " fill="#000000"/><text fill="#000000" font-family="sans-serif" font-size="14" lengthAdjust="spacing" textLength="217" x="640.5" y="510.3467">EnemyCollisionControlSystem</text><line style="stroke:#181818;stroke-width:0.5;" x1="612.5" x2="859.5" y1="521.5" y2="521.5"/><text fill="#000000" font-family="sans-serif" font-size="14" lengthAdjust="spacing" textLength="112" x="617.5" y="538.4951">XCord  'maybe?</text><text fill="#000000" font-family="sans-serif" font-size="14" lengthAdjust="spacing" textLength="111" x="617.5" y="554.792">YCord  'maybe?</text><line style="stroke:#181818;stroke-width:0.5;" x1="612.5" x2="859.5" y1="562.0938" y2="562.0938"/><text fill="#000000" font-family="sans-serif" font-size="14" lengthAdjust="spacing" textLength="113" x="617.5" y="579.0889">checkCollision()</text></g><!--class Enemy--><g id="elem_Enemy"><rect codeLine="118" fill="#F1F1F1" height="48" id="Enemy" rx="2.5" ry="2.5" style="stroke:#181818;stroke-width:0.5;" width="81" x="495.5" y="514"/><ellipse cx="510.5" cy="530" fill="#ADD1B2" rx="11" ry="11" style="stroke:#181818;stroke-width:1.0;"/><path d="M512.8438,525.6719 C511.9063,525.2344 511.3125,525.0938 510.4375,525.0938 C507.8125,525.0938 505.8125,527.1719 505.8125,529.8906 L505.8125,531.0156 C505.8125,533.5938 507.9219,535.4844 510.8125,535.4844 C512.0313,535.4844 513.1875,535.1875 513.9375,534.6406 C514.5156,534.2344 514.8438,533.7813 514.8438,533.3906 C514.8438,532.9375 514.4531,532.5469 513.9844,532.5469 C513.7656,532.5469 513.5625,532.625 513.375,532.8125 C512.9219,533.2969 512.9219,533.2969 512.7344,533.3906 C512.3125,533.6563 511.625,533.7813 510.8594,533.7813 C508.8125,533.7813 507.5156,532.6875 507.5156,530.9844 L507.5156,529.8906 C507.5156,528.1094 508.7656,526.7969 510.5,526.7969 C511.0781,526.7969 511.6875,526.9531 512.1563,527.2031 C512.6406,527.4844 512.8125,527.7031 512.9063,528.1094 C512.9688,528.5156 513,528.6406 513.1406,528.7656 C513.2813,528.9063 513.5156,529.0156 513.7344,529.0156 C514,529.0156 514.2656,528.875 514.4375,528.6563 C514.5469,528.5 514.5781,528.3125 514.5781,527.8906 L514.5781,526.4688 C514.5781,526.0313 514.5625,525.9063 514.4688,525.75 C514.3125,525.4844 514.0313,525.3438 513.7344,525.3438 C513.4375,525.3438 513.2344,525.4375 513.0156,525.75 L512.8438,525.6719 Z " fill="#000000"/><text fill="#000000" font-family="sans-serif" font-size="14" lengthAdjust="spacing" textLength="49" x="524.5" y="534.8467">Enemy</text><line style="stroke:#181818;stroke-width:0.5;" x1="496.5" x2="575.5" y1="546" y2="546"/><line style="stroke:#181818;stroke-width:0.5;" x1="496.5" x2="575.5" y1="554" y2="554"/></g><!--class EnemyControlSystem--><g id="elem_EnemyControlSystem"><rect codeLine="121" fill="#F1F1F1" height="129.4844" id="EnemyControlSystem" rx="2.5" ry="2.5" style="stroke:#181818;stroke-width:0.5;" width="239" x="23.5" y="473.5"/><ellipse cx="61" cy="489.5" fill="#ADD1B2" rx="11" ry="11" style="stroke:#181818;stroke-width:1.0;"/><path d="M63.3438,485.1719 C62.4063,484.7344 61.8125,484.5938 60.9375,484.5938 C58.3125,484.5938 56.3125,486.6719 56.3125,489.3906 L56.3125,490.5156 C56.3125,493.0938 58.4219,494.9844 61.3125,494.9844 C62.5313,494.9844 63.6875,494.6875 64.4375,494.1406 C65.0156,493.7344 65.3438,493.2813 65.3438,492.8906 C65.3438,492.4375 64.9531,492.0469 64.4844,492.0469 C64.2656,492.0469 64.0625,492.125 63.875,492.3125 C63.4219,492.7969 63.4219,492.7969 63.2344,492.8906 C62.8125,493.1563 62.125,493.2813 61.3594,493.2813 C59.3125,493.2813 58.0156,492.1875 58.0156,490.4844 L58.0156,489.3906 C58.0156,487.6094 59.2656,486.2969 61,486.2969 C61.5781,486.2969 62.1875,486.4531 62.6563,486.7031 C63.1406,486.9844 63.3125,487.2031 63.4063,487.6094 C63.4688,488.0156 63.5,488.1406 63.6406,488.2656 C63.7813,488.4063 64.0156,488.5156 64.2344,488.5156 C64.5,488.5156 64.7656,488.375 64.9375,488.1563 C65.0469,488 65.0781,487.8125 65.0781,487.3906 L65.0781,485.9688 C65.0781,485.5313 65.0625,485.4063 64.9688,485.25 C64.8125,484.9844 64.5313,484.8438 64.2344,484.8438 C63.9375,484.8438 63.7344,484.9375 63.5156,485.25 L63.3438,485.1719 Z " fill="#000000"/><text fill="#000000" font-family="sans-serif" font-size="14" lengthAdjust="spacing" textLength="157" x="80" y="494.3467">EnemyControlSystem</text><line style="stroke:#181818;stroke-width:0.5;" x1="24.5" x2="261.5" y1="505.5" y2="505.5"/><rect fill="none" height="6" style="stroke:#C82930;stroke-width:1.0;" width="6" x="31.5" y="516.1484"/><text fill="#000000" font-family="sans-serif" font-size="14" lengthAdjust="spacing" textLength="213" x="43.5" y="522.4951">IWeapon[] placeableWeapons</text><line style="stroke:#181818;stroke-width:0.5;" x1="24.5" x2="261.5" y1="529.7969" y2="529.7969"/><ellipse cx="34.5" cy="543.4453" fill="#84BE84" rx="3" ry="3" style="stroke:#038048;stroke-width:1.0;"/><text fill="#000000" font-family="sans-serif" font-size="14" lengthAdjust="spacing" textLength="108" x="43.5" y="546.792">placeWeapon()</text><ellipse cx="34.5" cy="559.7422" fill="#84BE84" rx="3" ry="3" style="stroke:#038048;stroke-width:1.0;"/><text fill="#000000" font-family="sans-serif" font-size="14" lengthAdjust="spacing" textLength="102" x="43.5" y="563.0889">takeDamage()</text><ellipse cx="34.5" cy="576.0391" fill="#84BE84" rx="3" ry="3" style="stroke:#038048;stroke-width:1.0;"/><text fill="#000000" font-family="sans-serif" font-size="14" lengthAdjust="spacing" textLength="66" x="43.5" y="579.3857">process()</text><ellipse cx="34.5" cy="592.3359" fill="#84BE84" rx="3" ry="3" style="stroke:#038048;stroke-width:1.0;"/><text fill="#000000" font-family="sans-serif" font-size="14" lengthAdjust="spacing" textLength="50" x="43.5" y="595.6826">move()</text></g><!--class EnemyPlugin--><g id="elem_EnemyPlugin"><rect codeLine="129" fill="#F1F1F1" height="113.1875" id="EnemyPlugin" rx="2.5" ry="2.5" style="stroke:#181818;stroke-width:0.5;" width="163" x="297.5" y="481.5"/><ellipse cx="330.05" cy="497.5" fill="#ADD1B2" rx="11" ry="11" style="stroke:#181818;stroke-width:1.0;"/><path d="M332.3938,493.1719 C331.4563,492.7344 330.8625,492.5938 329.9875,492.5938 C327.3625,492.5938 325.3625,494.6719 325.3625,497.3906 L325.3625,498.5156 C325.3625,501.0938 327.4719,502.9844 330.3625,502.9844 C331.5813,502.9844 332.7375,502.6875 333.4875,502.1406 C334.0656,501.7344 334.3938,501.2813 334.3938,500.8906 C334.3938,500.4375 334.0031,500.0469 333.5344,500.0469 C333.3156,500.0469 333.1125,500.125 332.925,500.3125 C332.4719,500.7969 332.4719,500.7969 332.2844,500.8906 C331.8625,501.1563 331.175,501.2813 330.4094,501.2813 C328.3625,501.2813 327.0656,500.1875 327.0656,498.4844 L327.0656,497.3906 C327.0656,495.6094 328.3156,494.2969 330.05,494.2969 C330.6281,494.2969 331.2375,494.4531 331.7063,494.7031 C332.1906,494.9844 332.3625,495.2031 332.4563,495.6094 C332.5188,496.0156 332.55,496.1406 332.6906,496.2656 C332.8313,496.4063 333.0656,496.5156 333.2844,496.5156 C333.55,496.5156 333.8156,496.375 333.9875,496.1563 C334.0969,496 334.1281,495.8125 334.1281,495.3906 L334.1281,493.9688 C334.1281,493.5313 334.1125,493.4063 334.0188,493.25 C333.8625,492.9844 333.5813,492.8438 333.2844,492.8438 C332.9875,492.8438 332.7844,492.9375 332.5656,493.25 L332.3938,493.1719 Z " fill="#000000"/><text fill="#000000" font-family="sans-serif" font-size="14" lengthAdjust="spacing" textLength="92" x="347.95" y="502.3467">EnemyPlugin</text><line style="stroke:#181818;stroke-width:0.5;" x1="298.5" x2="459.5" y1="513.5" y2="513.5"/><rect fill="none" height="6" style="stroke:#C82930;stroke-width:1.0;" width="6" x="305.5" y="524.1484"/><text fill="#000000" font-family="sans-serif" font-size="14" lengthAdjust="spacing" textLength="137" x="317.5" y="530.4951">Entity playerEntity</text><line style="stroke:#181818;stroke-width:0.5;" x1="298.5" x2="459.5" y1="537.7969" y2="537.7969"/><ellipse cx="308.5" cy="551.4453" fill="#84BE84" rx="3" ry="3" style="stroke:#038048;stroke-width:1.0;"/><text fill="#000000" font-family="sans-serif" font-size="14" lengthAdjust="spacing" textLength="101" x="317.5" y="554.792">createPlayer()</text><ellipse cx="308.5" cy="567.7422" fill="#84BE84" rx="3" ry="3" style="stroke:#038048;stroke-width:1.0;"/><text fill="#000000" font-family="sans-serif" font-size="14" lengthAdjust="spacing" textLength="45" x="317.5" y="571.0889">start()</text><ellipse cx="308.5" cy="584.0391" fill="#84BE84" rx="3" ry="3" style="stroke:#038048;stroke-width:1.0;"/><text fill="#000000" font-family="sans-serif" font-size="14" lengthAdjust="spacing" textLength="43" x="317.5" y="587.3857">stop()</text></g><!--class PathFinding--><g id="elem_PathFinding"><rect codeLine="103" fill="#F1F1F1" height="64.2969" id="PathFinding" rx="2.5" ry="2.5" style="stroke:#181818;stroke-width:0.5;" width="181" x="1157.5" y="506"/><ellipse cx="1201.3" cy="522" fill="#ADD1B2" rx="11" ry="11" style="stroke:#181818;stroke-width:1.0;"/><path d="M1203.6438,517.6719 C1202.7063,517.2344 1202.1125,517.0938 1201.2375,517.0938 C1198.6125,517.0938 1196.6125,519.1719 1196.6125,521.8906 L1196.6125,523.0156 C1196.6125,525.5938 1198.7219,527.4844 1201.6125,527.4844 C1202.8313,527.4844 1203.9875,527.1875 1204.7375,526.6406 C1205.3156,526.2344 1205.6438,525.7813 1205.6438,525.3906 C1205.6438,524.9375 1205.2531,524.5469 1204.7844,524.5469 C1204.5656,524.5469 1204.3625,524.625 1204.175,524.8125 C1203.7219,525.2969 1203.7219,525.2969 1203.5344,525.3906 C1203.1125,525.6563 1202.425,525.7813 1201.6594,525.7813 C1199.6125,525.7813 1198.3156,524.6875 1198.3156,522.9844 L1198.3156,521.8906 C1198.3156,520.1094 1199.5656,518.7969 1201.3,518.7969 C1201.8781,518.7969 1202.4875,518.9531 1202.9563,519.2031 C1203.4406,519.4844 1203.6125,519.7031 1203.7063,520.1094 C1203.7688,520.5156 1203.8,520.6406 1203.9406,520.7656 C1204.0813,520.9063 1204.3156,521.0156 1204.5344,521.0156 C1204.8,521.0156 1205.0656,520.875 1205.2375,520.6563 C1205.3469,520.5 1205.3781,520.3125 1205.3781,519.8906 L1205.3781,518.4688 C1205.3781,518.0313 1205.3625,517.9063 1205.2688,517.75 C1205.1125,517.4844 1204.8313,517.3438 1204.5344,517.3438 C1204.2375,517.3438 1204.0344,517.4375 1203.8156,517.75 L1203.6438,517.6719 Z " fill="#000000"/><text fill="#000000" font-family="sans-serif" font-size="14" lengthAdjust="spacing" textLength="85" x="1221.7" y="526.8467">PathFinding</text><line style="stroke:#181818;stroke-width:0.5;" x1="1158.5" x2="1337.5" y1="538" y2="538"/><line style="stroke:#181818;stroke-width:0.5;" x1="1158.5" x2="1337.5" y1="546" y2="546"/><text fill="#000000" font-family="sans-serif" font-size="14" lengthAdjust="spacing" textLength="169" x="1163.5" y="562.9951">calculatePathToPlayer()</text></g><!--class BombPlacing--><g id="elem_BombPlacing"><rect codeLine="107" fill="#F1F1F1" height="64.2969" id="BombPlacing" rx="2.5" ry="2.5" style="stroke:#181818;stroke-width:0.5;" width="226" x="896" y="506"/><ellipse cx="957.75" cy="522" fill="#ADD1B2" rx="11" ry="11" style="stroke:#181818;stroke-width:1.0;"/><path d="M960.0938,517.6719 C959.1563,517.2344 958.5625,517.0938 957.6875,517.0938 C955.0625,517.0938 953.0625,519.1719 953.0625,521.8906 L953.0625,523.0156 C953.0625,525.5938 955.1719,527.4844 958.0625,527.4844 C959.2813,527.4844 960.4375,527.1875 961.1875,526.6406 C961.7656,526.2344 962.0938,525.7813 962.0938,525.3906 C962.0938,524.9375 961.7031,524.5469 961.2344,524.5469 C961.0156,524.5469 960.8125,524.625 960.625,524.8125 C960.1719,525.2969 960.1719,525.2969 959.9844,525.3906 C959.5625,525.6563 958.875,525.7813 958.1094,525.7813 C956.0625,525.7813 954.7656,524.6875 954.7656,522.9844 L954.7656,521.8906 C954.7656,520.1094 956.0156,518.7969 957.75,518.7969 C958.3281,518.7969 958.9375,518.9531 959.4063,519.2031 C959.8906,519.4844 960.0625,519.7031 960.1563,520.1094 C960.2188,520.5156 960.25,520.6406 960.3906,520.7656 C960.5313,520.9063 960.7656,521.0156 960.9844,521.0156 C961.25,521.0156 961.5156,520.875 961.6875,520.6563 C961.7969,520.5 961.8281,520.3125 961.8281,519.8906 L961.8281,518.4688 C961.8281,518.0313 961.8125,517.9063 961.7188,517.75 C961.5625,517.4844 961.2813,517.3438 960.9844,517.3438 C960.6875,517.3438 960.4844,517.4375 960.2656,517.75 L960.0938,517.6719 Z " fill="#000000"/><text fill="#000000" font-family="sans-serif" font-size="14" lengthAdjust="spacing" textLength="94" x="978.25" y="526.8467">BombPlacing</text><line style="stroke:#181818;stroke-width:0.5;" x1="897" x2="1121" y1="538" y2="538"/><line style="stroke:#181818;stroke-width:0.5;" x1="897" x2="1121" y1="546" y2="546"/><text fill="#000000" font-family="sans-serif" font-size="14" lengthAdjust="spacing" textLength="214" x="902" y="562.9951">calculateOptimalPlacement())</text></g><!--class Player--><g id="elem_Player"><rect codeLine="144" fill="#F1F1F1" height="48" id="Player" rx="2.5" ry="2.5" style="stroke:#181818;stroke-width:0.5;" width="76" x="1801" y="514"/><ellipse cx="1816" cy="530" fill="#ADD1B2" rx="11" ry="11" style="stroke:#181818;stroke-width:1.0;"/><path d="M1818.3438,525.6719 C1817.4063,525.2344 1816.8125,525.0938 1815.9375,525.0938 C1813.3125,525.0938 1811.3125,527.1719 1811.3125,529.8906 L1811.3125,531.0156 C1811.3125,533.5938 1813.4219,535.4844 1816.3125,535.4844 C1817.5313,535.4844 1818.6875,535.1875 1819.4375,534.6406 C1820.0156,534.2344 1820.3438,533.7813 1820.3438,533.3906 C1820.3438,532.9375 1819.9531,532.5469 1819.4844,532.5469 C1819.2656,532.5469 1819.0625,532.625 1818.875,532.8125 C1818.4219,533.2969 1818.4219,533.2969 1818.2344,533.3906 C1817.8125,533.6563 1817.125,533.7813 1816.3594,533.7813 C1814.3125,533.7813 1813.0156,532.6875 1813.0156,530.9844 L1813.0156,529.8906 C1813.0156,528.1094 1814.2656,526.7969 1816,526.7969 C1816.5781,526.7969 1817.1875,526.9531 1817.6563,527.2031 C1818.1406,527.4844 1818.3125,527.7031 1818.4063,528.1094 C1818.4688,528.5156 1818.5,528.6406 1818.6406,528.7656 C1818.7813,528.9063 1819.0156,529.0156 1819.2344,529.0156 C1819.5,529.0156 1819.7656,528.875 1819.9375,528.6563 C1820.0469,528.5 1820.0781,528.3125 1820.0781,527.8906 L1820.0781,526.4688 C1820.0781,526.0313 1820.0625,525.9063 1819.9688,525.75 C1819.8125,525.4844 1819.5313,525.3438 1819.2344,525.3438 C1818.9375,525.3438 1818.7344,525.4375 1818.5156,525.75 L1818.3438,525.6719 Z " fill="#000000"/><text fill="#000000" font-family="sans-serif" font-size="14" lengthAdjust="spacing" textLength="44" x="1830" y="534.8467">Player</text><line style="stroke:#181818;stroke-width:0.5;" x1="1802" x2="1876" y1="546" y2="546"/><line style="stroke:#181818;stroke-width:0.5;" x1="1802" x2="1876" y1="554" y2="554"/></g><!--class PlayerControlSystem--><g id="elem_PlayerControlSystem"><rect codeLine="147" fill="#F1F1F1" height="129.4844" id="PlayerControlSystem" rx="2.5" ry="2.5" style="stroke:#181818;stroke-width:0.5;" width="184" x="1419" y="473.5"/><ellipse cx="1434" cy="489.5" fill="#ADD1B2" rx="11" ry="11" style="stroke:#181818;stroke-width:1.0;"/><path d="M1436.3438,485.1719 C1435.4063,484.7344 1434.8125,484.5938 1433.9375,484.5938 C1431.3125,484.5938 1429.3125,486.6719 1429.3125,489.3906 L1429.3125,490.5156 C1429.3125,493.0938 1431.4219,494.9844 1434.3125,494.9844 C1435.5313,494.9844 1436.6875,494.6875 1437.4375,494.1406 C1438.0156,493.7344 1438.3438,493.2813 1438.3438,492.8906 C1438.3438,492.4375 1437.9531,492.0469 1437.4844,492.0469 C1437.2656,492.0469 1437.0625,492.125 1436.875,492.3125 C1436.4219,492.7969 1436.4219,492.7969 1436.2344,492.8906 C1435.8125,493.1563 1435.125,493.2813 1434.3594,493.2813 C1432.3125,493.2813 1431.0156,492.1875 1431.0156,490.4844 L1431.0156,489.3906 C1431.0156,487.6094 1432.2656,486.2969 1434,486.2969 C1434.5781,486.2969 1435.1875,486.4531 1435.6563,486.7031 C1436.1406,486.9844 1436.3125,487.2031 1436.4063,487.6094 C1436.4688,488.0156 1436.5,488.1406 1436.6406,488.2656 C1436.7813,488.4063 1437.0156,488.5156 1437.2344,488.5156 C1437.5,488.5156 1437.7656,488.375 1437.9375,488.1563 C1438.0469,488 1438.0781,487.8125 1438.0781,487.3906 L1438.0781,485.9688 C1438.0781,485.5313 1438.0625,485.4063 1437.9688,485.25 C1437.8125,484.9844 1437.5313,484.8438 1437.2344,484.8438 C1436.9375,484.8438 1436.7344,484.9375 1436.5156,485.25 L1436.3438,485.1719 Z " fill="#000000"/><text fill="#000000" font-family="sans-serif" font-size="14" lengthAdjust="spacing" textLength="152" x="1448" y="494.3467">PlayerControlSystem</text><line style="stroke:#181818;stroke-width:0.5;" x1="1420" x2="1602" y1="505.5" y2="505.5"/><rect fill="none" height="6" style="stroke:#C82930;stroke-width:1.0;" width="6" x="1427" y="516.1484"/><text fill="#000000" font-family="sans-serif" font-size="14" lengthAdjust="spacing" textLength="63" x="1439" y="522.4951">IWeapon</text><line style="stroke:#181818;stroke-width:0.5;" x1="1420" x2="1602" y1="529.7969" y2="529.7969"/><ellipse cx="1430" cy="543.4453" fill="#84BE84" rx="3" ry="3" style="stroke:#038048;stroke-width:1.0;"/><text fill="#000000" font-family="sans-serif" font-size="14" lengthAdjust="spacing" textLength="108" x="1439" y="546.792">placeWeapon()</text><ellipse cx="1430" cy="559.7422" fill="#84BE84" rx="3" ry="3" style="stroke:#038048;stroke-width:1.0;"/><text fill="#000000" font-family="sans-serif" font-size="14" lengthAdjust="spacing" textLength="102" x="1439" y="563.0889">takeDamage()</text><ellipse cx="1430" cy="576.0391" fill="#84BE84" rx="3" ry="3" style="stroke:#038048;stroke-width:1.0;"/><text fill="#000000" font-family="sans-serif" font-size="14" lengthAdjust="spacing" textLength="66" x="1439" y="579.3857">process()</text><ellipse cx="1430" cy="592.3359" fill="#84BE84" rx="3" ry="3" style="stroke:#038048;stroke-width:1.0;"/><text fill="#000000" font-family="sans-serif" font-size="14" lengthAdjust="spacing" textLength="50" x="1439" y="595.6826">move()</text></g><!--class PlayerPlugin--><g id="elem_PlayerPlugin"><rect codeLine="155" fill="#F1F1F1" height="113.1875" id="PlayerPlugin" rx="2.5" ry="2.5" style="stroke:#181818;stroke-width:0.5;" width="127" x="1638.5" y="481.5"/><ellipse cx="1657.1" cy="497.5" fill="#ADD1B2" rx="11" ry="11" style="stroke:#181818;stroke-width:1.0;"/><path d="M1659.4438,493.1719 C1658.5063,492.7344 1657.9125,492.5938 1657.0375,492.5938 C1654.4125,492.5938 1652.4125,494.6719 1652.4125,497.3906 L1652.4125,498.5156 C1652.4125,501.0938 1654.5219,502.9844 1657.4125,502.9844 C1658.6313,502.9844 1659.7875,502.6875 1660.5375,502.1406 C1661.1156,501.7344 1661.4438,501.2813 1661.4438,500.8906 C1661.4438,500.4375 1661.0531,500.0469 1660.5844,500.0469 C1660.3656,500.0469 1660.1625,500.125 1659.975,500.3125 C1659.5219,500.7969 1659.5219,500.7969 1659.3344,500.8906 C1658.9125,501.1563 1658.225,501.2813 1657.4594,501.2813 C1655.4125,501.2813 1654.1156,500.1875 1654.1156,498.4844 L1654.1156,497.3906 C1654.1156,495.6094 1655.3656,494.2969 1657.1,494.2969 C1657.6781,494.2969 1658.2875,494.4531 1658.7563,494.7031 C1659.2406,494.9844 1659.4125,495.2031 1659.5063,495.6094 C1659.5688,496.0156 1659.6,496.1406 1659.7406,496.2656 C1659.8813,496.4063 1660.1156,496.5156 1660.3344,496.5156 C1660.6,496.5156 1660.8656,496.375 1661.0375,496.1563 C1661.1469,496 1661.1781,495.8125 1661.1781,495.3906 L1661.1781,493.9688 C1661.1781,493.5313 1661.1625,493.4063 1661.0688,493.25 C1660.9125,492.9844 1660.6313,492.8438 1660.3344,492.8438 C1660.0375,492.8438 1659.8344,492.9375 1659.6156,493.25 L1659.4438,493.1719 Z " fill="#000000"/><text fill="#000000" font-family="sans-serif" font-size="14" lengthAdjust="spacing" textLength="87" x="1671.9" y="502.3467">PlayerPlugin</text><line style="stroke:#181818;stroke-width:0.5;" x1="1639.5" x2="1764.5" y1="513.5" y2="513.5"/><rect fill="none" height="6" style="stroke:#C82930;stroke-width:1.0;" width="6" x="1646.5" y="524.1484"/><text fill="#000000" font-family="sans-serif" font-size="14" lengthAdjust="spacing" textLength="44" x="1658.5" y="530.4951">Entity</text><line style="stroke:#181818;stroke-width:0.5;" x1="1639.5" x2="1764.5" y1="537.7969" y2="537.7969"/><ellipse cx="1649.5" cy="551.4453" fill="#84BE84" rx="3" ry="3" style="stroke:#038048;stroke-width:1.0;"/><text fill="#000000" font-family="sans-serif" font-size="14" lengthAdjust="spacing" textLength="101" x="1658.5" y="554.792">createPlayer()</text><ellipse cx="1649.5" cy="567.7422" fill="#84BE84" rx="3" ry="3" style="stroke:#038048;stroke-width:1.0;"/><text fill="#000000" font-family="sans-serif" font-size="14" lengthAdjust="spacing" textLength="45" x="1658.5" y="571.0889">start()</text><ellipse cx="1649.5" cy="584.0391" fill="#84BE84" rx="3" ry="3" style="stroke:#038048;stroke-width:1.0;"/><text fill="#000000" font-family="sans-serif" font-size="14" lengthAdjust="spacing" textLength="43" x="1658.5" y="587.3857">stop()</text></g><!--reverse link IWeapon to Bomb--><g id="link_IWeapon_Bomb"><path d="M1753.0115,257.1129 C1772.5415,291.0829 1796.64,322.585 1840,346 C1842.07,347.117 2174.97,377.82 2177,379 C2210.88,398.663 2237.12,433.151 2255.65,464.898 " fill="none" id="IWeapon-backto-Bomb" style="stroke:#181818;stroke-width:1.0;stroke-dasharray:7.0,7.0;"/><polygon fill="none" points="1744.04,241.508,1747.8099,260.1034,1758.2132,254.1223,1744.04,241.508" style="stroke:#181818;stroke-width:1.0;"/></g><!--link Bomb to Entity--><g id="link_Bomb_Entity"><path codeLine="88" d="M2250.53,464.787 C2231.67,434.931 2206.61,401.994 2177,379 C2144.66,353.89 2124.58,369.425 2091,346 C2063.08,326.517 2048.7484,313.4493 2027.8984,288.1153 " fill="none" id="Bomb-to-Entity" style="stroke:#181818;stroke-width:1.0;"/><polygon fill="none" points="2016.46,274.217,2023.2656,291.9281,2032.5312,284.3025,2016.46,274.217" style="stroke:#181818;stroke-width:1.0;"/><text fill="#000000" font-family="sans-serif" font-size="13" lengthAdjust="spacing" textLength="47" x="2165" y="367.0669">inherits</text></g><!--reverse link IEntityProcessingService to BombExplosionSystem--><g id="link_IEntityProcessingService_BombExplosionSystem"><path d="M1537.9667,248.6176 C1558.2767,281.8006 1585.44,317.892 1631,346 C1672.56,371.642 1689.65,364.159 1738,371 C1772.15,375.832 1861.34,365.326 1893,379 C1939.79,399.205 1981.18,438.935 2010.8,473.499 " fill="none" id="IEntityProcessingService-backto-BombExplosionSystem" style="stroke:#181818;stroke-width:1.0;stroke-dasharray:7.0,7.0;"/><polygon fill="none" points="1528.57,233.265,1532.8492,251.7498,1543.0842,245.4853,1528.57,233.265" style="stroke:#181818;stroke-width:1.0;"/></g><!--reverse link IActor to EnemyControlSystem--><g id="link_IActor_EnemyControlSystem"><path codeLine="136" d="M767.8112,266.8824 C756.6342,299.7274 742.474,324.152 709,346 C628.931,398.26 365.393,335.986 280,379 C238.658,399.825 204.514,439.098 180.652,473.278 " fill="none" id="IActor-backto-EnemyControlSystem" style="stroke:#181818;stroke-width:1.0;stroke-dasharray:7.0,7.0;"/><polygon fill="none" points="773.61,249.842,762.1311,264.9495,773.4914,268.8153,773.61,249.842" style="stroke:#181818;stroke-width:1.0;"/></g><!--reverse link IDamageable to EnemyControlSystem--><g id="link_IDamageable_EnemyControlSystem"><path codeLine="137" d="M928.4343,258.7956 C916.9713,292.6766 901.042,322.465 864,346 C800.242,386.509 600.431,366.989 525,371 C497.802,372.446 304.589,367.287 280,379 C237.881,399.064 203.527,438.794 179.756,473.393 " fill="none" id="IDamageable-backto-EnemyControlSystem" style="stroke:#181818;stroke-width:1.0;stroke-dasharray:7.0,7.0;"/><polygon fill="none" points="934.203,241.745,922.7507,256.8726,934.1178,260.7185,934.203,241.745" style="stroke:#181818;stroke-width:1.0;"/></g><!--reverse link Entity to Enemy--><g id="link_Entity_Enemy"><path codeLine="138" d="M1898.3019,287.3176 C1872.9319,315.0986 1852.44,330.565 1816,346 C1738.61,378.783 1144.02,368.89 1060,371 C1047.06,371.325 604.551,371.498 594,379 C550.181,410.155 539.389,478.148 536.785,513.929 " fill="none" id="Entity-backto-Enemy" style="stroke:#181818;stroke-width:1.0;"/><polygon fill="none" points="1910.44,274.026,1893.8714,283.2716,1902.7325,291.3636,1910.44,274.026" style="stroke:#181818;stroke-width:1.0;"/></g><!--reverse link IEntityProcessingService to EnemyControlSystem--><g id="link_IEntityProcessingService_EnemyControlSystem"><path codeLine="139" d="M1486.6907,248.8531 C1467.4607,283.4791 1439.93,321.977 1391,346 C1323.13,379.322 786.578,368.909 711,371 C687.061,371.662 301.693,368.853 280,379 C237.741,398.767 203.388,438.499 179.651,473.172 " fill="none" id="IEntityProcessingService-backto-EnemyControlSystem" style="stroke:#181818;stroke-width:1.0;stroke-dasharray:7.0,7.0;"/><polygon fill="none" points="1495.43,233.117,1481.4454,245.94,1491.9361,251.7662,1495.43,233.117" style="stroke:#181818;stroke-width:1.0;"/></g><!--reverse link IGamePluginService to EnemyPlugin--><g id="link_IGamePluginService_EnemyPlugin"><path codeLine="140" d="M1104.4115,257.3573 C1086.6315,290.1553 1065.62,319.706 1027,346 C990.556,370.813 974.681,365.013 931,371 C906.063,374.418 499.914,366.617 478,379 C439.109,400.977 413.379,445.173 397.922,481.247 " fill="none" id="IGamePluginService-backto-EnemyPlugin" style="stroke:#181818;stroke-width:1.0;stroke-dasharray:7.0,7.0;"/><polygon fill="none" points="1112.99,241.533,1099.1367,254.4979,1109.6863,260.2168,1112.99,241.533" style="stroke:#181818;stroke-width:1.0;"/></g><!--reverse link IActor to PlayerControlSystem--><g id="link_IActor_PlayerControlSystem"><path codeLine="162" d="M805.5531,266.7717 C817.2301,299.1707 831.398,323.163 864,346 C925.829,389.31 956.792,364.498 1032,371 C1049.88,372.546 1338.53,371.874 1355,379 C1400.46,398.666 1439.59,438.398 1467.29,473.097 " fill="none" id="IActor-backto-PlayerControlSystem" style="stroke:#181818;stroke-width:1.0;stroke-dasharray:7.0,7.0;"/><polygon fill="none" points="799.45,249.838,799.9085,268.8061,811.1977,264.7374,799.45,249.838" style="stroke:#181818;stroke-width:1.0;"/></g><!--reverse link IDamageable to PlayerControlSystem--><g id="link_IDamageable_PlayerControlSystem"><path codeLine="163" d="M963.4228,258.5211 C975.6838,291.6191 991.66,320.489 1027,346 C1072.94,379.162 1095.74,364.308 1152,371 C1174.42,373.666 1334.35,369.887 1355,379 C1400.32,398.998 1439.45,438.729 1467.18,473.344 " fill="none" id="IDamageable-backto-PlayerControlSystem" style="stroke:#181818;stroke-width:1.0;stroke-dasharray:7.0,7.0;"/><polygon fill="none" points="957.17,241.642,957.7964,260.6053,969.0491,256.4368,957.17,241.642" style="stroke:#181818;stroke-width:1.0;"/></g><!--reverse link Entity to Player--><g id="link_Entity_Player"><path codeLine="164" d="M1931.482,291.1253 C1902.972,366.9093 1866.16,464.788 1847.78,513.644 " fill="none" id="Entity-backto-Player" style="stroke:#181818;stroke-width:1.0;"/><polygon fill="none" points="1937.82,274.278,1925.8663,289.0126,1937.0978,293.2379,1937.82,274.278" style="stroke:#181818;stroke-width:1.0;"/></g><!--reverse link IEntityProcessingService to PlayerControlSystem--><g id="link_IEntityProcessingService_PlayerControlSystem"><path codeLine="165" d="M1511,251.215 C1511,305.791 1511,401.566 1511,473.336 " fill="none" id="IEntityProcessingService-backto-PlayerControlSystem" style="stroke:#181818;stroke-width:1.0;stroke-dasharray:7.0,7.0;"/><polygon fill="none" points="1511,233.215,1505,251.215,1517,251.215,1511,233.215" style="stroke:#181818;stroke-width:1.0;"/></g><!--reverse link IGamePluginService to PlayerPlugin--><g id="link_IGamePluginService_PlayerPlugin"><path codeLine="166" d="M1157.5159,257.6154 C1174.7459,291.6194 1196.44,322.692 1238,346 C1312.51,387.785 1550.09,331.365 1621,379 C1655.93,402.462 1676.64,445.825 1688.36,481.195 " fill="none" id="IGamePluginService-backto-PlayerPlugin" style="stroke:#181818;stroke-width:1.0;stroke-dasharray:7.0,7.0;"/><polygon fill="none" points="1149.38,241.559,1152.1637,260.3273,1162.868,254.9034,1149.38,241.559" style="stroke:#181818;stroke-width:1.0;"/></g><!--SRC=[fLRRJjj047sEly9l0KNs1rIe5GJQ8hN24aYqGdtOh8UmOksrx8KsAldtpcPzsIiaD2zHPcRdpENCPAYe6b53BTEbg2fHft-J53yDeOza3PDm9pKr7RJFZ4BNFnW-h9RGtXCAwUKfbQ9rrEhJDG2b9wt4CnmTU-A6ewzR81YaezqcCM1j7a1UWpmd5KPV23Jl0d3TgnPnoANWd9LanI4CE-d3e55z75B76OVyokHhQSRKSS0lf8A2FwrPVQrx7-gj9AqC0KhHx0rqKKicDqKha5uTgzTnk4RRxEsv49qym3jQ5n640DOm6IMHnF56EUcwz5Qql0pWW8g8GUVF16ay6IbBdK6WoYseAOggaHH1dLCl7Qos34HBXMXBLXCP2BXaBL39H9s4Xs1y6Pk2oS202MPoFa15fdXKZp75MzWN8PdFwBWE2oIoMcxpsMmYKCyTL6dDR28W_jecS_Mbw_UDtSFEa5KDXmfTTjvpwy5tyOniFEW9qfcfpFPxj4ssoPJVcQXMzgvNakjD9w4okgw1bCe4q7yBUVyr_1Na_UQrEPEbabLmTL-eJQwU1xGtZFEBFmt7V90xjhuqzh6ZMc5myhG5OiaNglzdWygXnoAbXDCR5zEmceYnophBNZuEm_01Tya3j0m32HHeTDONSOzwxRUBilItsXoER8th-1nNZPDU899W2PuuZbQyIlvc7SO41sLYqKKDrKP7EmbFBxLaNf7D2b9IJolOALj1vCDdLkEShvs5EKIeB6u4ScS3hHLCe06AOUWfZRYwQf1gX8yyF3hsaqlC1OYfxVwNLIMNefQjuBgW4y2F9Mwf8TDFe_XdM4mVW3wEBljqV50Z0I_FFYeZ6CCw6swVkr_wS5BNWPPCexE8t5IBL997q5U59VQfi72ljN2O-bYmuki7gTdrK_yml59a8hRSRVR2EoiMxa5X112RDNsEdhpakOukzqlvfW_ZvdgF8tKPv7q9Jbwop7p_9dPiL_nVHlvHv_hJMXpxcJ7tkaTzQ_jPDaKMgRKcHDgHi4cCcG5Mkeoqs1W0jcWuK329CivccyMqtlaU3DCUyq3coI7yEiYDnoxhTV9kRhqpbmYpB6y3j_u1]--></g></svg>