<?xml version="1.0" encoding="us-ascii" standalone="no"?><svg xmlns="http://www.w3.org/2000/svg" xmlns:xlink="http://www.w3.org/1999/xlink" contentStyleType="text/css" height="677px" preserveAspectRatio="none" style="width:4542px;height:677px;background:#FFFFFF;" version="1.1" viewBox="0 0 4542 677" width="4542px" zoomAndPan="magnify"><defs/><g><!--cluster Common--><g id="cluster_Common"><rect fill="none" height="611" rx="2.5" ry="2.5" style="stroke:#181818;stroke-width:1.0;" width="2879" x="7" y="43.061"/><rect fill="none" height="10" style="stroke:#181818;stroke-width:1.0;" width="15" x="2866" y="48.061"/><rect fill="none" height="2" style="stroke:#181818;stroke-width:1.0;" width="4" x="2864" y="50.061"/><rect fill="none" height="2" style="stroke:#181818;stroke-width:1.0;" width="4" x="2864" y="54.061"/><text fill="#000000" font-family="sans-serif" font-size="14" font-weight="bold" lengthAdjust="spacing" textLength="70" x="1411.5" y="69.0561">Common</text></g><!--cluster Common--><g id="cluster_Common"><path d="M481.5,86.061 L552.5,86.061 A3.75,3.75 0 0 1 555,88.561 L562,108.3579 L2859.5,108.3579 A2.5,2.5 0 0 1 2862,110.8579 L2862,627.561 A2.5,2.5 0 0 1 2859.5,630.061 L481.5,630.061 A2.5,2.5 0 0 1 479,627.561 L479,88.561 A2.5,2.5 0 0 1 481.5,86.061 " fill="none" style="stroke:#000000;stroke-width:1.5;"/><line style="stroke:#000000;stroke-width:1.5;" x1="479" x2="562" y1="108.3579" y2="108.3579"/><text fill="#000000" font-family="sans-serif" font-size="14" font-weight="bold" lengthAdjust="spacing" textLength="70" x="483" y="101.0561">Common</text></g><!--cluster services--><g id="cluster_services"><path d="M505.5,169.561 L572.5,169.561 A3.75,3.75 0 0 1 575,172.061 L582,191.8579 L1994.5,191.8579 A2.5,2.5 0 0 1 1997,194.3579 L1997,603.561 A2.5,2.5 0 0 1 1994.5,606.061 L505.5,606.061 A2.5,2.5 0 0 1 503,603.561 L503,172.061 A2.5,2.5 0 0 1 505.5,169.561 " fill="none" style="stroke:#000000;stroke-width:1.5;"/><line style="stroke:#000000;stroke-width:1.5;" x1="503" x2="582" y1="191.8579" y2="191.8579"/><text fill="#000000" font-family="sans-serif" font-size="14" font-weight="bold" lengthAdjust="spacing" textLength="66" x="507" y="184.5561">services</text></g><!--cluster data--><g id="cluster_data"><path d="M2023.5,129.061 L2062.5,129.061 A3.75,3.75 0 0 1 2065,131.561 L2072,151.3579 L2835.5,151.3579 A2.5,2.5 0 0 1 2838,153.8579 L2838,355.561 A2.5,2.5 0 0 1 2835.5,358.061 L2023.5,358.061 A2.5,2.5 0 0 1 2021,355.561 L2021,131.561 A2.5,2.5 0 0 1 2023.5,129.061 " fill="none" style="stroke:#000000;stroke-width:1.5;"/><line style="stroke:#000000;stroke-width:1.5;" x1="2021" x2="2072" y1="151.3579" y2="151.3579"/><text fill="#000000" font-family="sans-serif" font-size="14" font-weight="bold" lengthAdjust="spacing" textLength="38" x="2025" y="144.0561">data</text></g><!--cluster Weapon--><g id="cluster_Weapon"><rect fill="none" height="264" rx="2.5" ry="2.5" style="stroke:#181818;stroke-width:1.0;" width="753" x="3515" y="407.061"/><rect fill="none" height="10" style="stroke:#181818;stroke-width:1.0;" width="15" x="4248" y="412.061"/><rect fill="none" height="2" style="stroke:#181818;stroke-width:1.0;" width="4" x="4246" y="414.061"/><rect fill="none" height="2" style="stroke:#181818;stroke-width:1.0;" width="4" x="4246" y="418.061"/><text fill="#000000" font-family="sans-serif" font-size="14" font-weight="bold" lengthAdjust="spacing" textLength="64" x="3859.5" y="433.0561">Weapon</text></g><!--cluster WeaponSystem--><g id="cluster_WeaponSystem"><path d="M3541.5,450.061 L3666.5,450.061 A3.75,3.75 0 0 1 3669,452.561 L3676,472.3579 L4241.5,472.3579 A2.5,2.5 0 0 1 4244,474.8579 L4244,644.561 A2.5,2.5 0 0 1 4241.5,647.061 L3541.5,647.061 A2.5,2.5 0 0 1 3539,644.561 L3539,452.561 A2.5,2.5 0 0 1 3541.5,450.061 " fill="none" style="stroke:#000000;stroke-width:1.5;"/><line style="stroke:#000000;stroke-width:1.5;" x1="3539" x2="3676" y1="472.3579" y2="472.3579"/><text fill="#000000" font-family="sans-serif" font-size="14" font-weight="bold" lengthAdjust="spacing" textLength="124" x="3543" y="465.0561">WeaponSystem</text></g><!--cluster Enemy--><g id="cluster_Enemy"><rect fill="none" height="182" rx="2.5" ry="2.5" style="stroke:#181818;stroke-width:1.0;" width="1162" x="3142" y="143.061"/><rect fill="none" height="10" style="stroke:#181818;stroke-width:1.0;" width="15" x="4284" y="148.061"/><rect fill="none" height="2" style="stroke:#181818;stroke-width:1.0;" width="4" x="4282" y="150.061"/><rect fill="none" height="2" style="stroke:#181818;stroke-width:1.0;" width="4" x="4282" y="154.061"/><text fill="#000000" font-family="sans-serif" font-size="14" font-weight="bold" lengthAdjust="spacing" textLength="52" x="3697" y="169.0561">Enemy</text></g><!--cluster AI--><g id="cluster_AI"><rect fill="none" height="115" rx="2.5" ry="2.5" style="stroke:#181818;stroke-width:1.0;" width="630" x="3650" y="186.061"/><rect fill="none" height="10" style="stroke:#181818;stroke-width:1.0;" width="15" x="4260" y="191.061"/><rect fill="none" height="2" style="stroke:#181818;stroke-width:1.0;" width="4" x="4258" y="193.061"/><rect fill="none" height="2" style="stroke:#181818;stroke-width:1.0;" width="4" x="4258" y="197.061"/><text fill="#000000" font-family="sans-serif" font-size="14" font-weight="bold" lengthAdjust="spacing" textLength="16" x="3957" y="212.0561">AI</text></g><!--cluster Player--><g id="cluster_Player"><rect fill="none" height="164" rx="2.5" ry="2.5" style="stroke:#181818;stroke-width:1.0;" width="581" x="2910" y="466.561"/><rect fill="none" height="10" style="stroke:#181818;stroke-width:1.0;" width="15" x="3471" y="471.561"/><rect fill="none" height="2" style="stroke:#181818;stroke-width:1.0;" width="4" x="3469" y="473.561"/><rect fill="none" height="2" style="stroke:#181818;stroke-width:1.0;" width="4" x="3469" y="477.561"/><text fill="#000000" font-family="sans-serif" font-size="14" font-weight="bold" lengthAdjust="spacing" textLength="50" x="3175.5" y="492.5561">Player</text></g><!--cluster MapGenerator--><g id="cluster_MapGenerator"><rect fill="none" height="182" rx="2.5" ry="2.5" style="stroke:#181818;stroke-width:1.0;" width="244" x="4292" y="448.061"/><rect fill="none" height="10" style="stroke:#181818;stroke-width:1.0;" width="15" x="4516" y="453.061"/><rect fill="none" height="2" style="stroke:#181818;stroke-width:1.0;" width="4" x="4514" y="455.061"/><rect fill="none" height="2" style="stroke:#181818;stroke-width:1.0;" width="4" x="4514" y="459.061"/><text fill="#000000" font-family="sans-serif" font-size="14" font-weight="bold" lengthAdjust="spacing" textLength="116" x="4356" y="474.0561">MapGenerator</text></g><!--cluster SomeMapGenerator--><g id="cluster_SomeMapGenerator"><path d="M4318.5,491.061 L4479.5,491.061 A3.75,3.75 0 0 1 4482,493.561 L4489,513.3579 L4509.5,513.3579 A2.5,2.5 0 0 1 4512,515.8579 L4512,603.561 A2.5,2.5 0 0 1 4509.5,606.061 L4318.5,606.061 A2.5,2.5 0 0 1 4316,603.561 L4316,493.561 A2.5,2.5 0 0 1 4318.5,491.061 " fill="none" style="stroke:#000000;stroke-width:1.5;"/><line style="stroke:#000000;stroke-width:1.5;" x1="4316" x2="4489" y1="513.3579" y2="513.3579"/><text fill="#000000" font-family="sans-serif" font-size="14" font-weight="bold" lengthAdjust="spacing" textLength="160" x="4320" y="506.0561">SomeMapGenerator</text></g><g id="elem_GMN18"><path d="M23,240.561 L23,265.6938 L463,265.6938 L463,250.561 L453,240.561 L23,240.561 " fill="#FEFFDD" style="stroke:#181818;stroke-width:0.5;"/><path d="M453,240.561 L453,250.561 L463,250.561 L453,240.561 " fill="#FEFFDD" style="stroke:#181818;stroke-width:1.0;"/><text fill="#000000" font-family="sans-serif" font-size="13" lengthAdjust="spacing" textLength="419" x="29" y="257.6279">Grid is a map of coordinates and booleans to represent obstacles</text></g><!--class IActor--><g id="elem_IActor"><rect codeLine="5" fill="#F1F1F1" height="96.8906" id="IActor" rx="2.5" ry="2.5" style="stroke:#181818;stroke-width:0.5;" width="183" x="802.5" y="204.561"/><ellipse cx="868.75" cy="220.561" fill="#B4A7E5" rx="11" ry="11" style="stroke:#181818;stroke-width:1.0;"/><path d="M869.7031,217.3423 L871.4219,217.3423 C871.8125,217.3423 872,217.311 872.125,217.2329 C872.3906,217.0766 872.5313,216.7954 872.5313,216.4985 C872.5313,216.2329 872.4219,215.9673 872.1875,215.7954 C872.0156,215.686 871.875,215.6548 871.4219,215.6548 L866.2813,215.6548 C865.8438,215.6548 865.7188,215.6704 865.5625,215.7641 C865.3125,215.9204 865.1563,216.2173 865.1563,216.4985 C865.1563,216.7798 865.2969,217.0298 865.5156,217.2016 C865.6719,217.311 865.8594,217.3423 866.2813,217.3423 L868,217.3423 L868,223.8579 L866.2813,223.8579 C865.8438,223.8579 865.7188,223.8735 865.5625,223.9829 C865.3125,224.1391 865.1563,224.4204 865.1563,224.7173 C865.1563,224.9673 865.2969,225.2329 865.5156,225.3891 C865.6719,225.5141 865.875,225.561 866.2813,225.561 L871.4219,225.561 C872.1719,225.561 872.5313,225.2798 872.5313,224.7173 C872.5313,224.436 872.4219,224.186 872.1875,224.0141 C872.0156,223.8891 871.875,223.8579 871.4219,223.8579 L869.7031,223.8579 L869.7031,217.3423 Z " fill="#000000"/><text fill="#000000" font-family="sans-serif" font-size="14" font-style="italic" lengthAdjust="spacing" textLength="42" x="889.25" y="225.4077">IActor</text><line style="stroke:#181818;stroke-width:0.5;" x1="803.5" x2="984.5" y1="236.561" y2="236.561"/><text fill="#000000" font-family="sans-serif" font-size="14" lengthAdjust="spacing" textLength="44" x="808.5" y="253.5561">speed</text><line style="stroke:#181818;stroke-width:0.5;" x1="803.5" x2="984.5" y1="260.8579" y2="260.8579"/><text fill="#000000" font-family="sans-serif" font-size="14" lengthAdjust="spacing" textLength="50" x="808.5" y="277.853">move()</text><text fill="#000000" font-family="sans-serif" font-size="14" lengthAdjust="spacing" textLength="171" x="808.5" y="294.1499">placeWeapon(IWeapon)</text></g><!--class IWeapon--><g id="elem_IWeapon"><rect codeLine="11" fill="#F1F1F1" height="80.5938" id="IWeapon" rx="2.5" ry="2.5" style="stroke:#181818;stroke-width:0.5;" width="151" x="1634.5" y="212.561"/><ellipse cx="1674.7" cy="228.561" fill="#B4A7E5" rx="11" ry="11" style="stroke:#181818;stroke-width:1.0;"/><path d="M1675.6531,225.3423 L1677.3719,225.3423 C1677.7625,225.3423 1677.95,225.311 1678.075,225.2329 C1678.3406,225.0766 1678.4813,224.7954 1678.4813,224.4985 C1678.4813,224.2329 1678.3719,223.9673 1678.1375,223.7954 C1677.9656,223.686 1677.825,223.6548 1677.3719,223.6548 L1672.2313,223.6548 C1671.7938,223.6548 1671.6688,223.6704 1671.5125,223.7641 C1671.2625,223.9204 1671.1063,224.2173 1671.1063,224.4985 C1671.1063,224.7798 1671.2469,225.0298 1671.4656,225.2016 C1671.6219,225.311 1671.8094,225.3423 1672.2313,225.3423 L1673.95,225.3423 L1673.95,231.8579 L1672.2313,231.8579 C1671.7938,231.8579 1671.6688,231.8735 1671.5125,231.9829 C1671.2625,232.1391 1671.1063,232.4204 1671.1063,232.7173 C1671.1063,232.9673 1671.2469,233.2329 1671.4656,233.3891 C1671.6219,233.5141 1671.825,233.561 1672.2313,233.561 L1677.3719,233.561 C1678.1219,233.561 1678.4813,233.2798 1678.4813,232.7173 C1678.4813,232.436 1678.3719,232.186 1678.1375,232.0141 C1677.9656,231.8891 1677.825,231.8579 1677.3719,231.8579 L1675.6531,231.8579 L1675.6531,225.3423 Z " fill="#000000"/><text fill="#000000" font-family="sans-serif" font-size="14" font-style="italic" lengthAdjust="spacing" textLength="63" x="1694.3" y="233.4077">IWeapon</text><line style="stroke:#181818;stroke-width:0.5;" x1="1635.5" x2="1784.5" y1="244.561" y2="244.561"/><line style="stroke:#181818;stroke-width:0.5;" x1="1635.5" x2="1784.5" y1="252.561" y2="252.561"/><text fill="#000000" font-family="sans-serif" font-size="14" lengthAdjust="spacing" textLength="139" x="1640.5" y="269.5561">getDamagePoints()</text><text fill="#000000" font-family="sans-serif" font-size="14" lengthAdjust="spacing" textLength="137" x="1640.5" y="285.853">setDamagePoints()</text></g><!--class ICollidable--><g id="elem_ICollidable"><rect codeLine="16" fill="#F1F1F1" height="80.5938" id="ICollidable" rx="2.5" ry="2.5" style="stroke:#181818;stroke-width:0.5;" width="118" x="519" y="212.561"/><ellipse cx="538.95" cy="228.561" fill="#B4A7E5" rx="11" ry="11" style="stroke:#181818;stroke-width:1.0;"/><path d="M539.9031,225.3423 L541.6219,225.3423 C542.0125,225.3423 542.2,225.311 542.325,225.2329 C542.5906,225.0766 542.7313,224.7954 542.7313,224.4985 C542.7313,224.2329 542.6219,223.9673 542.3875,223.7954 C542.2156,223.686 542.075,223.6548 541.6219,223.6548 L536.4813,223.6548 C536.0438,223.6548 535.9188,223.6704 535.7625,223.7641 C535.5125,223.9204 535.3563,224.2173 535.3563,224.4985 C535.3563,224.7798 535.4969,225.0298 535.7156,225.2016 C535.8719,225.311 536.0594,225.3423 536.4813,225.3423 L538.2,225.3423 L538.2,231.8579 L536.4813,231.8579 C536.0438,231.8579 535.9188,231.8735 535.7625,231.9829 C535.5125,232.1391 535.3563,232.4204 535.3563,232.7173 C535.3563,232.9673 535.4969,233.2329 535.7156,233.3891 C535.8719,233.5141 536.075,233.561 536.4813,233.561 L541.6219,233.561 C542.3719,233.561 542.7313,233.2798 542.7313,232.7173 C542.7313,232.436 542.6219,232.186 542.3875,232.0141 C542.2156,231.8891 542.075,231.8579 541.6219,231.8579 L539.9031,231.8579 L539.9031,225.3423 Z " fill="#000000"/><text fill="#000000" font-family="sans-serif" font-size="14" font-style="italic" lengthAdjust="spacing" textLength="75" x="554.05" y="233.4077">ICollidable</text><line style="stroke:#181818;stroke-width:0.5;" x1="520" x2="636" y1="244.561" y2="244.561"/><line style="stroke:#181818;stroke-width:0.5;" x1="520" x2="636" y1="252.561" y2="252.561"/><text fill="#000000" font-family="sans-serif" font-size="14" lengthAdjust="spacing" textLength="106" x="525" y="269.5561">getCollidable()</text><text fill="#000000" font-family="sans-serif" font-size="14" lengthAdjust="spacing" textLength="104" x="525" y="285.853">setCollidable()</text></g><!--class IDamageable--><g id="elem_IDamageable"><rect codeLine="21" fill="#F1F1F1" height="80.5938" id="IDamageable" rx="2.5" ry="2.5" style="stroke:#181818;stroke-width:0.5;" width="128" x="1021" y="212.561"/><ellipse cx="1036" cy="228.561" fill="#B4A7E5" rx="11" ry="11" style="stroke:#181818;stroke-width:1.0;"/><path d="M1036.9531,225.3423 L1038.6719,225.3423 C1039.0625,225.3423 1039.25,225.311 1039.375,225.2329 C1039.6406,225.0766 1039.7813,224.7954 1039.7813,224.4985 C1039.7813,224.2329 1039.6719,223.9673 1039.4375,223.7954 C1039.2656,223.686 1039.125,223.6548 1038.6719,223.6548 L1033.5313,223.6548 C1033.0938,223.6548 1032.9688,223.6704 1032.8125,223.7641 C1032.5625,223.9204 1032.4063,224.2173 1032.4063,224.4985 C1032.4063,224.7798 1032.5469,225.0298 1032.7656,225.2016 C1032.9219,225.311 1033.1094,225.3423 1033.5313,225.3423 L1035.25,225.3423 L1035.25,231.8579 L1033.5313,231.8579 C1033.0938,231.8579 1032.9688,231.8735 1032.8125,231.9829 C1032.5625,232.1391 1032.4063,232.4204 1032.4063,232.7173 C1032.4063,232.9673 1032.5469,233.2329 1032.7656,233.3891 C1032.9219,233.5141 1033.125,233.561 1033.5313,233.561 L1038.6719,233.561 C1039.4219,233.561 1039.7813,233.2798 1039.7813,232.7173 C1039.7813,232.436 1039.6719,232.186 1039.4375,232.0141 C1039.2656,231.8891 1039.125,231.8579 1038.6719,231.8579 L1036.9531,231.8579 L1036.9531,225.3423 Z " fill="#000000"/><text fill="#000000" font-family="sans-serif" font-size="14" font-style="italic" lengthAdjust="spacing" textLength="96" x="1050" y="233.4077">IDamageable</text><line style="stroke:#181818;stroke-width:0.5;" x1="1022" x2="1148" y1="244.561" y2="244.561"/><line style="stroke:#181818;stroke-width:0.5;" x1="1022" x2="1148" y1="252.561" y2="252.561"/><text fill="#000000" font-family="sans-serif" font-size="14" lengthAdjust="spacing" textLength="101" x="1027" y="269.5561">getHitPoints()</text><text fill="#000000" font-family="sans-serif" font-size="14" lengthAdjust="spacing" textLength="99" x="1027" y="285.853">setHitPoints()</text></g><!--class IGamePluginService--><g id="elem_IGamePluginService"><rect codeLine="26" fill="#F1F1F1" height="80.5938" id="IGamePluginService" rx="2.5" ry="2.5" style="stroke:#181818;stroke-width:0.5;" width="175" x="1424.5" y="212.561"/><ellipse cx="1439.5" cy="228.561" fill="#B4A7E5" rx="11" ry="11" style="stroke:#181818;stroke-width:1.0;"/><path d="M1440.4531,225.3423 L1442.1719,225.3423 C1442.5625,225.3423 1442.75,225.311 1442.875,225.2329 C1443.1406,225.0766 1443.2813,224.7954 1443.2813,224.4985 C1443.2813,224.2329 1443.1719,223.9673 1442.9375,223.7954 C1442.7656,223.686 1442.625,223.6548 1442.1719,223.6548 L1437.0313,223.6548 C1436.5938,223.6548 1436.4688,223.6704 1436.3125,223.7641 C1436.0625,223.9204 1435.9063,224.2173 1435.9063,224.4985 C1435.9063,224.7798 1436.0469,225.0298 1436.2656,225.2016 C1436.4219,225.311 1436.6094,225.3423 1437.0313,225.3423 L1438.75,225.3423 L1438.75,231.8579 L1437.0313,231.8579 C1436.5938,231.8579 1436.4688,231.8735 1436.3125,231.9829 C1436.0625,232.1391 1435.9063,232.4204 1435.9063,232.7173 C1435.9063,232.9673 1436.0469,233.2329 1436.2656,233.3891 C1436.4219,233.5141 1436.625,233.561 1437.0313,233.561 L1442.1719,233.561 C1442.9219,233.561 1443.2813,233.2798 1443.2813,232.7173 C1443.2813,232.436 1443.1719,232.186 1442.9375,232.0141 C1442.7656,231.8891 1442.625,231.8579 1442.1719,231.8579 L1440.4531,231.8579 L1440.4531,225.3423 Z " fill="#000000"/><text fill="#000000" font-family="sans-serif" font-size="14" font-style="italic" lengthAdjust="spacing" textLength="143" x="1453.5" y="233.4077">IGamePluginService</text><line style="stroke:#181818;stroke-width:0.5;" x1="1425.5" x2="1598.5" y1="244.561" y2="244.561"/><line style="stroke:#181818;stroke-width:0.5;" x1="1425.5" x2="1598.5" y1="252.561" y2="252.561"/><text fill="#000000" font-family="sans-serif" font-size="14" lengthAdjust="spacing" textLength="45" x="1430.5" y="269.5561">start()</text><text fill="#000000" font-family="sans-serif" font-size="14" lengthAdjust="spacing" textLength="43" x="1430.5" y="285.853">stop()</text></g><!--class IMap--><g id="elem_IMap"><rect codeLine="30" fill="#F1F1F1" height="80.5938" id="IMap" rx="2.5" ry="2.5" style="stroke:#181818;stroke-width:0.5;" width="95" x="672.5" y="212.561"/><ellipse cx="700.55" cy="228.561" fill="#B4A7E5" rx="11" ry="11" style="stroke:#181818;stroke-width:1.0;"/><path d="M701.5031,225.3423 L703.2219,225.3423 C703.6125,225.3423 703.8,225.311 703.925,225.2329 C704.1906,225.0766 704.3313,224.7954 704.3313,224.4985 C704.3313,224.2329 704.2219,223.9673 703.9875,223.7954 C703.8156,223.686 703.675,223.6548 703.2219,223.6548 L698.0813,223.6548 C697.6438,223.6548 697.5188,223.6704 697.3625,223.7641 C697.1125,223.9204 696.9563,224.2173 696.9563,224.4985 C696.9563,224.7798 697.0969,225.0298 697.3156,225.2016 C697.4719,225.311 697.6594,225.3423 698.0813,225.3423 L699.8,225.3423 L699.8,231.8579 L698.0813,231.8579 C697.6438,231.8579 697.5188,231.8735 697.3625,231.9829 C697.1125,232.1391 696.9563,232.4204 696.9563,232.7173 C696.9563,232.9673 697.0969,233.2329 697.3156,233.3891 C697.4719,233.5141 697.675,233.561 698.0813,233.561 L703.2219,233.561 C703.9719,233.561 704.3313,233.2798 704.3313,232.7173 C704.3313,232.436 704.2219,232.186 703.9875,232.0141 C703.8156,231.8891 703.675,231.8579 703.2219,231.8579 L701.5031,231.8579 L701.5031,225.3423 Z " fill="#000000"/><text fill="#000000" font-family="sans-serif" font-size="14" font-style="italic" lengthAdjust="spacing" textLength="34" x="717.45" y="233.4077">IMap</text><line style="stroke:#181818;stroke-width:0.5;" x1="673.5" x2="766.5" y1="244.561" y2="244.561"/><line style="stroke:#181818;stroke-width:0.5;" x1="673.5" x2="766.5" y1="252.561" y2="252.561"/><text fill="#000000" font-family="sans-serif" font-size="14" lengthAdjust="spacing" textLength="78" x="678.5" y="269.5561">getWidth()</text><text fill="#000000" font-family="sans-serif" font-size="14" lengthAdjust="spacing" textLength="83" x="678.5" y="285.853">getHeight()</text></g><!--class IEntityProcessingService--><g id="elem_IEntityProcessingService"><rect codeLine="35" fill="#F1F1F1" height="64.2969" id="IEntityProcessingService" rx="2.5" ry="2.5" style="stroke:#181818;stroke-width:0.5;" width="205" x="1184.5" y="221.061"/><ellipse cx="1199.5" cy="237.061" fill="#B4A7E5" rx="11" ry="11" style="stroke:#181818;stroke-width:1.0;"/><path d="M1200.4531,233.8423 L1202.1719,233.8423 C1202.5625,233.8423 1202.75,233.811 1202.875,233.7329 C1203.1406,233.5766 1203.2813,233.2954 1203.2813,232.9985 C1203.2813,232.7329 1203.1719,232.4673 1202.9375,232.2954 C1202.7656,232.186 1202.625,232.1548 1202.1719,232.1548 L1197.0313,232.1548 C1196.5938,232.1548 1196.4688,232.1704 1196.3125,232.2641 C1196.0625,232.4204 1195.9063,232.7173 1195.9063,232.9985 C1195.9063,233.2798 1196.0469,233.5298 1196.2656,233.7016 C1196.4219,233.811 1196.6094,233.8423 1197.0313,233.8423 L1198.75,233.8423 L1198.75,240.3579 L1197.0313,240.3579 C1196.5938,240.3579 1196.4688,240.3735 1196.3125,240.4829 C1196.0625,240.6391 1195.9063,240.9204 1195.9063,241.2173 C1195.9063,241.4673 1196.0469,241.7329 1196.2656,241.8891 C1196.4219,242.0141 1196.625,242.061 1197.0313,242.061 L1202.1719,242.061 C1202.9219,242.061 1203.2813,241.7798 1203.2813,241.2173 C1203.2813,240.936 1203.1719,240.686 1202.9375,240.5141 C1202.7656,240.3891 1202.625,240.3579 1202.1719,240.3579 L1200.4531,240.3579 L1200.4531,233.8423 Z " fill="#000000"/><text fill="#000000" font-family="sans-serif" font-size="14" font-style="italic" lengthAdjust="spacing" textLength="173" x="1213.5" y="241.9077">IEntityProcessingService</text><line style="stroke:#181818;stroke-width:0.5;" x1="1185.5" x2="1388.5" y1="253.061" y2="253.061"/><line style="stroke:#181818;stroke-width:0.5;" x1="1185.5" x2="1388.5" y1="261.061" y2="261.061"/><text fill="#000000" font-family="sans-serif" font-size="14" lengthAdjust="spacing" textLength="66" x="1190.5" y="278.0561">process()</text></g><!--class IPostEntityProcessingService--><g id="elem_IPostEntityProcessingService"><rect codeLine="39" fill="#F1F1F1" height="64.2969" id="IPostEntityProcessingService" rx="2.5" ry="2.5" style="stroke:#181818;stroke-width:0.5;" width="234" x="519" y="526.061"/><ellipse cx="534" cy="542.061" fill="#B4A7E5" rx="11" ry="11" style="stroke:#181818;stroke-width:1.0;"/><path d="M534.9531,538.8423 L536.6719,538.8423 C537.0625,538.8423 537.25,538.811 537.375,538.7329 C537.6406,538.5766 537.7813,538.2954 537.7813,537.9985 C537.7813,537.7329 537.6719,537.4673 537.4375,537.2954 C537.2656,537.186 537.125,537.1548 536.6719,537.1548 L531.5313,537.1548 C531.0938,537.1548 530.9688,537.1704 530.8125,537.2641 C530.5625,537.4204 530.4063,537.7173 530.4063,537.9985 C530.4063,538.2798 530.5469,538.5298 530.7656,538.7016 C530.9219,538.811 531.1094,538.8423 531.5313,538.8423 L533.25,538.8423 L533.25,545.3579 L531.5313,545.3579 C531.0938,545.3579 530.9688,545.3735 530.8125,545.4829 C530.5625,545.6391 530.4063,545.9204 530.4063,546.2173 C530.4063,546.4673 530.5469,546.7329 530.7656,546.8891 C530.9219,547.0141 531.125,547.061 531.5313,547.061 L536.6719,547.061 C537.4219,547.061 537.7813,546.7798 537.7813,546.2173 C537.7813,545.936 537.6719,545.686 537.4375,545.5141 C537.2656,545.3891 537.125,545.3579 536.6719,545.3579 L534.9531,545.3579 L534.9531,538.8423 Z " fill="#000000"/><text fill="#000000" font-family="sans-serif" font-size="14" font-style="italic" lengthAdjust="spacing" textLength="202" x="548" y="546.9077">IPostEntityProcessingService</text><line style="stroke:#181818;stroke-width:0.5;" x1="520" x2="752" y1="558.061" y2="558.061"/><line style="stroke:#181818;stroke-width:0.5;" x1="520" x2="752" y1="566.061" y2="566.061"/><text fill="#000000" font-family="sans-serif" font-size="14" lengthAdjust="spacing" textLength="98" x="525" y="583.0561">postProcess()</text></g><!--class IMapGenerator--><g id="elem_IMapGenerator"><rect codeLine="43" fill="#F1F1F1" height="64.2969" id="IMapGenerator" rx="2.5" ry="2.5" style="stroke:#181818;stroke-width:0.5;" width="160" x="1821" y="221.061"/><ellipse cx="1845.45" cy="237.061" fill="#B4A7E5" rx="11" ry="11" style="stroke:#181818;stroke-width:1.0;"/><path d="M1846.4031,233.8423 L1848.1219,233.8423 C1848.5125,233.8423 1848.7,233.811 1848.825,233.7329 C1849.0906,233.5766 1849.2313,233.2954 1849.2313,232.9985 C1849.2313,232.7329 1849.1219,232.4673 1848.8875,232.2954 C1848.7156,232.186 1848.575,232.1548 1848.1219,232.1548 L1842.9813,232.1548 C1842.5438,232.1548 1842.4188,232.1704 1842.2625,232.2641 C1842.0125,232.4204 1841.8563,232.7173 1841.8563,232.9985 C1841.8563,233.2798 1841.9969,233.5298 1842.2156,233.7016 C1842.3719,233.811 1842.5594,233.8423 1842.9813,233.8423 L1844.7,233.8423 L1844.7,240.3579 L1842.9813,240.3579 C1842.5438,240.3579 1842.4188,240.3735 1842.2625,240.4829 C1842.0125,240.6391 1841.8563,240.9204 1841.8563,241.2173 C1841.8563,241.4673 1841.9969,241.7329 1842.2156,241.8891 C1842.3719,242.0141 1842.575,242.061 1842.9813,242.061 L1848.1219,242.061 C1848.8719,242.061 1849.2313,241.7798 1849.2313,241.2173 C1849.2313,240.936 1849.1219,240.686 1848.8875,240.5141 C1848.7156,240.3891 1848.575,240.3579 1848.1219,240.3579 L1846.4031,240.3579 L1846.4031,233.8423 Z " fill="#000000"/><text fill="#000000" font-family="sans-serif" font-size="14" font-style="italic" lengthAdjust="spacing" textLength="107" x="1861.55" y="241.9077">IMapGenerator</text><line style="stroke:#181818;stroke-width:0.5;" x1="1822" x2="1980" y1="253.061" y2="253.061"/><line style="stroke:#181818;stroke-width:0.5;" x1="1822" x2="1980" y1="261.061" y2="261.061"/><text fill="#000000" font-family="sans-serif" font-size="14" lengthAdjust="spacing" textLength="148" x="1827" y="278.0561">generateMap(World)</text></g><!--class World--><g id="elem_World"><rect codeLine="49" fill="#F1F1F1" height="145.7813" id="World" rx="2.5" ry="2.5" style="stroke:#181818;stroke-width:0.5;" width="121" x="2448.5" y="180.061"/><ellipse cx="2484.65" cy="196.061" fill="#ADD1B2" rx="11" ry="11" style="stroke:#181818;stroke-width:1.0;"/><path d="M2486.9938,191.7329 C2486.0563,191.2954 2485.4625,191.1548 2484.5875,191.1548 C2481.9625,191.1548 2479.9625,193.2329 2479.9625,195.9516 L2479.9625,197.0766 C2479.9625,199.6548 2482.0719,201.5454 2484.9625,201.5454 C2486.1813,201.5454 2487.3375,201.2485 2488.0875,200.7016 C2488.6656,200.2954 2488.9938,199.8423 2488.9938,199.4516 C2488.9938,198.9985 2488.6031,198.6079 2488.1344,198.6079 C2487.9156,198.6079 2487.7125,198.686 2487.525,198.8735 C2487.0719,199.3579 2487.0719,199.3579 2486.8844,199.4516 C2486.4625,199.7173 2485.775,199.8423 2485.0094,199.8423 C2482.9625,199.8423 2481.6656,198.7485 2481.6656,197.0454 L2481.6656,195.9516 C2481.6656,194.1704 2482.9156,192.8579 2484.65,192.8579 C2485.2281,192.8579 2485.8375,193.0141 2486.3063,193.2641 C2486.7906,193.5454 2486.9625,193.7641 2487.0563,194.1704 C2487.1188,194.5766 2487.15,194.7016 2487.2906,194.8266 C2487.4313,194.9673 2487.6656,195.0766 2487.8844,195.0766 C2488.15,195.0766 2488.4156,194.936 2488.5875,194.7173 C2488.6969,194.561 2488.7281,194.3735 2488.7281,193.9516 L2488.7281,192.5298 C2488.7281,192.0923 2488.7125,191.9673 2488.6188,191.811 C2488.4625,191.5454 2488.1813,191.4048 2487.8844,191.4048 C2487.5875,191.4048 2487.3844,191.4985 2487.1656,191.811 L2486.9938,191.7329 Z " fill="#000000"/><text fill="#000000" font-family="sans-serif" font-size="14" lengthAdjust="spacing" textLength="42" x="2503.35" y="200.9077">World</text><line style="stroke:#181818;stroke-width:0.5;" x1="2449.5" x2="2568.5" y1="212.061" y2="212.061"/><text fill="#000000" font-family="sans-serif" font-size="14" lengthAdjust="spacing" textLength="56" x="2454.5" y="229.0561">entities</text><text fill="#000000" font-family="sans-serif" font-size="14" lengthAdjust="spacing" textLength="32" x="2454.5" y="245.353">map</text><line style="stroke:#181818;stroke-width:0.5;" x1="2449.5" x2="2568.5" y1="252.6548" y2="252.6548"/><text fill="#000000" font-family="sans-serif" font-size="14" lengthAdjust="spacing" textLength="80" x="2454.5" y="269.6499">addEntity()</text><text fill="#000000" font-family="sans-serif" font-size="14" lengthAdjust="spacing" textLength="109" x="2454.5" y="285.9467">removeEntity()</text><text fill="#000000" font-family="sans-serif" font-size="14" lengthAdjust="spacing" textLength="79" x="2454.5" y="302.2436">getEntity()</text><text fill="#000000" font-family="sans-serif" font-size="14" lengthAdjust="spacing" textLength="65" x="2454.5" y="318.5405">getMap()</text></g><!--class Entity--><g id="elem_Entity"><rect codeLine="59" fill="#F1F1F1" height="145.7813" id="Entity" rx="2.5" ry="2.5" style="stroke:#181818;stroke-width:0.5;" width="217" x="2604.5" y="180.061"/><ellipse cx="2686.75" cy="196.061" fill="#ADD1B2" rx="11" ry="11" style="stroke:#181818;stroke-width:1.0;"/><path d="M2689.0938,191.7329 C2688.1563,191.2954 2687.5625,191.1548 2686.6875,191.1548 C2684.0625,191.1548 2682.0625,193.2329 2682.0625,195.9516 L2682.0625,197.0766 C2682.0625,199.6548 2684.1719,201.5454 2687.0625,201.5454 C2688.2813,201.5454 2689.4375,201.2485 2690.1875,200.7016 C2690.7656,200.2954 2691.0938,199.8423 2691.0938,199.4516 C2691.0938,198.9985 2690.7031,198.6079 2690.2344,198.6079 C2690.0156,198.6079 2689.8125,198.686 2689.625,198.8735 C2689.1719,199.3579 2689.1719,199.3579 2688.9844,199.4516 C2688.5625,199.7173 2687.875,199.8423 2687.1094,199.8423 C2685.0625,199.8423 2683.7656,198.7485 2683.7656,197.0454 L2683.7656,195.9516 C2683.7656,194.1704 2685.0156,192.8579 2686.75,192.8579 C2687.3281,192.8579 2687.9375,193.0141 2688.4063,193.2641 C2688.8906,193.5454 2689.0625,193.7641 2689.1563,194.1704 C2689.2188,194.5766 2689.25,194.7016 2689.3906,194.8266 C2689.5313,194.9673 2689.7656,195.0766 2689.9844,195.0766 C2690.25,195.0766 2690.5156,194.936 2690.6875,194.7173 C2690.7969,194.561 2690.8281,194.3735 2690.8281,193.9516 L2690.8281,192.5298 C2690.8281,192.0923 2690.8125,191.9673 2690.7188,191.811 C2690.5625,191.5454 2690.2813,191.4048 2689.9844,191.4048 C2689.6875,191.4048 2689.4844,191.4985 2689.2656,191.811 L2689.0938,191.7329 Z " fill="#000000"/><text fill="#000000" font-family="sans-serif" font-size="14" lengthAdjust="spacing" textLength="44" x="2707.25" y="200.9077">Entity</text><line style="stroke:#181818;stroke-width:0.5;" x1="2605.5" x2="2820.5" y1="212.061" y2="212.061"/><text fill="#000000" font-family="sans-serif" font-size="14" lengthAdjust="spacing" textLength="85" x="2610.5" y="229.0561">coordinates</text><text fill="#000000" font-family="sans-serif" font-size="14" lengthAdjust="spacing" textLength="65" x="2610.5" y="245.353">direction</text><line style="stroke:#181818;stroke-width:0.5;" x1="2605.5" x2="2820.5" y1="252.6548" y2="252.6548"/><text fill="#000000" font-family="sans-serif" font-size="14" lengthAdjust="spacing" textLength="122" x="2610.5" y="269.6499">getCoordinates()</text><text fill="#000000" font-family="sans-serif" font-size="14" lengthAdjust="spacing" textLength="205" x="2610.5" y="285.9467">setCoordinates(coordinates)</text><text fill="#000000" font-family="sans-serif" font-size="14" lengthAdjust="spacing" textLength="102" x="2610.5" y="302.2436">getDirection()</text><text fill="#000000" font-family="sans-serif" font-size="14" lengthAdjust="spacing" textLength="165" x="2610.5" y="318.5405">setDirection(direction)</text></g><!--class Map--><g id="elem_Map"><rect codeLine="68" fill="#F1F1F1" height="178.375" id="Map" rx="2.5" ry="2.5" style="stroke:#181818;stroke-width:0.5;" width="376" x="2037" y="164.061"/><ellipse cx="2205.75" cy="180.061" fill="#ADD1B2" rx="11" ry="11" style="stroke:#181818;stroke-width:1.0;"/><path d="M2208.0938,175.7329 C2207.1563,175.2954 2206.5625,175.1548 2205.6875,175.1548 C2203.0625,175.1548 2201.0625,177.2329 2201.0625,179.9516 L2201.0625,181.0766 C2201.0625,183.6548 2203.1719,185.5454 2206.0625,185.5454 C2207.2813,185.5454 2208.4375,185.2485 2209.1875,184.7016 C2209.7656,184.2954 2210.0938,183.8423 2210.0938,183.4516 C2210.0938,182.9985 2209.7031,182.6079 2209.2344,182.6079 C2209.0156,182.6079 2208.8125,182.686 2208.625,182.8735 C2208.1719,183.3579 2208.1719,183.3579 2207.9844,183.4516 C2207.5625,183.7173 2206.875,183.8423 2206.1094,183.8423 C2204.0625,183.8423 2202.7656,182.7485 2202.7656,181.0454 L2202.7656,179.9516 C2202.7656,178.1704 2204.0156,176.8579 2205.75,176.8579 C2206.3281,176.8579 2206.9375,177.0141 2207.4063,177.2641 C2207.8906,177.5454 2208.0625,177.7641 2208.1563,178.1704 C2208.2188,178.5766 2208.25,178.7016 2208.3906,178.8266 C2208.5313,178.9673 2208.7656,179.0766 2208.9844,179.0766 C2209.25,179.0766 2209.5156,178.936 2209.6875,178.7173 C2209.7969,178.561 2209.8281,178.3735 2209.8281,177.9516 L2209.8281,176.5298 C2209.8281,176.0923 2209.8125,175.9673 2209.7188,175.811 C2209.5625,175.5454 2209.2813,175.4048 2208.9844,175.4048 C2208.6875,175.4048 2208.4844,175.4985 2208.2656,175.811 L2208.0938,175.7329 Z " fill="#000000"/><text fill="#000000" font-family="sans-serif" font-size="14" lengthAdjust="spacing" textLength="30" x="2226.25" y="184.9077">Map</text><line style="stroke:#181818;stroke-width:0.5;" x1="2038" x2="2412" y1="196.061" y2="196.061"/><rect fill="none" height="6" style="stroke:#C82930;stroke-width:1.0;" width="6" x="2045" y="206.7094"/><text fill="#000000" font-family="sans-serif" font-size="14" lengthAdjust="spacing" textLength="69" x="2057" y="213.0561">width: int</text><rect fill="none" height="6" style="stroke:#C82930;stroke-width:1.0;" width="6" x="2045" y="223.0063"/><text fill="#000000" font-family="sans-serif" font-size="14" lengthAdjust="spacing" textLength="76" x="2057" y="229.353">height: int</text><rect fill="none" height="6" style="stroke:#C82930;stroke-width:1.0;" width="6" x="2045" y="239.3032"/><text fill="#000000" font-family="sans-serif" font-size="14" lengthAdjust="spacing" textLength="71" x="2057" y="245.6499">map: Grid</text><line style="stroke:#181818;stroke-width:0.5;" x1="2038" x2="2412" y1="252.9516" y2="252.9516"/><ellipse cx="2048" cy="266.6001" fill="#84BE84" rx="3" ry="3" style="stroke:#038048;stroke-width:1.0;"/><text fill="#000000" font-family="sans-serif" font-size="14" lengthAdjust="spacing" textLength="104" x="2057" y="269.9467">getMap(): Grid</text><ellipse cx="2048" cy="282.8969" fill="#84BE84" rx="3" ry="3" style="stroke:#038048;stroke-width:1.0;"/><text fill="#000000" font-family="sans-serif" font-size="14" lengthAdjust="spacing" textLength="93" x="2057" y="286.2436">setMap(Grid)</text><ellipse cx="2048" cy="299.1938" fill="#84BE84" rx="3" ry="3" style="stroke:#038048;stroke-width:1.0;"/><text fill="#000000" font-family="sans-serif" font-size="14" lengthAdjust="spacing" textLength="173" x="2057" y="302.5405">updateTile(coord, value)</text><ellipse cx="2048" cy="315.4907" fill="#84BE84" rx="3" ry="3" style="stroke:#038048;stroke-width:1.0;"/><text fill="#000000" font-family="sans-serif" font-size="14" lengthAdjust="spacing" textLength="350" x="2057" y="318.8374">isMoveAllowed(Entity, newCoordinates): boolean</text><rect fill="#F24D5C" height="6" style="stroke:#C82930;stroke-width:1.0;" width="6" x="2045" y="328.7876"/><text fill="#000000" font-family="sans-serif" font-size="14" lengthAdjust="spacing" textLength="222" x="2057" y="335.1342">isTileOccupied(coord): boolean</text></g><!--class Weapon--><g id="elem_Weapon"><rect codeLine="103" fill="#F1F1F1" height="145.7813" id="Weapon" rx="2.5" ry="2.5" style="stroke:#181818;stroke-width:0.5;" width="360" x="3868" y="485.061"/><ellipse cx="4014.25" cy="501.061" fill="#ADD1B2" rx="11" ry="11" style="stroke:#181818;stroke-width:1.0;"/><path d="M4016.5938,496.7329 C4015.6563,496.2954 4015.0625,496.1548 4014.1875,496.1548 C4011.5625,496.1548 4009.5625,498.2329 4009.5625,500.9516 L4009.5625,502.0766 C4009.5625,504.6548 4011.6719,506.5454 4014.5625,506.5454 C4015.7813,506.5454 4016.9375,506.2485 4017.6875,505.7016 C4018.2656,505.2954 4018.5938,504.8423 4018.5938,504.4516 C4018.5938,503.9985 4018.2031,503.6079 4017.7344,503.6079 C4017.5156,503.6079 4017.3125,503.686 4017.125,503.8735 C4016.6719,504.3579 4016.6719,504.3579 4016.4844,504.4516 C4016.0625,504.7173 4015.375,504.8423 4014.6094,504.8423 C4012.5625,504.8423 4011.2656,503.7485 4011.2656,502.0454 L4011.2656,500.9516 C4011.2656,499.1704 4012.5156,497.8579 4014.25,497.8579 C4014.8281,497.8579 4015.4375,498.0141 4015.9063,498.2641 C4016.3906,498.5454 4016.5625,498.7641 4016.6563,499.1704 C4016.7188,499.5766 4016.75,499.7016 4016.8906,499.8266 C4017.0313,499.9673 4017.2656,500.0766 4017.4844,500.0766 C4017.75,500.0766 4018.0156,499.936 4018.1875,499.7173 C4018.2969,499.561 4018.3281,499.3735 4018.3281,498.9516 L4018.3281,497.5298 C4018.3281,497.0923 4018.3125,496.9673 4018.2188,496.811 C4018.0625,496.5454 4017.7813,496.4048 4017.4844,496.4048 C4017.1875,496.4048 4016.9844,496.4985 4016.7656,496.811 L4016.5938,496.7329 Z " fill="#000000"/><text fill="#000000" font-family="sans-serif" font-size="14" lengthAdjust="spacing" textLength="59" x="4034.75" y="505.9077">Weapon</text><line style="stroke:#181818;stroke-width:0.5;" x1="3869" x2="4227" y1="517.061" y2="517.061"/><rect fill="none" height="6" style="stroke:#C82930;stroke-width:1.0;" width="6" x="3876" y="527.7094"/><text fill="#000000" font-family="sans-serif" font-size="14" lengthAdjust="spacing" textLength="171" x="3888" y="534.0561">timeOfPlacement: float</text><rect fill="none" height="6" style="stroke:#C82930;stroke-width:1.0;" width="6" x="3876" y="544.0063"/><text fill="#000000" font-family="sans-serif" font-size="14" lengthAdjust="spacing" textLength="167" x="3888" y="550.353">timeTillExplosion: float</text><rect fill="none" height="6" style="stroke:#C82930;stroke-width:1.0;" width="6" x="3876" y="560.3032"/><text fill="#000000" font-family="sans-serif" font-size="14" lengthAdjust="spacing" textLength="131" x="3888" y="566.6499">damagePoints: int</text><rect fill="none" height="6" style="stroke:#C82930;stroke-width:1.0;" width="6" x="3876" y="576.6001"/><text fill="#000000" font-family="sans-serif" font-size="14" lengthAdjust="spacing" textLength="116" x="3888" y="582.9467">blastLength: int</text><line style="stroke:#181818;stroke-width:0.5;" x1="3869" x2="4227" y1="590.2485" y2="590.2485"/><ellipse cx="3879" cy="603.8969" fill="#84BE84" rx="3" ry="3" style="stroke:#038048;stroke-width:1.0;"/><text fill="#000000" font-family="sans-serif" font-size="14" lengthAdjust="spacing" textLength="243" x="3888" y="607.2436">calculateTimeTillExplosion(): float</text><ellipse cx="3879" cy="620.1938" fill="#84BE84" rx="3" ry="3" style="stroke:#038048;stroke-width:1.0;"/><text fill="#000000" font-family="sans-serif" font-size="14" lengthAdjust="spacing" textLength="334" x="3888" y="623.5405">calculateBlastArea(): Collection&lt;Coordinates&gt;</text></g><!--class WeaponExplosionSystem--><g id="elem_WeaponExplosionSystem"><rect codeLine="113" fill="#F1F1F1" height="113.1875" id="WeaponExplosionSystem" rx="2.5" ry="2.5" style="stroke:#181818;stroke-width:0.5;" width="278" x="3555" y="501.561"/><ellipse cx="3598.8" cy="517.561" fill="#ADD1B2" rx="11" ry="11" style="stroke:#181818;stroke-width:1.0;"/><path d="M3601.1438,513.2329 C3600.2063,512.7954 3599.6125,512.6548 3598.7375,512.6548 C3596.1125,512.6548 3594.1125,514.7329 3594.1125,517.4516 L3594.1125,518.5766 C3594.1125,521.1548 3596.2219,523.0454 3599.1125,523.0454 C3600.3313,523.0454 3601.4875,522.7485 3602.2375,522.2016 C3602.8156,521.7954 3603.1438,521.3423 3603.1438,520.9516 C3603.1438,520.4985 3602.7531,520.1079 3602.2844,520.1079 C3602.0656,520.1079 3601.8625,520.186 3601.675,520.3735 C3601.2219,520.8579 3601.2219,520.8579 3601.0344,520.9516 C3600.6125,521.2173 3599.925,521.3423 3599.1594,521.3423 C3597.1125,521.3423 3595.8156,520.2485 3595.8156,518.5454 L3595.8156,517.4516 C3595.8156,515.6704 3597.0656,514.3579 3598.8,514.3579 C3599.3781,514.3579 3599.9875,514.5141 3600.4563,514.7641 C3600.9406,515.0454 3601.1125,515.2641 3601.2063,515.6704 C3601.2688,516.0766 3601.3,516.2016 3601.4406,516.3266 C3601.5813,516.4673 3601.8156,516.5766 3602.0344,516.5766 C3602.3,516.5766 3602.5656,516.436 3602.7375,516.2173 C3602.8469,516.061 3602.8781,515.8735 3602.8781,515.4516 L3602.8781,514.0298 C3602.8781,513.5923 3602.8625,513.4673 3602.7688,513.311 C3602.6125,513.0454 3602.3313,512.9048 3602.0344,512.9048 C3601.7375,512.9048 3601.5344,512.9985 3601.3156,513.311 L3601.1438,513.2329 Z " fill="#000000"/><text fill="#000000" font-family="sans-serif" font-size="14" lengthAdjust="spacing" textLength="182" x="3619.2" y="522.4077">WeaponExplosionSystem</text><line style="stroke:#181818;stroke-width:0.5;" x1="3556" x2="3832" y1="533.561" y2="533.561"/><rect fill="none" height="6" style="stroke:#C82930;stroke-width:1.0;" width="6" x="3563" y="544.2094"/><text fill="#000000" font-family="sans-serif" font-size="14" lengthAdjust="spacing" textLength="90" x="3575" y="550.5561">world: World</text><line style="stroke:#181818;stroke-width:0.5;" x1="3556" x2="3832" y1="557.8579" y2="557.8579"/><ellipse cx="3566" cy="571.5063" fill="#84BE84" rx="3" ry="3" style="stroke:#038048;stroke-width:1.0;"/><text fill="#000000" font-family="sans-serif" font-size="14" lengthAdjust="spacing" textLength="234" x="3575" y="574.853">WeaponExplosionSystem(World)</text><ellipse cx="3566" cy="587.8032" fill="#84BE84" rx="3" ry="3" style="stroke:#038048;stroke-width:1.0;"/><text fill="#000000" font-family="sans-serif" font-size="14" lengthAdjust="spacing" textLength="252" x="3575" y="591.1499">calculateBlastArea(Weapon, World)</text><ellipse cx="3566" cy="604.1001" fill="#84BE84" rx="3" ry="3" style="stroke:#038048;stroke-width:1.0;"/><text fill="#000000" font-family="sans-serif" font-size="14" lengthAdjust="spacing" textLength="66" x="3575" y="607.4467">process()</text></g><!--class enemyControlSystem--><g id="elem_enemyControlSystem"><rect codeLine="123" fill="#F1F1F1" height="80.5938" id="enemyControlSystem" rx="2.5" ry="2.5" style="stroke:#181818;stroke-width:0.5;" width="189" x="3442.5" y="212.561"/><ellipse cx="3457.5" cy="228.561" fill="#ADD1B2" rx="11" ry="11" style="stroke:#181818;stroke-width:1.0;"/><path d="M3459.8438,224.2329 C3458.9063,223.7954 3458.3125,223.6548 3457.4375,223.6548 C3454.8125,223.6548 3452.8125,225.7329 3452.8125,228.4516 L3452.8125,229.5766 C3452.8125,232.1548 3454.9219,234.0454 3457.8125,234.0454 C3459.0313,234.0454 3460.1875,233.7485 3460.9375,233.2016 C3461.5156,232.7954 3461.8438,232.3423 3461.8438,231.9516 C3461.8438,231.4985 3461.4531,231.1079 3460.9844,231.1079 C3460.7656,231.1079 3460.5625,231.186 3460.375,231.3735 C3459.9219,231.8579 3459.9219,231.8579 3459.7344,231.9516 C3459.3125,232.2173 3458.625,232.3423 3457.8594,232.3423 C3455.8125,232.3423 3454.5156,231.2485 3454.5156,229.5454 L3454.5156,228.4516 C3454.5156,226.6704 3455.7656,225.3579 3457.5,225.3579 C3458.0781,225.3579 3458.6875,225.5141 3459.1563,225.7641 C3459.6406,226.0454 3459.8125,226.2641 3459.9063,226.6704 C3459.9688,227.0766 3460,227.2016 3460.1406,227.3266 C3460.2813,227.4673 3460.5156,227.5766 3460.7344,227.5766 C3461,227.5766 3461.2656,227.436 3461.4375,227.2173 C3461.5469,227.061 3461.5781,226.8735 3461.5781,226.4516 L3461.5781,225.0298 C3461.5781,224.5923 3461.5625,224.4673 3461.4688,224.311 C3461.3125,224.0454 3461.0313,223.9048 3460.7344,223.9048 C3460.4375,223.9048 3460.2344,223.9985 3460.0156,224.311 L3459.8438,224.2329 Z " fill="#000000"/><text fill="#000000" font-family="sans-serif" font-size="14" lengthAdjust="spacing" textLength="157" x="3471.5" y="233.4077">enemyControlSystem</text><line style="stroke:#181818;stroke-width:0.5;" x1="3443.5" x2="3630.5" y1="244.561" y2="244.561"/><line style="stroke:#181818;stroke-width:0.5;" x1="3443.5" x2="3630.5" y1="252.561" y2="252.561"/><text fill="#000000" font-family="sans-serif" font-size="14" lengthAdjust="spacing" textLength="92" x="3448.5" y="269.5561">placeBomb()</text><text fill="#000000" font-family="sans-serif" font-size="14" lengthAdjust="spacing" textLength="50" x="3448.5" y="285.853">move()</text></g><!--class EnemyCollisionControlSystem--><g id="elem_EnemyCollisionControlSystem"><rect codeLine="138" fill="#F1F1F1" height="80.5938" id="EnemyCollisionControlSystem" rx="2.5" ry="2.5" style="stroke:#181818;stroke-width:0.5;" width="249" x="3158.5" y="212.561"/><ellipse cx="3173.5" cy="228.561" fill="#ADD1B2" rx="11" ry="11" style="stroke:#181818;stroke-width:1.0;"/><path d="M3175.8438,224.2329 C3174.9063,223.7954 3174.3125,223.6548 3173.4375,223.6548 C3170.8125,223.6548 3168.8125,225.7329 3168.8125,228.4516 L3168.8125,229.5766 C3168.8125,232.1548 3170.9219,234.0454 3173.8125,234.0454 C3175.0313,234.0454 3176.1875,233.7485 3176.9375,233.2016 C3177.5156,232.7954 3177.8438,232.3423 3177.8438,231.9516 C3177.8438,231.4985 3177.4531,231.1079 3176.9844,231.1079 C3176.7656,231.1079 3176.5625,231.186 3176.375,231.3735 C3175.9219,231.8579 3175.9219,231.8579 3175.7344,231.9516 C3175.3125,232.2173 3174.625,232.3423 3173.8594,232.3423 C3171.8125,232.3423 3170.5156,231.2485 3170.5156,229.5454 L3170.5156,228.4516 C3170.5156,226.6704 3171.7656,225.3579 3173.5,225.3579 C3174.0781,225.3579 3174.6875,225.5141 3175.1563,225.7641 C3175.6406,226.0454 3175.8125,226.2641 3175.9063,226.6704 C3175.9688,227.0766 3176,227.2016 3176.1406,227.3266 C3176.2813,227.4673 3176.5156,227.5766 3176.7344,227.5766 C3177,227.5766 3177.2656,227.436 3177.4375,227.2173 C3177.5469,227.061 3177.5781,226.8735 3177.5781,226.4516 L3177.5781,225.0298 C3177.5781,224.5923 3177.5625,224.4673 3177.4688,224.311 C3177.3125,224.0454 3177.0313,223.9048 3176.7344,223.9048 C3176.4375,223.9048 3176.2344,223.9985 3176.0156,224.311 L3175.8438,224.2329 Z " fill="#000000"/><text fill="#000000" font-family="sans-serif" font-size="14" lengthAdjust="spacing" textLength="217" x="3187.5" y="233.4077">EnemyCollisionControlSystem</text><line style="stroke:#181818;stroke-width:0.5;" x1="3159.5" x2="3406.5" y1="244.561" y2="244.561"/><text fill="#000000" font-family="sans-serif" font-size="14" lengthAdjust="spacing" textLength="112" x="3164.5" y="261.5561">XCord  'maybe?</text><text fill="#000000" font-family="sans-serif" font-size="14" lengthAdjust="spacing" textLength="111" x="3164.5" y="277.853">YCord  'maybe?</text><line style="stroke:#181818;stroke-width:0.5;" x1="3159.5" x2="3406.5" y1="285.1548" y2="285.1548"/></g><!--class PathFinding--><g id="elem_PathFinding"><rect codeLine="129" fill="#F1F1F1" height="64.2969" id="PathFinding" rx="2.5" ry="2.5" style="stroke:#181818;stroke-width:0.5;" width="225" x="4038.5" y="221.061"/><ellipse cx="4104.25" cy="237.061" fill="#ADD1B2" rx="11" ry="11" style="stroke:#181818;stroke-width:1.0;"/><path d="M4106.5938,232.7329 C4105.6563,232.2954 4105.0625,232.1548 4104.1875,232.1548 C4101.5625,232.1548 4099.5625,234.2329 4099.5625,236.9516 L4099.5625,238.0766 C4099.5625,240.6548 4101.6719,242.5454 4104.5625,242.5454 C4105.7813,242.5454 4106.9375,242.2485 4107.6875,241.7016 C4108.2656,241.2954 4108.5938,240.8423 4108.5938,240.4516 C4108.5938,239.9985 4108.2031,239.6079 4107.7344,239.6079 C4107.5156,239.6079 4107.3125,239.686 4107.125,239.8735 C4106.6719,240.3579 4106.6719,240.3579 4106.4844,240.4516 C4106.0625,240.7173 4105.375,240.8423 4104.6094,240.8423 C4102.5625,240.8423 4101.2656,239.7485 4101.2656,238.0454 L4101.2656,236.9516 C4101.2656,235.1704 4102.5156,233.8579 4104.25,233.8579 C4104.8281,233.8579 4105.4375,234.0141 4105.9063,234.2641 C4106.3906,234.5454 4106.5625,234.7641 4106.6563,235.1704 C4106.7188,235.5766 4106.75,235.7016 4106.8906,235.8266 C4107.0313,235.9673 4107.2656,236.0766 4107.4844,236.0766 C4107.75,236.0766 4108.0156,235.936 4108.1875,235.7173 C4108.2969,235.561 4108.3281,235.3735 4108.3281,234.9516 L4108.3281,233.5298 C4108.3281,233.0923 4108.3125,232.9673 4108.2188,232.811 C4108.0625,232.5454 4107.7813,232.4048 4107.4844,232.4048 C4107.1875,232.4048 4106.9844,232.4985 4106.7656,232.811 L4106.5938,232.7329 Z " fill="#000000"/><text fill="#000000" font-family="sans-serif" font-size="14" lengthAdjust="spacing" textLength="85" x="4124.75" y="241.9077">PathFinding</text><line style="stroke:#181818;stroke-width:0.5;" x1="4039.5" x2="4262.5" y1="253.061" y2="253.061"/><line style="stroke:#181818;stroke-width:0.5;" x1="4039.5" x2="4262.5" y1="261.061" y2="261.061"/><text fill="#000000" font-family="sans-serif" font-size="14" lengthAdjust="spacing" textLength="213" x="4044.5" y="278.0561">calculatePathToPlayer(Player)</text></g><!--class BombPlacing--><g id="elem_BombPlacing"><rect codeLine="133" fill="#F1F1F1" height="64.2969" id="BombPlacing" rx="2.5" ry="2.5" style="stroke:#181818;stroke-width:0.5;" width="337" x="3666.5" y="221.061"/><ellipse cx="3783.75" cy="237.061" fill="#ADD1B2" rx="11" ry="11" style="stroke:#181818;stroke-width:1.0;"/><path d="M3786.0938,232.7329 C3785.1563,232.2954 3784.5625,232.1548 3783.6875,232.1548 C3781.0625,232.1548 3779.0625,234.2329 3779.0625,236.9516 L3779.0625,238.0766 C3779.0625,240.6548 3781.1719,242.5454 3784.0625,242.5454 C3785.2813,242.5454 3786.4375,242.2485 3787.1875,241.7016 C3787.7656,241.2954 3788.0938,240.8423 3788.0938,240.4516 C3788.0938,239.9985 3787.7031,239.6079 3787.2344,239.6079 C3787.0156,239.6079 3786.8125,239.686 3786.625,239.8735 C3786.1719,240.3579 3786.1719,240.3579 3785.9844,240.4516 C3785.5625,240.7173 3784.875,240.8423 3784.1094,240.8423 C3782.0625,240.8423 3780.7656,239.7485 3780.7656,238.0454 L3780.7656,236.9516 C3780.7656,235.1704 3782.0156,233.8579 3783.75,233.8579 C3784.3281,233.8579 3784.9375,234.0141 3785.4063,234.2641 C3785.8906,234.5454 3786.0625,234.7641 3786.1563,235.1704 C3786.2188,235.5766 3786.25,235.7016 3786.3906,235.8266 C3786.5313,235.9673 3786.7656,236.0766 3786.9844,236.0766 C3787.25,236.0766 3787.5156,235.936 3787.6875,235.7173 C3787.7969,235.561 3787.8281,235.3735 3787.8281,234.9516 L3787.8281,233.5298 C3787.8281,233.0923 3787.8125,232.9673 3787.7188,232.811 C3787.5625,232.5454 3787.2813,232.4048 3786.9844,232.4048 C3786.6875,232.4048 3786.4844,232.4985 3786.2656,232.811 L3786.0938,232.7329 Z " fill="#000000"/><text fill="#000000" font-family="sans-serif" font-size="14" lengthAdjust="spacing" textLength="94" x="3804.25" y="241.9077">BombPlacing</text><line style="stroke:#181818;stroke-width:0.5;" x1="3667.5" x2="4002.5" y1="253.061" y2="253.061"/><line style="stroke:#181818;stroke-width:0.5;" x1="3667.5" x2="4002.5" y1="261.061" y2="261.061"/><text fill="#000000" font-family="sans-serif" font-size="14" lengthAdjust="spacing" textLength="325" x="3672.5" y="278.0561">calculateOptimalPlacement(Entity, Weapon))</text></g><!--class Player--><g id="elem_Player"><rect codeLine="145" fill="#F1F1F1" height="48" id="Player" rx="2.5" ry="2.5" style="stroke:#181818;stroke-width:0.5;" width="76" x="3399" y="534.061"/><ellipse cx="3414" cy="550.061" fill="#ADD1B2" rx="11" ry="11" style="stroke:#181818;stroke-width:1.0;"/><path d="M3416.3438,545.7329 C3415.4063,545.2954 3414.8125,545.1548 3413.9375,545.1548 C3411.3125,545.1548 3409.3125,547.2329 3409.3125,549.9516 L3409.3125,551.0766 C3409.3125,553.6548 3411.4219,555.5454 3414.3125,555.5454 C3415.5313,555.5454 3416.6875,555.2485 3417.4375,554.7016 C3418.0156,554.2954 3418.3438,553.8423 3418.3438,553.4516 C3418.3438,552.9985 3417.9531,552.6079 3417.4844,552.6079 C3417.2656,552.6079 3417.0625,552.686 3416.875,552.8735 C3416.4219,553.3579 3416.4219,553.3579 3416.2344,553.4516 C3415.8125,553.7173 3415.125,553.8423 3414.3594,553.8423 C3412.3125,553.8423 3411.0156,552.7485 3411.0156,551.0454 L3411.0156,549.9516 C3411.0156,548.1704 3412.2656,546.8579 3414,546.8579 C3414.5781,546.8579 3415.1875,547.0141 3415.6563,547.2641 C3416.1406,547.5454 3416.3125,547.7641 3416.4063,548.1704 C3416.4688,548.5766 3416.5,548.7016 3416.6406,548.8266 C3416.7813,548.9673 3417.0156,549.0766 3417.2344,549.0766 C3417.5,549.0766 3417.7656,548.936 3417.9375,548.7173 C3418.0469,548.561 3418.0781,548.3735 3418.0781,547.9516 L3418.0781,546.5298 C3418.0781,546.0923 3418.0625,545.9673 3417.9688,545.811 C3417.8125,545.5454 3417.5313,545.4048 3417.2344,545.4048 C3416.9375,545.4048 3416.7344,545.4985 3416.5156,545.811 L3416.3438,545.7329 Z " fill="#000000"/><text fill="#000000" font-family="sans-serif" font-size="14" lengthAdjust="spacing" textLength="44" x="3428" y="554.9077">Player</text><line style="stroke:#181818;stroke-width:0.5;" x1="3400" x2="3474" y1="566.061" y2="566.061"/><line style="stroke:#181818;stroke-width:0.5;" x1="3400" x2="3474" y1="574.061" y2="574.061"/></g><!--class PlayerControlSystem--><g id="elem_PlayerControlSystem"><rect codeLine="148" fill="#F1F1F1" height="113.1875" id="PlayerControlSystem" rx="2.5" ry="2.5" style="stroke:#181818;stroke-width:0.5;" width="239" x="2926.5" y="501.561"/><ellipse cx="2966.25" cy="517.561" fill="#ADD1B2" rx="11" ry="11" style="stroke:#181818;stroke-width:1.0;"/><path d="M2968.5938,513.2329 C2967.6563,512.7954 2967.0625,512.6548 2966.1875,512.6548 C2963.5625,512.6548 2961.5625,514.7329 2961.5625,517.4516 L2961.5625,518.5766 C2961.5625,521.1548 2963.6719,523.0454 2966.5625,523.0454 C2967.7813,523.0454 2968.9375,522.7485 2969.6875,522.2016 C2970.2656,521.7954 2970.5938,521.3423 2970.5938,520.9516 C2970.5938,520.4985 2970.2031,520.1079 2969.7344,520.1079 C2969.5156,520.1079 2969.3125,520.186 2969.125,520.3735 C2968.6719,520.8579 2968.6719,520.8579 2968.4844,520.9516 C2968.0625,521.2173 2967.375,521.3423 2966.6094,521.3423 C2964.5625,521.3423 2963.2656,520.2485 2963.2656,518.5454 L2963.2656,517.4516 C2963.2656,515.6704 2964.5156,514.3579 2966.25,514.3579 C2966.8281,514.3579 2967.4375,514.5141 2967.9063,514.7641 C2968.3906,515.0454 2968.5625,515.2641 2968.6563,515.6704 C2968.7188,516.0766 2968.75,516.2016 2968.8906,516.3266 C2969.0313,516.4673 2969.2656,516.5766 2969.4844,516.5766 C2969.75,516.5766 2970.0156,516.436 2970.1875,516.2173 C2970.2969,516.061 2970.3281,515.8735 2970.3281,515.4516 L2970.3281,514.0298 C2970.3281,513.5923 2970.3125,513.4673 2970.2188,513.311 C2970.0625,513.0454 2969.7813,512.9048 2969.4844,512.9048 C2969.1875,512.9048 2968.9844,512.9985 2968.7656,513.311 L2968.5938,513.2329 Z " fill="#000000"/><text fill="#000000" font-family="sans-serif" font-size="14" lengthAdjust="spacing" textLength="152" x="2985.75" y="522.4077">PlayerControlSystem</text><line style="stroke:#181818;stroke-width:0.5;" x1="2927.5" x2="3164.5" y1="533.561" y2="533.561"/><rect fill="none" height="6" style="stroke:#C82930;stroke-width:1.0;" width="6" x="2934.5" y="544.2094"/><text fill="#000000" font-family="sans-serif" font-size="14" lengthAdjust="spacing" textLength="213" x="2946.5" y="550.5561">IWeapon[] placeableWeapons</text><line style="stroke:#181818;stroke-width:0.5;" x1="2927.5" x2="3164.5" y1="557.8579" y2="557.8579"/><ellipse cx="2937.5" cy="571.5063" fill="#84BE84" rx="3" ry="3" style="stroke:#038048;stroke-width:1.0;"/><text fill="#000000" font-family="sans-serif" font-size="14" lengthAdjust="spacing" textLength="108" x="2946.5" y="574.853">placeWeapon()</text><ellipse cx="2937.5" cy="587.8032" fill="#84BE84" rx="3" ry="3" style="stroke:#038048;stroke-width:1.0;"/><text fill="#000000" font-family="sans-serif" font-size="14" lengthAdjust="spacing" textLength="102" x="2946.5" y="591.1499">takeDamage()</text><ellipse cx="2937.5" cy="604.1001" fill="#84BE84" rx="3" ry="3" style="stroke:#038048;stroke-width:1.0;"/><text fill="#000000" font-family="sans-serif" font-size="14" lengthAdjust="spacing" textLength="66" x="2946.5" y="607.4467">process()</text></g><!--class PlayerPlugin--><g id="elem_PlayerPlugin"><rect codeLine="155" fill="#F1F1F1" height="113.1875" id="PlayerPlugin" rx="2.5" ry="2.5" style="stroke:#181818;stroke-width:0.5;" width="163" x="3200.5" y="501.561"/><ellipse cx="3235.3" cy="517.561" fill="#ADD1B2" rx="11" ry="11" style="stroke:#181818;stroke-width:1.0;"/><path d="M3237.6438,513.2329 C3236.7063,512.7954 3236.1125,512.6548 3235.2375,512.6548 C3232.6125,512.6548 3230.6125,514.7329 3230.6125,517.4516 L3230.6125,518.5766 C3230.6125,521.1548 3232.7219,523.0454 3235.6125,523.0454 C3236.8313,523.0454 3237.9875,522.7485 3238.7375,522.2016 C3239.3156,521.7954 3239.6438,521.3423 3239.6438,520.9516 C3239.6438,520.4985 3239.2531,520.1079 3238.7844,520.1079 C3238.5656,520.1079 3238.3625,520.186 3238.175,520.3735 C3237.7219,520.8579 3237.7219,520.8579 3237.5344,520.9516 C3237.1125,521.2173 3236.425,521.3423 3235.6594,521.3423 C3233.6125,521.3423 3232.3156,520.2485 3232.3156,518.5454 L3232.3156,517.4516 C3232.3156,515.6704 3233.5656,514.3579 3235.3,514.3579 C3235.8781,514.3579 3236.4875,514.5141 3236.9563,514.7641 C3237.4406,515.0454 3237.6125,515.2641 3237.7063,515.6704 C3237.7688,516.0766 3237.8,516.2016 3237.9406,516.3266 C3238.0813,516.4673 3238.3156,516.5766 3238.5344,516.5766 C3238.8,516.5766 3239.0656,516.436 3239.2375,516.2173 C3239.3469,516.061 3239.3781,515.8735 3239.3781,515.4516 L3239.3781,514.0298 C3239.3781,513.5923 3239.3625,513.4673 3239.2688,513.311 C3239.1125,513.0454 3238.8313,512.9048 3238.5344,512.9048 C3238.2375,512.9048 3238.0344,512.9985 3237.8156,513.311 L3237.6438,513.2329 Z " fill="#000000"/><text fill="#000000" font-family="sans-serif" font-size="14" lengthAdjust="spacing" textLength="87" x="3253.7" y="522.4077">PlayerPlugin</text><line style="stroke:#181818;stroke-width:0.5;" x1="3201.5" x2="3362.5" y1="533.561" y2="533.561"/><rect fill="none" height="6" style="stroke:#C82930;stroke-width:1.0;" width="6" x="3208.5" y="544.2094"/><text fill="#000000" font-family="sans-serif" font-size="14" lengthAdjust="spacing" textLength="137" x="3220.5" y="550.5561">Entity playerEntity</text><line style="stroke:#181818;stroke-width:0.5;" x1="3201.5" x2="3362.5" y1="557.8579" y2="557.8579"/><ellipse cx="3211.5" cy="571.5063" fill="#84BE84" rx="3" ry="3" style="stroke:#038048;stroke-width:1.0;"/><text fill="#000000" font-family="sans-serif" font-size="14" lengthAdjust="spacing" textLength="101" x="3220.5" y="574.853">createPlayer()</text><ellipse cx="3211.5" cy="587.8032" fill="#84BE84" rx="3" ry="3" style="stroke:#038048;stroke-width:1.0;"/><text fill="#000000" font-family="sans-serif" font-size="14" lengthAdjust="spacing" textLength="45" x="3220.5" y="591.1499">start()</text><ellipse cx="3211.5" cy="604.1001" fill="#84BE84" rx="3" ry="3" style="stroke:#038048;stroke-width:1.0;"/><text fill="#000000" font-family="sans-serif" font-size="14" lengthAdjust="spacing" textLength="43" x="3220.5" y="607.4467">stop()</text></g><!--class TheMapGenerator--><g id="elem_TheMapGenerator"><rect codeLine="171" fill="#F1F1F1" height="64.2969" id="TheMapGenerator" rx="2.5" ry="2.5" style="stroke:#181818;stroke-width:0.5;" width="163" x="4332.5" y="526.061"/><ellipse cx="4347.5" cy="542.061" fill="#ADD1B2" rx="11" ry="11" style="stroke:#181818;stroke-width:1.0;"/><path d="M4349.8438,537.7329 C4348.9063,537.2954 4348.3125,537.1548 4347.4375,537.1548 C4344.8125,537.1548 4342.8125,539.2329 4342.8125,541.9516 L4342.8125,543.0766 C4342.8125,545.6548 4344.9219,547.5454 4347.8125,547.5454 C4349.0313,547.5454 4350.1875,547.2485 4350.9375,546.7016 C4351.5156,546.2954 4351.8438,545.8423 4351.8438,545.4516 C4351.8438,544.9985 4351.4531,544.6079 4350.9844,544.6079 C4350.7656,544.6079 4350.5625,544.686 4350.375,544.8735 C4349.9219,545.3579 4349.9219,545.3579 4349.7344,545.4516 C4349.3125,545.7173 4348.625,545.8423 4347.8594,545.8423 C4345.8125,545.8423 4344.5156,544.7485 4344.5156,543.0454 L4344.5156,541.9516 C4344.5156,540.1704 4345.7656,538.8579 4347.5,538.8579 C4348.0781,538.8579 4348.6875,539.0141 4349.1563,539.2641 C4349.6406,539.5454 4349.8125,539.7641 4349.9063,540.1704 C4349.9688,540.5766 4350,540.7016 4350.1406,540.8266 C4350.2813,540.9673 4350.5156,541.0766 4350.7344,541.0766 C4351,541.0766 4351.2656,540.936 4351.4375,540.7173 C4351.5469,540.561 4351.5781,540.3735 4351.5781,539.9516 L4351.5781,538.5298 C4351.5781,538.0923 4351.5625,537.9673 4351.4688,537.811 C4351.3125,537.5454 4351.0313,537.4048 4350.7344,537.4048 C4350.4375,537.4048 4350.2344,537.4985 4350.0156,537.811 L4349.8438,537.7329 Z " fill="#000000"/><text fill="#000000" font-family="sans-serif" font-size="14" lengthAdjust="spacing" textLength="131" x="4361.5" y="546.9077">TheMapGenerator</text><line style="stroke:#181818;stroke-width:0.5;" x1="4333.5" x2="4494.5" y1="558.061" y2="558.061"/><line style="stroke:#181818;stroke-width:0.5;" x1="4333.5" x2="4494.5" y1="566.061" y2="566.061"/><ellipse cx="4343.5" cy="579.7094" fill="#84BE84" rx="3" ry="3" style="stroke:#038048;stroke-width:1.0;"/><text fill="#000000" font-family="sans-serif" font-size="14" lengthAdjust="spacing" textLength="106" x="4352.5" y="583.0561">generateMap()</text></g><!--link GMN18 to Map--><g id="link_GMN18_Map"><path d="M252.517,240.317 C284.57,198.611 393.709,66.232 520.5,20.061 C558.581,6.194 1941.49,6 1979.5,20.061 C2053.62,47.482 2117.63,110.405 2161.68,163.957 " fill="none" id="GMN18-Map" style="stroke:#181818;stroke-width:1.0;stroke-dasharray:7.0,7.0;"/></g><!--reverse link IWeapon to Weapon--><g id="link_IWeapon_Weapon"><path d="M1740.2469,309.0486 C1756.1869,334.8636 1771.35,351.103 1803,366.061 C1822.31,375.189 3319.65,373.482 3341,374.061 C3355.18,374.445 3837.74,394.032 3851,399.061 C3899.37,417.406 3945.01,452.408 3980.15,484.814 " fill="none" id="IWeapon-backto-Weapon" style="stroke:#181818;stroke-width:1.0;stroke-dasharray:7.0,7.0;"/><polygon fill="none" points="1730.79,293.733,1735.1417,312.2009,1745.3521,305.8963,1730.79,293.733" style="stroke:#181818;stroke-width:1.0;"/></g><!--link Weapon to Entity--><g id="link_Weapon_Entity"><path codeLine="111" d="M3974.43,484.929 C3939.54,454.352 3895.75,420.829 3851,399.061 C3807.08,377.698 3792.48,379.976 3744,374.061 C3611.2,357.858 3274.58,383.979 3142,366.061 C3031.01,351.061 2924.7897,322.2717 2838.9397,295.6037 " fill="none" id="Weapon-to-Entity" style="stroke:#181818;stroke-width:1.0;"/><polygon fill="none" points="2821.75,290.264,2837.1598,301.3336,2840.7197,289.8738,2821.75,290.264" style="stroke:#181818;stroke-width:1.0;"/><text fill="#000000" font-family="sans-serif" font-size="13" lengthAdjust="spacing" textLength="47" x="3832" y="387.1279">inherits</text></g><!--reverse link IEntityProcessingService to WeaponExplosionSystem--><g id="link_IEntityProcessingService_WeaponExplosionSystem"><path d="M1320.5883,299.2365 C1342.1183,326.2915 1366.17,349.592 1407,366.061 C1460.69,387.718 3436.39,379.829 3491,399.061 C3549.76,419.756 3604.76,464.813 3642.65,501.536 " fill="none" id="IEntityProcessingService-backto-WeaponExplosionSystem" style="stroke:#181818;stroke-width:1.0;stroke-dasharray:7.0,7.0;"/><polygon fill="none" points="1309.38,285.152,1315.8934,302.9726,1325.2831,295.5004,1309.38,285.152" style="stroke:#181818;stroke-width:1.0;"/></g><!--reverse link IActor to PlayerControlSystem--><g id="link_IActor_PlayerControlSystem"><path codeLine="162" d="M939.5709,315.5087 C958.8519,338.7597 973.5,351.045 1003,366.061 C1072.63,401.502 1099.1,385.111 1177,391.061 C1358.7,404.939 1815.35,384.566 1997,399.061 C2336.18,426.126 2732.14,496.416 2926.28,533.446 " fill="none" id="IActor-backto-PlayerControlSystem" style="stroke:#181818;stroke-width:1.0;stroke-dasharray:7.0,7.0;"/><polygon fill="none" points="928.081,301.653,934.9524,319.3387,944.1895,311.6788,928.081,301.653" style="stroke:#181818;stroke-width:1.0;"/></g><!--reverse link IDamageable to PlayerControlSystem--><g id="link_IDamageable_PlayerControlSystem"><path codeLine="163" d="M1111.7108,309.3703 C1125.4708,334.5913 1138.31,349.717 1167,366.061 C1266.71,422.874 1309.42,384.699 1424,391.061 C1551.15,398.121 1870.08,388.665 1997,399.061 C2336.12,426.839 2732.11,496.813 2926.27,533.612 " fill="none" id="IDamageable-backto-PlayerControlSystem" style="stroke:#181818;stroke-width:1.0;stroke-dasharray:7.0,7.0;"/><polygon fill="none" points="1103.09,293.569,1106.4437,312.2439,1116.9779,306.4967,1103.09,293.569" style="stroke:#181818;stroke-width:1.0;"/></g><!--reverse link Entity to Player--><g id="link_Entity_Player"><path codeLine="164" d="M2839.2494,291.2502 C2925.4694,315.8482 3031.96,344.18 3142,366.061 C3194.59,376.518 3339.44,365.194 3381,399.061 C3422.29,432.702 3433.16,498.985 3436.01,534.052 " fill="none" id="Entity-backto-Player" style="stroke:#181818;stroke-width:1.0;"/><polygon fill="none" points="2821.94,286.312,2837.6033,297.02,2840.8954,285.4805,2821.94,286.312" style="stroke:#181818;stroke-width:1.0;"/></g><!--reverse link IEntityProcessingService to PlayerControlSystem--><g id="link_IEntityProcessingService_PlayerControlSystem"><path codeLine="165" d="M1321.2928,299.2746 C1342.9728,326.0276 1366.77,348.889 1407,366.061 C1527.78,417.609 1866.38,385.601 1997,399.061 C2335.47,433.939 2731.75,500.765 2926.11,535.262 " fill="none" id="IEntityProcessingService-backto-PlayerControlSystem" style="stroke:#181818;stroke-width:1.0;stroke-dasharray:7.0,7.0;"/><polygon fill="none" points="1309.96,285.29,1316.6312,303.0522,1325.9543,295.497,1309.96,285.29" style="stroke:#181818;stroke-width:1.0;"/></g><!--reverse link IGamePluginService to PlayerPlugin--><g id="link_IGamePluginService_PlayerPlugin"><path codeLine="166" d="M1547.2666,308.2943 C1565.8366,334.0893 1583.28,351.03 1617,366.061 C1775.96,436.925 3031.63,313.18 3183,399.061 C3221.85,421.105 3247.59,465.295 3263.05,501.35 " fill="none" id="IGamePluginService-backto-PlayerPlugin" style="stroke:#181818;stroke-width:1.0;stroke-dasharray:7.0,7.0;"/><polygon fill="none" points="1536.75,293.686,1542.3972,311.7998,1552.136,304.7887,1536.75,293.686" style="stroke:#181818;stroke-width:1.0;"/></g><!--reverse link IMapGenerator to TheMapGenerator--><g id="link_IMapGenerator_TheMapGenerator"><path d="M1934.5124,299.3681 C1956.0224,326.5001 1980.07,349.828 2021,366.061 C2045.1,375.622 3862.09,373.097 3888,374.061 C3967.25,377.01 4171.25,367.488 4244,399.061 C4307.39,426.572 4362.14,488.132 4391.38,525.774 " fill="none" id="IMapGenerator-backto-TheMapGenerator" style="stroke:#181818;stroke-width:1.0;stroke-dasharray:7.0,7.0;"/><polygon fill="none" points="1923.33,285.263,1929.8107,303.0956,1939.2141,295.6406,1923.33,285.263" style="stroke:#181818;stroke-width:1.0;"/></g><!--SRC=[fLVTRjiw3Bwkdq9tJP4c3r0K6xgkwmfiQ80Mw1c6NIWsamYJ9SDIsXLhtlrGfd_aI0fIp1SnGbByn7ywrsMb5IZBhdLPQiN-PWoVYkU_-He6OaFrEGRgPv63QGzqZr0MwXNFWTrTvLRNUsptc0gW2AYbVeR9MK2k9Efw0ewNdDpHUooqorBu91svm1hiPrwY4GkDuYQ2QWvAf26ljPIYu4i9STY17mTDyjEGTCyqv5TX3vcPOgS1Rta92xbT2_L0AH0BiUMrZG5QNGL02Ppll8fRz2GAkuaeTyQ2M6zYm6bpRfGLzdLHQynb8zGwRLH5CaSxQg6DVOTsb5wy4m5TT0iAQXulj3Nn0CKcJxgMHShpkx2y2sxvdifSScDOeoW21ivI0IOiR5u5D5uKv9b8g6fmhI39nYWVuZbR0_T5p20T4JjohUj2A7HRQ4eXQiYjq2gB5tT_CbNTWu074xNZSmULw4uzkx_JeR8Yc-CLDMClhg0kN695c9kcf59S3Eu5kwr5sC-dVJII0eO47FSimjvMc8JmAB0PDjuwPyzSRY4cAintp9ahAVKB51EAxJbJyEAv7E-nr5e2Ln4xX74uztc-hGHgQF0E7F1pYZnDlqfRO19MbkcLSpUPZjePTwvoL2_mZAkYWp3CQapzgWRZXh5UOWlD9UPWbfsUvFsGNc1VTIFtzEHaw0Djaq4MSKw6JeN_TjcfUr4AV1ChQ0H5MKaeKQK9ZeyEe5-nRRth2FOzuHBok4ExR9SDzercTjUBYFZmQYoKNWAt_OXEU3YqiypRLxUdpDjzO5m0CsP52VUhXLiptF4BjfAQsuWG9eYy-LD9j4whk5ZXxGnXnSpO4czilu5Qnyfjod8kywriSduFpXLH2EYT-EGqNzN0dQJR8gWdN7hv_o4BUqFhlDdixKFN4Tt5Db0BQxAef_ixjV4uml773K7iGswqND24sJCqYXqRQb6VqEbp5fKFntfNqLZbGsRUA2YxUK7-04UvrihMMjA51eEQjVMJBfUUMc_39OH1-TKT7Jqj-UiIi2yCKtul20jkDr-4mfYkzwPpPxQJUDIOqAzGJ-Xr5flqfC_TqIK_wcC9XVSLfZ-NVOdq_RLTnqF7PVwSRPo4QwsBMy9R_rrZbdRMV-p9FqBoNb38l55KHgJHLOWpka8hDki-5dx-eiYvTPeej0HCHzyXPotDyjz0wtTF6YTJ19usvnwtBRgguT6VLbEEYOl1f31swlszUkflqorIgWBfK-poRJvlhp6FEEEW1kypu_rgt38vRqszV9lDngSFugPwnx_O4dx1XDg8FywsoBhTZQW7NK9Y6wVeFsx6_2FQve7jVZhQxVq2tFqF]--></g></svg>