<?xml version="1.0" encoding="us-ascii" standalone="no"?><svg xmlns="http://www.w3.org/2000/svg" xmlns:xlink="http://www.w3.org/1999/xlink" contentStyleType="text/css" height="719px" preserveAspectRatio="none" style="width:534px;height:719px;background:#FFFFFF;" version="1.1" viewBox="0 0 534 719" width="534px" zoomAndPan="magnify"><defs/><g><text fill="#000000" font-family="sans-serif" font-size="14" font-weight="bold" lengthAdjust="spacing" textLength="174" x="173.0259" y="22.9951">Enemy State Machine</text><ellipse cx="318.0518" cy="69.2969" fill="#222222" rx="10" ry="10" style="stroke:#222222;stroke-width:1.0;"/><g id="Idle"><rect fill="#F1F1F1" height="50.2656" rx="12.5" ry="12.5" style="stroke:#181818;stroke-width:0.5;" width="243" x="196.5518" y="155.2969"/><line style="stroke:#181818;stroke-width:0.5;" x1="196.5518" x2="439.5518" y1="181.5938" y2="181.5938"/><text fill="#000000" font-family="sans-serif" font-size="14" lengthAdjust="spacing" textLength="26" x="305.0518" y="173.292">Idle</text><text fill="#000000" font-family="sans-serif" font-size="12" lengthAdjust="spacing" textLength="223" x="201.5518" y="197.7324">Enemy is not engaged in any activity.</text></g><g id="Chasing"><rect fill="#F1F1F1" height="50.2656" rx="12.5" ry="12.5" style="stroke:#181818;stroke-width:0.5;" width="342" x="19.0516" y="282.2969"/><line style="stroke:#181818;stroke-width:0.5;" x1="19.0516" x2="361.0516" y1="308.5938" y2="308.5938"/><text fill="#000000" font-family="sans-serif" font-size="14" lengthAdjust="spacing" textLength="56" x="162.0516" y="300.292">Chasing</text><text fill="#000000" font-family="sans-serif" font-size="12" lengthAdjust="spacing" textLength="322" x="24.0516" y="324.7324">Enemy has detected the player and is pursuing them.</text></g><g id="Attacking"><rect fill="#F1F1F1" height="50.2656" rx="12.5" ry="12.5" style="stroke:#181818;stroke-width:0.5;" width="279" x="67.5516" y="409.2969"/><line style="stroke:#181818;stroke-width:0.5;" x1="67.5516" x2="346.5516" y1="435.5938" y2="435.5938"/><text fill="#000000" font-family="sans-serif" font-size="14" lengthAdjust="spacing" textLength="71" x="171.5516" y="427.292">Attacking</text><text fill="#000000" font-family="sans-serif" font-size="12" lengthAdjust="spacing" textLength="259" x="72.5516" y="451.7324">Enemy is in range and attacking the player.</text></g><g id="Damaged"><rect fill="#F1F1F1" height="50.2656" rx="12.5" ry="12.5" style="stroke:#181818;stroke-width:0.5;" width="178" x="248.0518" y="536.2969"/><line style="stroke:#181818;stroke-width:0.5;" x1="248.0518" x2="426.0518" y1="562.5938" y2="562.5938"/><text fill="#000000" font-family="sans-serif" font-size="14" lengthAdjust="spacing" textLength="68" x="303.0518" y="554.292">Damaged</text><text fill="#000000" font-family="sans-serif" font-size="12" lengthAdjust="spacing" textLength="158" x="253.0518" y="578.7324">Enemy has taken damage.</text></g><g id="Dead"><rect fill="#F1F1F1" height="50" rx="12.5" ry="12.5" style="stroke:#181818;stroke-width:0.5;" width="57" x="308.5518" y="663.2969"/><line style="stroke:#181818;stroke-width:0.5;" x1="308.5518" x2="365.5518" y1="689.5938" y2="689.5938"/><text fill="#000000" font-family="sans-serif" font-size="14" lengthAdjust="spacing" textLength="37" x="318.5518" y="681.292">Dead</text></g><g id="Destroyed"><rect fill="#F1F1F1" height="50.2656" rx="12.5" ry="12.5" style="stroke:#181818;stroke-width:0.5;" width="112" x="363.0518" y="44.2969"/><line style="stroke:#181818;stroke-width:0.5;" x1="363.0518" x2="475.0518" y1="70.5938" y2="70.5938"/><text fill="#000000" font-family="sans-serif" font-size="14" lengthAdjust="spacing" textLength="75" x="381.5518" y="62.292">Destroyed</text><text fill="#000000" font-family="sans-serif" font-size="12" lengthAdjust="spacing" textLength="92" x="368.0518" y="86.7324">Enemy is dead.</text></g><!--link *start* to Idle--><g id="link_*start*_Idle"><path d="M318.0518,79.5899 C318.0518,96.1679 318.0518,125.3299 318.0518,149.1439 " fill="none" id="*start*-to-Idle" style="stroke:#181818;stroke-width:1.0;"/><polygon fill="#181818" points="318.0518,155.1439,322.0518,146.1439,318.0518,150.1439,314.0518,146.1439,318.0518,155.1439" style="stroke:#181818;stroke-width:1.0;"/></g><!--link Idle to Chasing--><g id="link_Idle_Chasing"><path d="M215.6178,205.3039 C201.9968,212.7519 189.7548,222.5109 181.0518,235.2969 C171.8228,248.8549 172.6538,261.6002 177.4168,276.2952 " fill="none" id="Idle-to-Chasing" style="stroke:#181818;stroke-width:1.0;"/><polygon fill="#181818" points="179.2668,282.0029,180.297,272.208,177.7252,277.2465,172.6867,274.6747,179.2668,282.0029" style="stroke:#181818;stroke-width:1.0;"/><text fill="#000000" font-family="sans-serif" font-size="13" lengthAdjust="spacing" textLength="92" x="182.0518" y="248.3638">detects player</text></g><!--link Chasing to Idle--><g id="link_Chasing_Idle"><path d="M240.0558,282.1689 C253.7778,273.9789 267.9248,263.9129 279.0518,252.2969 C291.9898,238.7889 299.5525,225.6261 306.1955,210.8361 " fill="none" id="Chasing-to-Idle" style="stroke:#181818;stroke-width:1.0;"/><polygon fill="#181818" points="308.6538,205.3629,301.3175,211.9339,306.6052,209.9239,308.6152,215.2117,308.6538,205.3629" style="stroke:#181818;stroke-width:1.0;"/><text fill="#000000" font-family="sans-serif" font-size="13" lengthAdjust="spacing" textLength="77" x="293.0518" y="248.3638">loses player</text></g><!--link Chasing to Attacking--><g id="link_Chasing_Attacking"><path d="M43.2681,332.3749 C18.8488,342.8799 6,357.8899 22.0516,379.2969 C30.8834,391.0749 49.7339,399.491 78.2445,407.624 " fill="none" id="Chasing-to-Attacking" style="stroke:#181818;stroke-width:1.0;"/><polygon fill="#181818" points="84.0143,409.2699,76.4569,402.9544,79.2061,407.8983,74.2623,410.6476,84.0143,409.2699" style="stroke:#181818;stroke-width:1.0;"/><text fill="#000000" font-family="sans-serif" font-size="13" lengthAdjust="spacing" textLength="140" x="23.0516" y="375.3638">player in attack range</text></g><!--link Attacking to Chasing--><g id="link_Attacking_Chasing"><path d="M203.7838,409.2699 C200.7768,387.1579 197.1483,360.4782 194.1383,338.3432 " fill="none" id="Attacking-to-Chasing" style="stroke:#181818;stroke-width:1.0;"/><polygon fill="#181818" points="193.3298,332.3979,190.579,341.8548,194.0035,337.3523,198.506,340.7768,193.3298,332.3979" style="stroke:#181818;stroke-width:1.0;"/><text fill="#000000" font-family="sans-serif" font-size="13" lengthAdjust="spacing" textLength="171" x="201.0518" y="375.3638">player moves out of range</text></g><!--link Attacking to Damaged--><g id="link_Attacking_Damaged"><path d="M232.1168,459.3979 C255.1368,481.5329 284.743,509.9991 307.738,532.1111 " fill="none" id="Attacking-to-Damaged" style="stroke:#181818;stroke-width:1.0;"/><polygon fill="#181818" points="312.0628,536.2699,308.3481,527.1484,308.4588,532.8042,302.803,532.9149,312.0628,536.2699" style="stroke:#181818;stroke-width:1.0;"/><text fill="#000000" font-family="sans-serif" font-size="13" lengthAdjust="spacing" textLength="92" x="281.0518" y="502.3638">takes damage</text></g><!--link Damaged to Idle--><g id="link_Damaged_Idle"><path d="M363.1398,536.2919 C370.7378,527.6599 378.0638,517.3129 382.0518,506.2969 C423.0568,393.0399 429.3708,344.7349 379.0518,235.2969 C373.7338,223.7319 369.1651,217.536 359.5761,209.29 " fill="none" id="Damaged-to-Idle" style="stroke:#181818;stroke-width:1.0;"/><polygon fill="#181818" points="355.0268,205.3779,359.2426,214.2788,358.8179,208.6379,364.4587,208.2132,355.0268,205.3779" style="stroke:#181818;stroke-width:1.0;"/><text fill="#000000" font-family="sans-serif" font-size="13" lengthAdjust="spacing" textLength="111" x="415.0518" y="375.3638">survives damage</text></g><!--link Damaged to Dead--><g id="link_Damaged_Dead"><path d="M337.0518,586.3979 C337.0518,608.5329 337.0518,635.1584 337.0518,657.2696 " fill="none" id="Damaged-to-Dead" style="stroke:#181818;stroke-width:1.0;"/><polygon fill="#181818" points="337.0518,663.2696,341.0518,654.2696,337.0518,658.2696,333.0518,654.2696,337.0518,663.2696" style="stroke:#181818;stroke-width:1.0;"/><text fill="#000000" font-family="sans-serif" font-size="13" lengthAdjust="spacing" textLength="84" x="338.0518" y="629.3638">HP reaches 0</text></g><!--SRC=[RP11QyCm38Nl_XKw3nfwpc5Gri5w60ns73s8M4rC4xdOIi3_VhPhDodqOf3rwKdlYP6Hu9Df2l0hA0JVs0s6IQc_jpFiTkzmqYEfzEJgOq1lk8SMD0bruk4sOY2dQYD11n7ihdVitWR3WFaN779FQaMULGi-sOKys5d0Nih4Ta4-fuNHUdeSyAnun0bxqX4Il4P8vrhLxus8dzrYbjV8aJ19VFs0evXBXFOgPz6Mp8m7jWB4VPv9BZa0Tc8M8w6fHrSyLYMt2Cj0rIwoJbAtsVavEOYjgLaTRRR53JcEF88FowjMKmriTwOCk1YC07bnDgo8ILUXRlu1]--></g></svg>