<?xml version="1.0" encoding="us-ascii" standalone="no"?><svg xmlns="http://www.w3.org/2000/svg" xmlns:xlink="http://www.w3.org/1999/xlink" contentStyleType="text/css" height="692px" preserveAspectRatio="none" style="width:509px;height:692px;background:#FFFFFF;" version="1.1" viewBox="0 0 509 692" width="509px" zoomAndPan="magnify"><defs/><g><text fill="#000000" font-family="sans-serif" font-size="14" font-weight="bold" lengthAdjust="spacing" textLength="168" x="163.75" y="22.9951">Enemy State Machine</text><ellipse cx="317.5" cy="69.4269" fill="#222222" rx="10" ry="10" style="stroke:#222222;stroke-width:1.0;"/><g id="Idle"><rect fill="#F1F1F1" height="50.2656" rx="12.5" ry="12.5" style="stroke:#181818;stroke-width:0.5;" width="252" x="191.5" y="155.5669"/><line style="stroke:#181818;stroke-width:0.5;" x1="191.5" x2="443.5" y1="181.8638" y2="181.8638"/><text fill="#000000" font-family="sans-serif" font-size="14" lengthAdjust="spacing" textLength="24" x="305.5" y="173.562">Idle</text><text fill="#000000" font-family="sans-serif" font-size="12" lengthAdjust="spacing" textLength="232" x="196.5" y="198.0024">Enemy is not engaged in any activity.</text></g><g id="Chasing"><rect fill="#F1F1F1" height="50.2656" rx="12.5" ry="12.5" style="stroke:#181818;stroke-width:0.5;" width="357" x="7" y="282.8269"/><line style="stroke:#181818;stroke-width:0.5;" x1="7" x2="364" y1="309.1238" y2="309.1238"/><text fill="#000000" font-family="sans-serif" font-size="14" lengthAdjust="spacing" textLength="56" x="157.5" y="300.822">Chasing</text><text fill="#000000" font-family="sans-serif" font-size="12" lengthAdjust="spacing" textLength="337" x="12" y="325.2624">Enemy has detected the player and is pursuing them.</text></g><g id="Attacking"><rect fill="#F1F1F1" height="50.2656" rx="12.5" ry="12.5" style="stroke:#181818;stroke-width:0.5;" width="293" x="62" y="410.0969"/><line style="stroke:#181818;stroke-width:0.5;" x1="62" x2="355" y1="436.3938" y2="436.3938"/><text fill="#000000" font-family="sans-serif" font-size="14" lengthAdjust="spacing" textLength="64" x="176.5" y="428.092">Attacking</text><text fill="#000000" font-family="sans-serif" font-size="12" lengthAdjust="spacing" textLength="273" x="67" y="452.5324">Enemy is in range and attacking the player.</text></g><g id="Damaged"><rect fill="#F1F1F1" height="50.2656" rx="12.5" ry="12.5" style="stroke:#181818;stroke-width:0.5;" width="187" x="220" y="537.3569"/><line style="stroke:#181818;stroke-width:0.5;" x1="220" x2="407" y1="563.6538" y2="563.6538"/><text fill="#000000" font-family="sans-serif" font-size="14" lengthAdjust="spacing" textLength="67" x="280" y="555.352">Damaged</text><text fill="#000000" font-family="sans-serif" font-size="12" lengthAdjust="spacing" textLength="167" x="225" y="579.7924">Enemy has taken damage.</text></g><ellipse cx="313.5" cy="675.6269" fill="none" rx="11" ry="11" style="stroke:#222222;stroke-width:1.0;"/><ellipse cx="313.5" cy="675.6269" fill="#222222" rx="6" ry="6" style="stroke:#222222;stroke-width:1.0;"/><g id="Destroyed"><rect fill="#F1F1F1" height="50.2656" rx="12.5" ry="12.5" style="stroke:#181818;stroke-width:0.5;" width="115" x="363" y="44.2969"/><line style="stroke:#181818;stroke-width:0.5;" x1="363" x2="478" y1="70.5938" y2="70.5938"/><text fill="#000000" font-family="sans-serif" font-size="14" lengthAdjust="spacing" textLength="72" x="384.5" y="62.292">Destroyed</text><text fill="#000000" font-family="sans-serif" font-size="12" lengthAdjust="spacing" textLength="95" x="368" y="86.7324">Enemy is dead.</text></g><!--link *start* to Idle--><g id="link_*start*_Idle"><path d="M317.5,79.7469 C317.5,96.3669 317.5,125.6169 317.5,149.4869 " fill="none" id="*start*-to-Idle" style="stroke:#181818;stroke-width:1.0;"/><polygon fill="#181818" points="317.5,155.4869,321.5,146.4869,317.5,150.4869,313.5,146.4869,317.5,155.4869" style="stroke:#181818;stroke-width:1.0;"/></g><!--link Idle to Chasing--><g id="link_Idle_Chasing"><path d="M215.13,206.2969 C201.88,213.6969 189.99,223.3169 181.5,235.8269 C172.34,249.3469 172.3235,261.9846 175.7735,276.7346 " fill="none" id="Idle-to-Chasing" style="stroke:#181818;stroke-width:1.0;"/><polygon fill="#181818" points="177.14,282.5769,178.9851,272.9024,176.0012,277.7083,171.1954,274.7244,177.14,282.5769" style="stroke:#181818;stroke-width:1.0;"/><text fill="#000000" font-family="sans-serif" font-size="13" lengthAdjust="spacing" textLength="91" x="182.5" y="248.8938">detects player</text></g><!--link Chasing to Idle--><g id="link_Chasing_Idle"><path d="M238.75,282.5569 C252.78,274.4469 267.16,264.4669 278.5,252.8269 C291.48,239.5169 298.9918,226.4947 305.6018,211.7047 " fill="none" id="Chasing-to-Idle" style="stroke:#181818;stroke-width:1.0;"/><polygon fill="#181818" points="308.05,206.2269,300.7259,212.8115,306.0099,210.7917,308.0296,216.0757,308.05,206.2269" style="stroke:#181818;stroke-width:1.0;"/><text fill="#000000" font-family="sans-serif" font-size="13" lengthAdjust="spacing" textLength="76" x="292.5" y="248.8938">loses player</text></g><!--link Chasing to Attacking--><g id="link_Chasing_Attacking"><path d="M45.97,333.5669 C21.76,344.1169 8.76,359.0569 24.5,380.0969 C33.13,391.6269 51.1694,399.8689 78.9094,407.9489 " fill="none" id="Chasing-to-Attacking" style="stroke:#181818;stroke-width:1.0;"/><polygon fill="#181818" points="84.67,409.6269,77.1477,403.2696,79.8695,408.2286,74.9105,410.9504,84.67,409.6269" style="stroke:#181818;stroke-width:1.0;"/><text fill="#000000" font-family="sans-serif" font-size="13" lengthAdjust="spacing" textLength="139" x="25.5" y="376.1638">player in attack range</text></g><!--link Attacking to Chasing--><g id="link_Attacking_Chasing"><path d="M204.02,409.8369 C199.97,387.7869 195.123,361.3883 191.073,339.3183 " fill="none" id="Attacking-to-Chasing" style="stroke:#181818;stroke-width:1.0;"/><polygon fill="#181818" points="189.99,333.4169,187.6801,342.991,190.8925,338.3348,195.5487,341.5471,189.99,333.4169" style="stroke:#181818;stroke-width:1.0;"/><text fill="#000000" font-family="sans-serif" font-size="13" lengthAdjust="spacing" textLength="168" x="199.5" y="376.1638">player moves out of range</text></g><!--link Attacking to Damaged--><g id="link_Attacking_Damaged"><path d="M228.99,460.6769 C247.5,482.7469 270.7148,510.4594 289.2048,532.5094 " fill="none" id="Attacking-to-Damaged" style="stroke:#181818;stroke-width:1.0;"/><polygon fill="#181818" points="293.06,537.1069,290.3422,527.6404,289.8473,533.2756,284.2121,532.7808,293.06,537.1069" style="stroke:#181818;stroke-width:1.0;"/><text fill="#000000" font-family="sans-serif" font-size="13" lengthAdjust="spacing" textLength="92" x="268.5" y="503.4238">takes damage</text></g><!--link Damaged to Idle--><g id="link_Damaged_Idle"><path d="M346.83,536.9269 C355.73,528.5869 364.31,518.5169 369.5,507.3569 C411.66,416.7569 385.74,382.6769 381.5,282.8269 C380.61,261.8869 386.82,254.6069 377.5,235.8269 C371.89,224.5169 367.3066,218.4381 357.8866,210.1581 " fill="none" id="Damaged-to-Idle" style="stroke:#181818;stroke-width:1.0;"/><polygon fill="#181818" points="353.38,206.1969,357.4991,215.143,357.1355,209.4979,362.7806,209.1343,353.38,206.1969" style="stroke:#181818;stroke-width:1.0;"/><text fill="#000000" font-family="sans-serif" font-size="13" lengthAdjust="spacing" textLength="109" x="392.5" y="376.1638">survives damage</text></g><!--link Damaged to *end*--><g id="link_Damaged_*end*"><path d="M313.5,587.8869 C313.5,611.7769 313.5,641.0469 313.5,658.3269 " fill="none" id="Damaged-to-*end*" style="stroke:#181818;stroke-width:1.0;"/><polygon fill="#181818" points="313.5,664.3269,317.5,655.3269,313.5,659.3269,309.5,655.3269,313.5,664.3269" style="stroke:#181818;stroke-width:1.0;"/><text fill="#000000" font-family="sans-serif" font-size="13" lengthAdjust="spacing" textLength="85" x="314.5" y="630.6938">HP reaches 0</text></g><!--SRC=[RP11QyCm38Nl_XKw3nfspg4mji5s61HwB3s8M4rC4xdOIi3_VhPhDodqOf3rINhlYP6Hu9jf2d0K588_x0R3fDJfxGoxtHv-zKWgFRdw7D0Rxg45JKATUBYD6CYfsaZGXmXsrpjsRuDXmFmB3hadjIBFMmi-sOKys5d0Nih4za2Mqy9eFJq4F6_ymWbxqX4Il4P8vrhLxyqIFxl5BA-Hb44BFmTm56E9pBlAKRGbCkE1hG1ndqUIIGw0dPZ5I6Ygveh7giGMOHcekaNMQTLjTdvE1c9hQbP3cslnGauZZ-33yRghgVgtDrC4NFn5WBmu6rR495Mecty0]--></g></svg>