<?xml version="1.0" encoding="us-ascii" standalone="no"?><svg xmlns="http://www.w3.org/2000/svg" xmlns:xlink="http://www.w3.org/1999/xlink" contentStyleType="text/css" height="364px" preserveAspectRatio="none" style="width:1452px;height:364px;background:#FFFFFF;" version="1.1" viewBox="0 0 1452 364" width="1452px" zoomAndPan="magnify"><defs/><g><!--cluster Enemy--><g id="cluster_Enemy"><rect fill="none" height="180" rx="2.5" ry="2.5" style="stroke:#181818;stroke-width:1.0;" width="586" x="7" y="169.5"/><rect fill="none" height="10" style="stroke:#181818;stroke-width:1.0;" width="15" x="573" y="174.5"/><rect fill="none" height="2" style="stroke:#181818;stroke-width:1.0;" width="4" x="571" y="176.5"/><rect fill="none" height="2" style="stroke:#181818;stroke-width:1.0;" width="4" x="571" y="180.5"/><text fill="#000000" font-family="sans-serif" font-size="14" font-weight="bold" lengthAdjust="spacing" textLength="52" x="274" y="195.4951">Enemy</text></g><!--cluster AI--><g id="cluster_AI"><rect fill="none" height="197" rx="2.5" ry="2.5" style="stroke:#181818;stroke-width:1.0;" width="829" x="617" y="161"/><rect fill="none" height="10" style="stroke:#181818;stroke-width:1.0;" width="15" x="1426" y="166"/><rect fill="none" height="2" style="stroke:#181818;stroke-width:1.0;" width="4" x="1424" y="168"/><rect fill="none" height="2" style="stroke:#181818;stroke-width:1.0;" width="4" x="1424" y="172"/><text fill="#000000" font-family="sans-serif" font-size="14" font-weight="bold" lengthAdjust="spacing" textLength="16" x="1023.5" y="186.9951">AI</text></g><!--entity Common--><g id="elem_Common"><rect fill="#F1F1F1" height="46.2969" rx="2.5" ry="2.5" style="stroke:#181818;stroke-width:0.5;" width="105" x="429.5" y="7"/><rect fill="#F1F1F1" height="10" style="stroke:#181818;stroke-width:0.5;" width="15" x="514.5" y="12"/><rect fill="#F1F1F1" height="2" style="stroke:#181818;stroke-width:0.5;" width="4" x="512.5" y="14"/><rect fill="#F1F1F1" height="2" style="stroke:#181818;stroke-width:0.5;" width="4" x="512.5" y="18"/><text fill="#000000" font-family="sans-serif" font-size="14" lengthAdjust="spacing" textLength="65" x="444.5" y="39.9951">Common</text></g><!--class Enemy--><g id="elem_Enemy"><rect codeLine="5" fill="#F1F1F1" height="48" id="Enemy" rx="2.5" ry="2.5" style="stroke:#181818;stroke-width:0.5;" width="81" x="23.5" y="245"/><ellipse cx="38.5" cy="261" fill="#ADD1B2" rx="11" ry="11" style="stroke:#181818;stroke-width:1.0;"/><path d="M40.8438,256.6719 C39.9063,256.2344 39.3125,256.0938 38.4375,256.0938 C35.8125,256.0938 33.8125,258.1719 33.8125,260.8906 L33.8125,262.0156 C33.8125,264.5938 35.9219,266.4844 38.8125,266.4844 C40.0313,266.4844 41.1875,266.1875 41.9375,265.6406 C42.5156,265.2344 42.8438,264.7813 42.8438,264.3906 C42.8438,263.9375 42.4531,263.5469 41.9844,263.5469 C41.7656,263.5469 41.5625,263.625 41.375,263.8125 C40.9219,264.2969 40.9219,264.2969 40.7344,264.3906 C40.3125,264.6563 39.625,264.7813 38.8594,264.7813 C36.8125,264.7813 35.5156,263.6875 35.5156,261.9844 L35.5156,260.8906 C35.5156,259.1094 36.7656,257.7969 38.5,257.7969 C39.0781,257.7969 39.6875,257.9531 40.1563,258.2031 C40.6406,258.4844 40.8125,258.7031 40.9063,259.1094 C40.9688,259.5156 41,259.6406 41.1406,259.7656 C41.2813,259.9063 41.5156,260.0156 41.7344,260.0156 C42,260.0156 42.2656,259.875 42.4375,259.6563 C42.5469,259.5 42.5781,259.3125 42.5781,258.8906 L42.5781,257.4688 C42.5781,257.0313 42.5625,256.9063 42.4688,256.75 C42.3125,256.4844 42.0313,256.3438 41.7344,256.3438 C41.4375,256.3438 41.2344,256.4375 41.0156,256.75 L40.8438,256.6719 Z " fill="#000000"/><text fill="#000000" font-family="sans-serif" font-size="14" lengthAdjust="spacing" textLength="49" x="52.5" y="265.8467">Enemy</text><line style="stroke:#181818;stroke-width:0.5;" x1="24.5" x2="103.5" y1="277" y2="277"/><line style="stroke:#181818;stroke-width:0.5;" x1="24.5" x2="103.5" y1="285" y2="285"/></g><!--class EnemyControlSystem--><g id="elem_EnemyControlSystem"><rect codeLine="8" fill="#F1F1F1" height="129.4844" id="EnemyControlSystem" rx="2.5" ry="2.5" style="stroke:#181818;stroke-width:0.5;" width="212" x="140" y="204.5"/><ellipse cx="165.35" cy="220.5" fill="#ADD1B2" rx="11" ry="11" style="stroke:#181818;stroke-width:1.0;"/><path d="M167.6938,216.1719 C166.7563,215.7344 166.1625,215.5938 165.2875,215.5938 C162.6625,215.5938 160.6625,217.6719 160.6625,220.3906 L160.6625,221.5156 C160.6625,224.0938 162.7719,225.9844 165.6625,225.9844 C166.8813,225.9844 168.0375,225.6875 168.7875,225.1406 C169.3656,224.7344 169.6938,224.2813 169.6938,223.8906 C169.6938,223.4375 169.3031,223.0469 168.8344,223.0469 C168.6156,223.0469 168.4125,223.125 168.225,223.3125 C167.7719,223.7969 167.7719,223.7969 167.5844,223.8906 C167.1625,224.1563 166.475,224.2813 165.7094,224.2813 C163.6625,224.2813 162.3656,223.1875 162.3656,221.4844 L162.3656,220.3906 C162.3656,218.6094 163.6156,217.2969 165.35,217.2969 C165.9281,217.2969 166.5375,217.4531 167.0063,217.7031 C167.4906,217.9844 167.6625,218.2031 167.7563,218.6094 C167.8188,219.0156 167.85,219.1406 167.9906,219.2656 C168.1313,219.4063 168.3656,219.5156 168.5844,219.5156 C168.85,219.5156 169.1156,219.375 169.2875,219.1563 C169.3969,219 169.4281,218.8125 169.4281,218.3906 L169.4281,216.9688 C169.4281,216.5313 169.4125,216.4063 169.3188,216.25 C169.1625,215.9844 168.8813,215.8438 168.5844,215.8438 C168.2875,215.8438 168.0844,215.9375 167.8656,216.25 L167.6938,216.1719 Z " fill="#000000"/><text fill="#000000" font-family="sans-serif" font-size="14" lengthAdjust="spacing" textLength="157" x="181.65" y="225.3467">EnemyControlSystem</text><line style="stroke:#181818;stroke-width:0.5;" x1="141" x2="351" y1="236.5" y2="236.5"/><rect fill="none" height="6" style="stroke:#C82930;stroke-width:1.0;" width="6" x="148" y="247.1484"/><text fill="#000000" font-family="sans-serif" font-size="14" lengthAdjust="spacing" textLength="145" x="160" y="253.4951">weapons: IWeapon[]</text><line style="stroke:#181818;stroke-width:0.5;" x1="141" x2="351" y1="260.7969" y2="260.7969"/><ellipse cx="151" cy="274.4453" fill="#84BE84" rx="3" ry="3" style="stroke:#038048;stroke-width:1.0;"/><text fill="#000000" font-family="sans-serif" font-size="14" lengthAdjust="spacing" textLength="108" x="160" y="277.792">placeWeapon()</text><ellipse cx="151" cy="290.7422" fill="#84BE84" rx="3" ry="3" style="stroke:#038048;stroke-width:1.0;"/><text fill="#000000" font-family="sans-serif" font-size="14" lengthAdjust="spacing" textLength="186" x="160" y="294.0889">takeDamage(amount: int)</text><ellipse cx="151" cy="307.0391" fill="#84BE84" rx="3" ry="3" style="stroke:#038048;stroke-width:1.0;"/><text fill="#000000" font-family="sans-serif" font-size="14" lengthAdjust="spacing" textLength="66" x="160" y="310.3857">process()</text><ellipse cx="151" cy="323.3359" fill="#84BE84" rx="3" ry="3" style="stroke:#038048;stroke-width:1.0;"/><text fill="#000000" font-family="sans-serif" font-size="14" lengthAdjust="spacing" textLength="164" x="160" y="326.6826">move(direction: Enum)</text></g><!--class EnemyPlugin--><g id="elem_EnemyPlugin"><rect codeLine="16" fill="#F1F1F1" height="113.1875" id="EnemyPlugin" rx="2.5" ry="2.5" style="stroke:#181818;stroke-width:0.5;" width="190" x="387" y="212.5"/><ellipse cx="431.75" cy="228.5" fill="#ADD1B2" rx="11" ry="11" style="stroke:#181818;stroke-width:1.0;"/><path d="M434.0938,224.1719 C433.1563,223.7344 432.5625,223.5938 431.6875,223.5938 C429.0625,223.5938 427.0625,225.6719 427.0625,228.3906 L427.0625,229.5156 C427.0625,232.0938 429.1719,233.9844 432.0625,233.9844 C433.2813,233.9844 434.4375,233.6875 435.1875,233.1406 C435.7656,232.7344 436.0938,232.2813 436.0938,231.8906 C436.0938,231.4375 435.7031,231.0469 435.2344,231.0469 C435.0156,231.0469 434.8125,231.125 434.625,231.3125 C434.1719,231.7969 434.1719,231.7969 433.9844,231.8906 C433.5625,232.1563 432.875,232.2813 432.1094,232.2813 C430.0625,232.2813 428.7656,231.1875 428.7656,229.4844 L428.7656,228.3906 C428.7656,226.6094 430.0156,225.2969 431.75,225.2969 C432.3281,225.2969 432.9375,225.4531 433.4063,225.7031 C433.8906,225.9844 434.0625,226.2031 434.1563,226.6094 C434.2188,227.0156 434.25,227.1406 434.3906,227.2656 C434.5313,227.4063 434.7656,227.5156 434.9844,227.5156 C435.25,227.5156 435.5156,227.375 435.6875,227.1563 C435.7969,227 435.8281,226.8125 435.8281,226.3906 L435.8281,224.9688 C435.8281,224.5313 435.8125,224.4063 435.7188,224.25 C435.5625,223.9844 435.2813,223.8438 434.9844,223.8438 C434.6875,223.8438 434.4844,223.9375 434.2656,224.25 L434.0938,224.1719 Z " fill="#000000"/><text fill="#000000" font-family="sans-serif" font-size="14" lengthAdjust="spacing" textLength="92" x="452.25" y="233.3467">EnemyPlugin</text><line style="stroke:#181818;stroke-width:0.5;" x1="388" x2="576" y1="244.5" y2="244.5"/><rect fill="none" height="6" style="stroke:#C82930;stroke-width:1.0;" width="6" x="395" y="255.1484"/><text fill="#000000" font-family="sans-serif" font-size="14" lengthAdjust="spacing" textLength="102" x="407" y="261.4951">Enemy: Entity</text><line style="stroke:#181818;stroke-width:0.5;" x1="388" x2="576" y1="268.7969" y2="268.7969"/><ellipse cx="398" cy="282.4453" fill="#84BE84" rx="3" ry="3" style="stroke:#038048;stroke-width:1.0;"/><text fill="#000000" font-family="sans-serif" font-size="14" lengthAdjust="spacing" textLength="164" x="407" y="285.792">createEnemy(): Enemy</text><ellipse cx="398" cy="298.7422" fill="#84BE84" rx="3" ry="3" style="stroke:#038048;stroke-width:1.0;"/><text fill="#000000" font-family="sans-serif" font-size="14" lengthAdjust="spacing" textLength="45" x="407" y="302.0889">start()</text><ellipse cx="398" cy="315.0391" fill="#84BE84" rx="3" ry="3" style="stroke:#038048;stroke-width:1.0;"/><text fill="#000000" font-family="sans-serif" font-size="14" lengthAdjust="spacing" textLength="43" x="407" y="318.3857">stop()</text></g><!--class PathFinding--><g id="elem_PathFinding"><rect codeLine="31" fill="#F1F1F1" height="145.7813" id="PathFinding" rx="2.5" ry="2.5" style="stroke:#181818;stroke-width:0.5;" width="297" x="857.5" y="196"/><ellipse cx="959.25" cy="212" fill="#ADD1B2" rx="11" ry="11" style="stroke:#181818;stroke-width:1.0;"/><path d="M961.5938,207.6719 C960.6563,207.2344 960.0625,207.0938 959.1875,207.0938 C956.5625,207.0938 954.5625,209.1719 954.5625,211.8906 L954.5625,213.0156 C954.5625,215.5938 956.6719,217.4844 959.5625,217.4844 C960.7813,217.4844 961.9375,217.1875 962.6875,216.6406 C963.2656,216.2344 963.5938,215.7813 963.5938,215.3906 C963.5938,214.9375 963.2031,214.5469 962.7344,214.5469 C962.5156,214.5469 962.3125,214.625 962.125,214.8125 C961.6719,215.2969 961.6719,215.2969 961.4844,215.3906 C961.0625,215.6563 960.375,215.7813 959.6094,215.7813 C957.5625,215.7813 956.2656,214.6875 956.2656,212.9844 L956.2656,211.8906 C956.2656,210.1094 957.5156,208.7969 959.25,208.7969 C959.8281,208.7969 960.4375,208.9531 960.9063,209.2031 C961.3906,209.4844 961.5625,209.7031 961.6563,210.1094 C961.7188,210.5156 961.75,210.6406 961.8906,210.7656 C962.0313,210.9063 962.2656,211.0156 962.4844,211.0156 C962.75,211.0156 963.0156,210.875 963.1875,210.6563 C963.2969,210.5 963.3281,210.3125 963.3281,209.8906 L963.3281,208.4688 C963.3281,208.0313 963.3125,207.9063 963.2188,207.75 C963.0625,207.4844 962.7813,207.3438 962.4844,207.3438 C962.1875,207.3438 961.9844,207.4375 961.7656,207.75 L961.5938,207.6719 Z " fill="#000000"/><text fill="#000000" font-family="sans-serif" font-size="14" lengthAdjust="spacing" textLength="85" x="979.75" y="216.8467">PathFinding</text><line style="stroke:#181818;stroke-width:0.5;" x1="858.5" x2="1153.5" y1="228" y2="228"/><rect fill="none" height="6" style="stroke:#C82930;stroke-width:1.0;" width="6" x="865.5" y="238.6484"/><text fill="#000000" font-family="sans-serif" font-size="14" lengthAdjust="spacing" textLength="101" x="877.5" y="244.9951">Int costValues</text><rect fill="none" height="6" style="stroke:#C82930;stroke-width:1.0;" width="6" x="865.5" y="254.9453"/><text fill="#000000" font-family="sans-serif" font-size="14" lengthAdjust="spacing" textLength="70" x="877.5" y="261.292">IMap map</text><line style="stroke:#181818;stroke-width:0.5;" x1="858.5" x2="1153.5" y1="268.5938" y2="268.5938"/><ellipse cx="868.5" cy="282.2422" fill="#84BE84" rx="3" ry="3" style="stroke:#038048;stroke-width:1.0;"/><text fill="#000000" font-family="sans-serif" font-size="14" lengthAdjust="spacing" textLength="271" x="877.5" y="285.5889">calculatePathToPlayer(player : entity)</text><ellipse cx="868.5" cy="298.5391" fill="#84BE84" rx="3" ry="3" style="stroke:#038048;stroke-width:1.0;"/><text fill="#000000" font-family="sans-serif" font-size="14" lengthAdjust="spacing" textLength="195" x="877.5" y="301.8857">aStar(startNode, goalNode)</text><ellipse cx="868.5" cy="314.8359" fill="#84BE84" rx="3" ry="3" style="stroke:#038048;stroke-width:1.0;"/><text fill="#000000" font-family="sans-serif" font-size="14" lengthAdjust="spacing" textLength="137" x="877.5" y="318.1826">calculateHeuristic()</text><ellipse cx="868.5" cy="331.1328" fill="#84BE84" rx="3" ry="3" style="stroke:#038048;stroke-width:1.0;"/><text fill="#000000" font-family="sans-serif" font-size="14" lengthAdjust="spacing" textLength="221" x="877.5" y="334.4795">reconstructPath(Node current)</text></g><!--class BombPlacing--><g id="elem_BombPlacing"><rect codeLine="41" fill="#F1F1F1" height="80.5938" id="BombPlacing" rx="2.5" ry="2.5" style="stroke:#181818;stroke-width:0.5;" width="240" x="1190" y="228.5"/><ellipse cx="1258.75" cy="244.5" fill="#ADD1B2" rx="11" ry="11" style="stroke:#181818;stroke-width:1.0;"/><path d="M1261.0938,240.1719 C1260.1563,239.7344 1259.5625,239.5938 1258.6875,239.5938 C1256.0625,239.5938 1254.0625,241.6719 1254.0625,244.3906 L1254.0625,245.5156 C1254.0625,248.0938 1256.1719,249.9844 1259.0625,249.9844 C1260.2813,249.9844 1261.4375,249.6875 1262.1875,249.1406 C1262.7656,248.7344 1263.0938,248.2813 1263.0938,247.8906 C1263.0938,247.4375 1262.7031,247.0469 1262.2344,247.0469 C1262.0156,247.0469 1261.8125,247.125 1261.625,247.3125 C1261.1719,247.7969 1261.1719,247.7969 1260.9844,247.8906 C1260.5625,248.1563 1259.875,248.2813 1259.1094,248.2813 C1257.0625,248.2813 1255.7656,247.1875 1255.7656,245.4844 L1255.7656,244.3906 C1255.7656,242.6094 1257.0156,241.2969 1258.75,241.2969 C1259.3281,241.2969 1259.9375,241.4531 1260.4063,241.7031 C1260.8906,241.9844 1261.0625,242.2031 1261.1563,242.6094 C1261.2188,243.0156 1261.25,243.1406 1261.3906,243.2656 C1261.5313,243.4063 1261.7656,243.5156 1261.9844,243.5156 C1262.25,243.5156 1262.5156,243.375 1262.6875,243.1563 C1262.7969,243 1262.8281,242.8125 1262.8281,242.3906 L1262.8281,240.9688 C1262.8281,240.5313 1262.8125,240.4063 1262.7188,240.25 C1262.5625,239.9844 1262.2813,239.8438 1261.9844,239.8438 C1261.6875,239.8438 1261.4844,239.9375 1261.2656,240.25 L1261.0938,240.1719 Z " fill="#000000"/><text fill="#000000" font-family="sans-serif" font-size="14" lengthAdjust="spacing" textLength="94" x="1279.25" y="249.3467">BombPlacing</text><line style="stroke:#181818;stroke-width:0.5;" x1="1191" x2="1429" y1="260.5" y2="260.5"/><rect fill="none" height="6" style="stroke:#C82930;stroke-width:1.0;" width="6" x="1198" y="271.1484"/><text fill="#000000" font-family="sans-serif" font-size="14" lengthAdjust="spacing" textLength="213" x="1210" y="277.4951">IWeapon[] placeableWeapons</text><line style="stroke:#181818;stroke-width:0.5;" x1="1191" x2="1429" y1="284.7969" y2="284.7969"/><ellipse cx="1201" cy="298.4453" fill="#84BE84" rx="3" ry="3" style="stroke:#038048;stroke-width:1.0;"/><text fill="#000000" font-family="sans-serif" font-size="14" lengthAdjust="spacing" textLength="214" x="1210" y="301.792">calculateOptimalPlacement())</text></g><!--class IPathFindingAndBomb--><g id="elem_IPathFindingAndBomb"><rect codeLine="46" fill="#F1F1F1" height="80.5938" id="IPathFindingAndBomb" rx="2.5" ry="2.5" style="stroke:#181818;stroke-width:0.5;" width="189" x="633.5" y="228.5"/><ellipse cx="648.5" cy="244.5" fill="#B4A7E5" rx="11" ry="11" style="stroke:#181818;stroke-width:1.0;"/><path d="M649.4531,241.2813 L651.1719,241.2813 C651.5625,241.2813 651.75,241.25 651.875,241.1719 C652.1406,241.0156 652.2813,240.7344 652.2813,240.4375 C652.2813,240.1719 652.1719,239.9063 651.9375,239.7344 C651.7656,239.625 651.625,239.5938 651.1719,239.5938 L646.0313,239.5938 C645.5938,239.5938 645.4688,239.6094 645.3125,239.7031 C645.0625,239.8594 644.9063,240.1563 644.9063,240.4375 C644.9063,240.7188 645.0469,240.9688 645.2656,241.1406 C645.4219,241.25 645.6094,241.2813 646.0313,241.2813 L647.75,241.2813 L647.75,247.7969 L646.0313,247.7969 C645.5938,247.7969 645.4688,247.8125 645.3125,247.9219 C645.0625,248.0781 644.9063,248.3594 644.9063,248.6563 C644.9063,248.9063 645.0469,249.1719 645.2656,249.3281 C645.4219,249.4531 645.625,249.5 646.0313,249.5 L651.1719,249.5 C651.9219,249.5 652.2813,249.2188 652.2813,248.6563 C652.2813,248.375 652.1719,248.125 651.9375,247.9531 C651.7656,247.8281 651.625,247.7969 651.1719,247.7969 L649.4531,247.7969 L649.4531,241.2813 Z " fill="#000000"/><text fill="#000000" font-family="sans-serif" font-size="14" font-style="italic" lengthAdjust="spacing" textLength="157" x="662.5" y="249.3467">IPathFindingAndBomb</text><line style="stroke:#181818;stroke-width:0.5;" x1="634.5" x2="821.5" y1="260.5" y2="260.5"/><line style="stroke:#181818;stroke-width:0.5;" x1="634.5" x2="821.5" y1="268.5" y2="268.5"/><ellipse cx="644.5" cy="282.1484" fill="#84BE84" rx="3" ry="3" style="stroke:#038048;stroke-width:1.0;"/><text fill="#000000" font-family="sans-serif" font-size="14" lengthAdjust="spacing" textLength="74" x="653.5" y="285.4951">pathFind()</text><ellipse cx="644.5" cy="298.4453" fill="#84BE84" rx="3" ry="3" style="stroke:#038048;stroke-width:1.0;"/><text fill="#000000" font-family="sans-serif" font-size="14" lengthAdjust="spacing" textLength="130" x="653.5" y="301.792">bombPlacement()</text></g><!--reverse link Common to Enemy--><g id="link_Common_Enemy"><path codeLine="25" d="M411.3951,37.1806 C357.7111,42.9506 290.844,54.148 223,83 C172.74,104.374 157.846,111.793 122,153 C97.932,180.668 80.8977,220.083 71.7629,244.838 " fill="none" id="Common-backto-Enemy" style="stroke:#181818;stroke-width:1.0;"/><polygon fill="none" points="429.292,35.257,410.7539,31.2149,412.0363,43.1462,429.292,35.257" style="stroke:#181818;stroke-width:1.0;"/><text fill="#000000" font-family="sans-serif" font-size="13" lengthAdjust="spacing" textLength="37" x="224" y="118.5669">Entity</text></g><!--reverse link Common to EnemyControlSystem--><g id="link_Common_EnemyControlSystem"><path codeLine="26" d="M411.3121,36.4454 C373.0471,41.4174 340.402,51.649 308,83 C275.136,114.798 259.691,164.506 252.434,204.392 " fill="none" id="Common-backto-EnemyControlSystem" style="stroke:#181818;stroke-width:1.0;stroke-dasharray:7.0,7.0;"/><polygon fill="none" points="429.162,34.126,410.5389,30.4954,412.0852,42.3953,429.162,34.126" style="stroke:#181818;stroke-width:1.0;"/><text fill="#000000" font-family="sans-serif" font-size="13" lengthAdjust="spacing" textLength="37" x="370.5" y="96.0669">IActor</text><text fill="#000000" font-family="sans-serif" font-size="13" lengthAdjust="spacing" textLength="85" x="348.5" y="111.1997">IDamageable</text><text fill="#000000" font-family="sans-serif" font-size="13" lengthAdjust="spacing" textLength="156" x="313" y="126.3325">IEntityProcessingService</text><text fill="#000000" font-family="sans-serif" font-size="13" lengthAdjust="spacing" textLength="56" x="365" y="141.4653">IWeapon</text></g><!--reverse link Common to EnemyPlugin--><g id="link_Common_EnemyPlugin"><path codeLine="27" d="M482,71.296 C482,107.363 482,161.572 482,212.255 " fill="none" id="Common-backto-EnemyPlugin" style="stroke:#181818;stroke-width:1.0;stroke-dasharray:7.0,7.0;"/><polygon fill="none" points="482,53.296,476,71.296,488,71.296,482,53.296" style="stroke:#181818;stroke-width:1.0;"/><text fill="#000000" font-family="sans-serif" font-size="13" lengthAdjust="spacing" textLength="127" x="483" y="118.5669">IGamePluginService</text></g><!--reverse link Common to BombPlacing--><g id="link_Common_BombPlacing"><path codeLine="52" d="M552.8264,30.6635 C672.6244,31.6055 953.473,45.35 1172,153 C1210.05,171.743 1246.62,203.028 1272.54,228.239 " fill="none" id="Common-backto-BombPlacing" style="stroke:#181818;stroke-width:1.0;stroke-dasharray:7.0,7.0;"/><polygon fill="none" points="534.827,30.522,552.7793,36.6633,552.8736,24.6637,534.827,30.522" style="stroke:#181818;stroke-width:1.0;"/><text fill="#000000" font-family="sans-serif" font-size="13" lengthAdjust="spacing" textLength="37" x="1180" y="111.0669">IActor</text><text fill="#000000" font-family="sans-serif" font-size="13" lengthAdjust="spacing" textLength="85" x="1160" y="126.1997">IDamageable</text></g><!--reverse link Common to PathFinding--><g id="link_Common_PathFinding"><path codeLine="53" d="M552.2137,48.6172 C623.7097,67.3762 736.816,100.956 840,153 C864.103,165.157 888.725,180.405 911.373,195.785 " fill="none" id="Common-backto-PathFinding" style="stroke:#181818;stroke-width:1.0;stroke-dasharray:7.0,7.0;"/><polygon fill="none" points="534.803,44.049,550.6909,54.4207,553.7364,42.8136,534.803,44.049" style="stroke:#181818;stroke-width:1.0;"/><text fill="#000000" font-family="sans-serif" font-size="13" lengthAdjust="spacing" textLength="29" x="822" y="118.5669">IMap</text></g><!--SRC=[ZLDDRzGm4Btlh_2DHB3x0o8kQMbB3eML5i41ECnwXzIgFu8zAOfA_piJsucIHOl89V7C-CsRDo_IcSvPj2IkdJ7EYkVDosOZv-YDHJDmKF0ZDOImYd3fMUBQMV9E7uP0Q7BLLln2OBnGYUPB_FhwFIPUYqw3n1GhoXmZUCHtOA350ephBLL2MPgodNSIGvYhZNl2ugGyIbBELioYD-K5SdlTjyhEh69il46AXWmdFG9Xp1HbbKfoAX1ucli6SbqnDuhlyAXi1nwCEE3F7gt4UsRASzHQjLP8rXDzhCnQl_szpInsVtEPQtQxPSrAO1QqbkIy-6P5apI3eyPuJ53x99UoxG7zav8fbnJ_Lvia5UFVWS5qo01hVzJDqXjxe8TRPK_SRXAvuIBf0dq6tMEOWlVG2GFT93fesMlMVRp_oUqr3EYBBhv49J1EahH-PM0uehZpYAT1N66WxQtoWLXoyF8X0yA1TrN4XNrm9tmZMWTw_2hFExx7tgj0IiwBPIUnLSdtaaOwnNXDoDvxd4ouCjQLCqScB7dasLYpovE_nvMaI3Xl_x4ZPK2F06YuGL6kMgZHCJyu9vg5jBKzZLsVfpyYP-O9ZfbIHio0ulyjcchFp54tkyMibvntwUg2VXNNltdv0m00]--></g></svg>