<?xml version="1.0" encoding="us-ascii" standalone="no"?><svg xmlns="http://www.w3.org/2000/svg" xmlns:xlink="http://www.w3.org/1999/xlink" contentStyleType="text/css" height="340px" preserveAspectRatio="none" style="width:522px;height:340px;background:#FFFFFF;" version="1.1" viewBox="0 0 522 340" width="522px" zoomAndPan="magnify"><defs/><g><rect fill="#FFFFFF" height="228.7969" style="stroke:#181818;stroke-width:1.0;" width="10" x="231" y="67.4297"/><rect fill="#FFFFFF" height="155.5313" style="stroke:#181818;stroke-width:1.0;" width="10" x="388" y="131.6953"/><rect fill="#FFFFFF" height="82.2656" style="stroke:#181818;stroke-width:1.0;" width="10" x="393" y="168.8281"/><line style="stroke:#181818;stroke-width:0.5;stroke-dasharray:5.0,5.0;" x1="101" x2="101" y1="36.2969" y2="305.2266"/><line style="stroke:#181818;stroke-width:0.5;stroke-dasharray:5.0,5.0;" x1="236" x2="236" y1="36.2969" y2="305.2266"/><line style="stroke:#181818;stroke-width:0.5;stroke-dasharray:5.0,5.0;" x1="393" x2="393" y1="36.2969" y2="305.2266"/><rect fill="#E2E2F0" height="30.2969" rx="2.5" ry="2.5" style="stroke:#181818;stroke-width:0.5;" width="192" x="5" y="5"/><text fill="#000000" font-family="sans-serif" font-size="14" lengthAdjust="spacing" textLength="178" x="12" y="24.9951">IEntityProcessingService</text><rect fill="#E2E2F0" height="30.2969" rx="2.5" ry="2.5" style="stroke:#181818;stroke-width:0.5;" width="192" x="5" y="304.2266"/><text fill="#000000" font-family="sans-serif" font-size="14" lengthAdjust="spacing" textLength="178" x="12" y="324.2217">IEntityProcessingService</text><rect fill="#E2E2F0" height="30.2969" rx="2.5" ry="2.5" style="stroke:#181818;stroke-width:0.5;" width="58" x="207" y="5"/><text fill="#000000" font-family="sans-serif" font-size="14" lengthAdjust="spacing" textLength="44" x="214" y="24.9951">Player</text><rect fill="#E2E2F0" height="30.2969" rx="2.5" ry="2.5" style="stroke:#181818;stroke-width:0.5;" width="58" x="207" y="304.2266"/><text fill="#000000" font-family="sans-serif" font-size="14" lengthAdjust="spacing" textLength="44" x="214" y="324.2217">Player</text><rect fill="#E2E2F0" height="30.2969" rx="2.5" ry="2.5" style="stroke:#181818;stroke-width:0.5;" width="44" x="371" y="5"/><text fill="#000000" font-family="sans-serif" font-size="14" lengthAdjust="spacing" textLength="30" x="378" y="24.9951">Map</text><rect fill="#E2E2F0" height="30.2969" rx="2.5" ry="2.5" style="stroke:#181818;stroke-width:0.5;" width="44" x="371" y="304.2266"/><text fill="#000000" font-family="sans-serif" font-size="14" lengthAdjust="spacing" textLength="30" x="378" y="324.2217">Map</text><rect fill="#FFFFFF" height="228.7969" style="stroke:#181818;stroke-width:1.0;" width="10" x="231" y="67.4297"/><rect fill="#FFFFFF" height="155.5313" style="stroke:#181818;stroke-width:1.0;" width="10" x="388" y="131.6953"/><rect fill="#FFFFFF" height="82.2656" style="stroke:#181818;stroke-width:1.0;" width="10" x="393" y="168.8281"/><polygon fill="#181818" points="219,63.4297,229,67.4297,219,71.4297,223,67.4297" style="stroke:#181818;stroke-width:1.0;"/><line style="stroke:#181818;stroke-width:1.0;" x1="101" x2="225" y1="67.4297" y2="67.4297"/><text fill="#000000" font-family="sans-serif" font-size="13" lengthAdjust="spacing" textLength="50" x="108" y="62.3638">process</text><path d="M5,80.4297 L5,105.4297 L226,105.4297 L226,90.4297 L216,80.4297 L5,80.4297 " fill="#FEFFDD" style="stroke:#181818;stroke-width:0.5;"/><path d="M216,80.4297 L216,90.4297 L226,90.4297 L216,80.4297 " fill="#FEFFDD" style="stroke:#181818;stroke-width:0.5;"/><text fill="#000000" font-family="sans-serif" font-size="13" lengthAdjust="spacing" textLength="200" x="11" y="97.4966">Player has input for movement</text><polygon fill="#181818" points="376,127.6953,386,131.6953,376,135.6953,380,131.6953" style="stroke:#181818;stroke-width:1.0;"/><line style="stroke:#181818;stroke-width:1.0;" x1="241" x2="382" y1="131.6953" y2="131.6953"/><text fill="#000000" font-family="sans-serif" font-size="13" lengthAdjust="spacing" textLength="128" x="248" y="126.6294">isMovementAllowed</text><line style="stroke:#181818;stroke-width:1.0;" x1="398" x2="445" y1="155.8281" y2="155.8281"/><line style="stroke:#181818;stroke-width:1.0;" x1="445" x2="445" y1="155.8281" y2="168.8281"/><line style="stroke:#181818;stroke-width:1.0;" x1="404" x2="445" y1="168.8281" y2="168.8281"/><polygon fill="#181818" points="414,164.8281,404,168.8281,414,172.8281,410,168.8281" style="stroke:#181818;stroke-width:1.0;"/><text fill="#000000" font-family="sans-serif" font-size="13" lengthAdjust="spacing" textLength="105" x="410" y="150.7622">checkMovement</text><line style="stroke:#181818;stroke-width:1.0;" x1="403" x2="445" y1="202.9609" y2="202.9609"/><line style="stroke:#181818;stroke-width:1.0;" x1="445" x2="445" y1="202.9609" y2="215.9609"/><line style="stroke:#181818;stroke-width:1.0;" x1="404" x2="445" y1="215.9609" y2="215.9609"/><polygon fill="#181818" points="414,211.9609,404,215.9609,414,219.9609,410,215.9609" style="stroke:#181818;stroke-width:1.0;"/><text fill="#000000" font-family="sans-serif" font-size="13" lengthAdjust="spacing" textLength="91" x="410" y="197.895">isTileOccupied</text><line style="stroke:#181818;stroke-width:1.0;stroke-dasharray:2.0,2.0;" x1="403" x2="445" y1="250.0938" y2="250.0938"/><line style="stroke:#181818;stroke-width:1.0;stroke-dasharray:2.0,2.0;" x1="445" x2="445" y1="250.0938" y2="263.0938"/><line style="stroke:#181818;stroke-width:1.0;stroke-dasharray:2.0,2.0;" x1="398" x2="445" y1="263.0938" y2="263.0938"/><polygon fill="#181818" points="408,259.0938,398,263.0938,408,267.0938,404,263.0938" style="stroke:#181818;stroke-width:1.0;"/><text fill="#000000" font-family="sans-serif" font-size="13" lengthAdjust="spacing" textLength="49" x="410" y="245.0278">allowed</text><polygon fill="#181818" points="252,283.2266,242,287.2266,252,291.2266,248,287.2266" style="stroke:#181818;stroke-width:1.0;"/><line style="stroke:#181818;stroke-width:1.0;stroke-dasharray:2.0,2.0;" x1="246" x2="392" y1="287.2266" y2="287.2266"/><text fill="#000000" font-family="sans-serif" font-size="13" lengthAdjust="spacing" textLength="118" x="258" y="282.1606">MovementAllowed</text><!--SRC=[TOz13e8m44NtFSLSm0kmC77XmWMHH2ymAODCB6tJZXXkRvM2e67Hj9d__lzJZq5OiqShS3fQOHcgu3J5oFPseT2p9kKNK6LmeB0QbUYLsZB3Rfyz1VXHLAY5UnIQmgnBRqEDW6jcUBoXnGXi_KEWSG4wrrD7LbHMKtXgBu1ZcPM3CUv9zRVZlLqwCwfRqlU9tiOuNjdGMUk7vnJtaIODSqTD__R5TtzNMkCl]--></g></svg>