<?xml version="1.0" encoding="us-ascii" standalone="no"?><svg xmlns="http://www.w3.org/2000/svg" xmlns:xlink="http://www.w3.org/1999/xlink" contentStyleType="text/css" height="661px" preserveAspectRatio="none" style="width:1072px;height:661px;background:#FFFFFF;" version="1.1" viewBox="0 0 1072 661" width="1072px" zoomAndPan="magnify"><defs/><g><text fill="#000000" font-family="sans-serif" font-size="14" font-weight="bold" lengthAdjust="spacing" textLength="165" x="446.925" y="22.9951">Player State Machine</text><ellipse cx="457.85" cy="53.2969" fill="#222222" rx="10" ry="10" style="stroke:#222222;stroke-width:1.0;"/><g id="Idle"><rect fill="#F1F1F1" height="50.2656" rx="12.5" ry="12.5" style="stroke:#181818;stroke-width:0.5;" width="307" x="304.35" y="124.2969"/><line style="stroke:#181818;stroke-width:0.5;" x1="304.35" x2="611.35" y1="150.5938" y2="150.5938"/><text fill="#000000" font-family="sans-serif" font-size="14" lengthAdjust="spacing" textLength="24" x="445.85" y="142.292">Idle</text><text fill="#000000" font-family="sans-serif" font-size="12" lengthAdjust="spacing" textLength="287" x="309.35" y="166.7324">Player is not moving or performing any action.</text></g><g id="Moving"><rect fill="#F1F1F1" height="50.2656" rx="12.5" ry="12.5" style="stroke:#181818;stroke-width:0.5;" width="246" x="197.85" y="251.5569"/><line style="stroke:#181818;stroke-width:0.5;" x1="197.85" x2="443.85" y1="277.8537" y2="277.8537"/><text fill="#000000" font-family="sans-serif" font-size="14" lengthAdjust="spacing" textLength="49" x="296.35" y="269.552">Moving</text><text fill="#000000" font-family="sans-serif" font-size="12" lengthAdjust="spacing" textLength="226" x="202.85" y="293.9924">Player inputs movement commands.</text></g><g id="PlacingBomb"><rect fill="#F1F1F1" height="50.2656" rx="12.5" ry="12.5" style="stroke:#181818;stroke-width:0.5;" width="176" x="278.85" y="378.8269"/><line style="stroke:#181818;stroke-width:0.5;" x1="278.85" x2="454.85" y1="405.1238" y2="405.1238"/><text fill="#000000" font-family="sans-serif" font-size="14" lengthAdjust="spacing" textLength="90" x="321.85" y="396.822">PlacingBomb</text><text fill="#000000" font-family="sans-serif" font-size="12" lengthAdjust="spacing" textLength="156" x="283.85" y="421.2624">Player is placing a bomb.</text></g><g id="UsingPowerUp"><rect fill="#F1F1F1" height="50.2656" rx="12.5" ry="12.5" style="stroke:#181818;stroke-width:0.5;" width="188" x="550.85" y="378.8269"/><line style="stroke:#181818;stroke-width:0.5;" x1="550.85" x2="738.85" y1="405.1238" y2="405.1238"/><text fill="#000000" font-family="sans-serif" font-size="14" lengthAdjust="spacing" textLength="101" x="594.35" y="396.822">UsingPowerUp</text><text fill="#000000" font-family="sans-serif" font-size="12" lengthAdjust="spacing" textLength="168" x="555.85" y="421.2624">Player is using a power-up.</text></g><g id="Damaged"><rect fill="#F1F1F1" height="50.2656" rx="12.5" ry="12.5" style="stroke:#181818;stroke-width:0.5;" width="184" x="274.85" y="506.0869"/><line style="stroke:#181818;stroke-width:0.5;" x1="274.85" x2="458.85" y1="532.3838" y2="532.3838"/><text fill="#000000" font-family="sans-serif" font-size="14" lengthAdjust="spacing" textLength="67" x="333.35" y="524.082">Damaged</text><text fill="#000000" font-family="sans-serif" font-size="12" lengthAdjust="spacing" textLength="164" x="279.85" y="548.5224">Player has taken damage.</text></g><ellipse cx="366.85" cy="644.3569" fill="none" rx="11" ry="11" style="stroke:#222222;stroke-width:1.0;"/><ellipse cx="366.85" cy="644.3569" fill="#222222" rx="6" ry="6" style="stroke:#222222;stroke-width:1.0;"/><!--link *start* to Idle--><g id="link_*start*_Idle"><path d="M457.85,63.6669 C457.85,77.6169 457.85,98.3169 457.85,118.0369 " fill="none" id="*start*-to-Idle" style="stroke:#181818;stroke-width:1.0;"/><polygon fill="#181818" points="457.85,124.0369,461.85,115.0369,457.85,119.0369,453.85,115.0369,457.85,124.0369" style="stroke:#181818;stroke-width:1.0;"/></g><!--link Idle to Moving--><g id="link_Idle_Moving"><path d="M304.12,161.6069 C244.96,169.3969 187.15,182.5169 168.85,204.5569 C150.61,226.5269 162.9864,240.0151 192.1564,250.8651 " fill="none" id="Idle-to-Moving" style="stroke:#181818;stroke-width:1.0;"/><polygon fill="#181818" points="197.78,252.9569,190.7391,246.0702,193.0937,251.2138,187.9501,253.5683,197.78,252.9569" style="stroke:#181818;stroke-width:1.0;"/><text fill="#000000" font-family="sans-serif" font-size="13" lengthAdjust="spacing" textLength="189" x="169.85" y="217.6238">inputs movement commands</text></g><!--link Moving to Idle--><g id="link_Moving_Idle"><path d="M347.52,251.3069 C371.64,229.2469 402.5417,200.9954 426.6817,178.9254 " fill="none" id="Moving-to-Idle" style="stroke:#181818;stroke-width:1.0;"/><polygon fill="#181818" points="431.11,174.8769,421.7686,177.9975,427.4198,178.2506,427.1666,183.9018,431.11,174.8769" style="stroke:#181818;stroke-width:1.0;"/><text fill="#000000" font-family="sans-serif" font-size="13" lengthAdjust="spacing" textLength="86" x="397.85" y="217.6238">stops moving</text></g><!--link Idle to PlacingBomb--><g id="link_Idle_PlacingBomb"><path d="M477.28,174.8869 C483.15,183.7269 488.84,194.1069 491.85,204.5569 C509.59,266.1769 527.04,295.2269 491.85,348.8269 C482.89,362.4669 474.9883,369.8901 460.4683,377.5401 " fill="none" id="Idle-to-PlacingBomb" style="stroke:#181818;stroke-width:1.0;"/><polygon fill="#181818" points="455.16,380.3369,464.987,379.6806,459.5836,378.0063,461.258,372.6029,455.16,380.3369" style="stroke:#181818;stroke-width:1.0;"/><text fill="#000000" font-family="sans-serif" font-size="13" lengthAdjust="spacing" textLength="118" x="512.85" y="281.2638">inputs place bomb</text></g><!--link PlacingBomb to Idle--><g id="link_PlacingBomb_Idle"><path d="M278.53,379.4469 C193.14,355.8069 74.79,320.3069 61.85,301.8269 C49.04,283.5269 50.23,270.6369 61.85,251.5569 C87.73,209.0669 198.1771,183.672 298.1271,168.592 " fill="none" id="PlacingBomb-to-Idle" style="stroke:#181818;stroke-width:1.0;"/><polygon fill="#181818" points="304.06,167.6969,294.564,165.0843,299.116,168.4428,295.7575,172.9948,304.06,167.6969" style="stroke:#181818;stroke-width:1.0;"/><text fill="#000000" font-family="sans-serif" font-size="13" lengthAdjust="spacing" textLength="116" x="62.85" y="281.2638">completes placing</text></g><!--link Moving to PlacingBomb--><g id="link_Moving_PlacingBomb"><path d="M231.19,302.2269 C206.79,313.5569 190.56,328.9869 204.85,348.8269 C214.42,362.1169 240.1456,372.397 272.8456,381.627 " fill="none" id="Moving-to-PlacingBomb" style="stroke:#181818;stroke-width:1.0;"/><polygon fill="#181818" points="278.62,383.2569,271.045,376.9624,273.808,381.8986,268.8718,384.6616,278.62,383.2569" style="stroke:#181818;stroke-width:1.0;"/><text fill="#000000" font-family="sans-serif" font-size="13" lengthAdjust="spacing" textLength="118" x="205.85" y="344.8938">inputs place bomb</text></g><!--link Idle to UsingPowerUp--><g id="link_Idle_UsingPowerUp"><path d="M539.64,174.9769 C576.87,190.6169 617.52,215.0069 639.85,251.5569 C663.7,290.6069 658.6341,340.6369 652.1741,372.4469 " fill="none" id="Idle-to-UsingPowerUp" style="stroke:#181818;stroke-width:1.0;"/><polygon fill="#181818" points="650.98,378.3269,656.6911,370.303,651.9751,373.4269,648.8512,368.7108,650.98,378.3269" style="stroke:#181818;stroke-width:1.0;"/><text fill="#000000" font-family="sans-serif" font-size="13" lengthAdjust="spacing" textLength="121" x="655.85" y="281.2638">activates power-up</text></g><!--link UsingPowerUp to Idle--><g id="link_UsingPowerUp_Idle"><path d="M696.56,378.5469 C750.19,349.8369 821.58,299.9669 785.85,251.5569 C761.87,219.0769 677.2482,193.9436 597.3782,176.2636 " fill="none" id="UsingPowerUp-to-Idle" style="stroke:#181818;stroke-width:1.0;"/><polygon fill="#181818" points="591.52,174.9669,599.4428,180.8175,596.4018,176.0475,601.1718,173.0066,591.52,174.9669" style="stroke:#181818;stroke-width:1.0;"/><text fill="#000000" font-family="sans-serif" font-size="13" lengthAdjust="spacing" textLength="151" x="795.85" y="281.2638">power-up duration ends</text></g><!--link Moving to UsingPowerUp--><g id="link_Moving_UsingPowerUp"><path d="M384.47,302.2869 C441.42,324.3069 518.8737,354.2531 575.7737,376.2531 " fill="none" id="Moving-to-UsingPowerUp" style="stroke:#181818;stroke-width:1.0;"/><polygon fill="#181818" points="581.37,378.4169,574.4181,371.4404,576.7064,376.6137,571.5331,378.9021,581.37,378.4169" style="stroke:#181818;stroke-width:1.0;"/><text fill="#000000" font-family="sans-serif" font-size="13" lengthAdjust="spacing" textLength="121" x="502.85" y="344.8938">activates power-up</text></g><!--link Idle to Damaged--><g id="link_Idle_Damaged"><path d="M303.9,163.3969 C220.86,172.2969 127.96,185.8969 90.85,204.5569 C33.37,233.4669 30.43,268.0569 21.85,331.8269 C6,449.6069 161.2867,497.6042 268.7667,517.1342 " fill="none" id="Idle-to-Damaged" style="stroke:#181818;stroke-width:1.0;"/><polygon fill="#181818" points="274.67,518.2069,266.5301,512.6623,269.7506,517.313,265.0999,520.5334,274.67,518.2069" style="stroke:#181818;stroke-width:1.0;"/><text fill="#000000" font-family="sans-serif" font-size="13" lengthAdjust="spacing" textLength="92" x="22.85" y="344.8938">takes damage</text></g><!--link Damaged to Idle--><g id="link_Damaged_Idle"><path d="M459.27,523.4069 C556.9,515.1269 703.69,499.3369 754.85,476.0869 C862.49,427.1869 906.75,409.3769 955.85,301.8269 C965.13,281.5069 969.79,269.0169 955.85,251.5569 C913.46,198.4769 747.834,173.2147 617.814,161.0747 " fill="none" id="Damaged-to-Idle" style="stroke:#181818;stroke-width:1.0;"/><polygon fill="#181818" points="611.84,160.5169,620.4292,165.3362,616.8183,160.9817,621.1729,157.3709,611.84,160.5169" style="stroke:#181818;stroke-width:1.0;"/><text fill="#000000" font-family="sans-serif" font-size="13" lengthAdjust="spacing" textLength="124" x="940.85" y="344.8938">damage is not fatal</text></g><!--link Moving to Damaged--><g id="link_Moving_Damaged"><path d="M236.79,302.2269 C220.22,309.8069 203.93,319.5069 190.85,331.8269 C158.5,362.2669 144.62,391.2269 167.85,429.0869 C191.36,467.4069 228.8091,489.6413 268.8791,504.8213 " fill="none" id="Moving-to-Damaged" style="stroke:#181818;stroke-width:1.0;"/><polygon fill="#181818" points="274.49,506.9469,267.4908,500.0179,269.8143,505.1755,264.6566,507.499,274.49,506.9469" style="stroke:#181818;stroke-width:1.0;"/><text fill="#000000" font-family="sans-serif" font-size="13" lengthAdjust="spacing" textLength="92" x="168.85" y="408.5238">takes damage</text></g><!--link PlacingBomb to Damaged--><g id="link_PlacingBomb_Damaged"><path d="M366.85,429.4069 C366.85,451.4769 366.85,477.7869 366.85,499.8369 " fill="none" id="PlacingBomb-to-Damaged" style="stroke:#181818;stroke-width:1.0;"/><polygon fill="#181818" points="366.85,505.8369,370.85,496.8369,366.85,500.8369,362.85,496.8369,366.85,505.8369" style="stroke:#181818;stroke-width:1.0;"/><text fill="#000000" font-family="sans-serif" font-size="13" lengthAdjust="spacing" textLength="176" x="367.85" y="472.1538">takes damage while placing</text></g><!--link UsingPowerUp to Damaged--><g id="link_UsingPowerUp_Damaged"><path d="M618.9,429.3269 C601.4,444.6269 577.14,463.7269 552.85,476.0869 C523.77,490.8869 495.8173,500.6534 465.1173,509.0534 " fill="none" id="UsingPowerUp-to-Damaged" style="stroke:#181818;stroke-width:1.0;"/><polygon fill="#181818" points="459.33,510.6369,469.0666,512.1198,464.1527,509.3173,466.9553,504.4035,459.33,510.6369" style="stroke:#181818;stroke-width:1.0;"/><text fill="#000000" font-family="sans-serif" font-size="13" lengthAdjust="spacing" textLength="165" x="580.85" y="472.1538">takes damage while using</text></g><!--link Damaged to *end*--><g id="link_Damaged_*end*"><path d="M366.85,556.6169 C366.85,580.5069 366.85,609.7769 366.85,627.0569 " fill="none" id="Damaged-to-*end*" style="stroke:#181818;stroke-width:1.0;"/><polygon fill="#181818" points="366.85,633.0569,370.85,624.0569,366.85,628.0569,362.85,624.0569,366.85,633.0569" style="stroke:#181818;stroke-width:1.0;"/><text fill="#000000" font-family="sans-serif" font-size="13" lengthAdjust="spacing" textLength="85" x="367.85" y="599.4238">HP reaches 0</text></g><!--SRC=[XP8zRuGm38Rt_0hFbK2T6JfK7ThX9AJgfgg33tn7LFAX972wVryJGWbLwIsHuZn-xTTnaA4dg7kyaOFtW87WW4qdDGdnyV09HV44RsrFOZhYxM16gIzGWTHs21wK6KcH3j0OfL2tNYHYIMNK1sCZoN6nId7PXYFFHfrMFSj1WXF7Sg5xw2fwzCpLvahkQ1d59iYHRJ4znOh1vhBtOP5NpYonMzjJH6T0RBGoSf62Td0OfD50qvJMZbzGuOLQHWD-iM0RxtcREyJlrlx6uDf9hhJRvhzPWuzVjZ0JFwr51QyrEE9DuOJ7pNDodLIa1sq2d35WFrkkbcrBJ_DMW75WoPsDKzCDzIr-Xj5bciEQjhDsPJwEl4Wo3XWtfTmC8EUYLQQM_oeNMpzGXpxEI2TtvJS0]--></g></svg>