<?xml version="1.0" encoding="us-ascii" standalone="no"?><svg xmlns="http://www.w3.org/2000/svg" xmlns:xlink="http://www.w3.org/1999/xlink" contentStyleType="text/css" height="689px" preserveAspectRatio="none" style="width:1072px;height:689px;background:#FFFFFF;" version="1.1" viewBox="0 0 1072 689" width="1072px" zoomAndPan="magnify"><defs/><g><text fill="#000000" font-family="sans-serif" font-size="14" font-weight="bold" lengthAdjust="spacing" textLength="165" x="446.925" y="22.9951">Player State Machine</text><ellipse cx="457.85" cy="53.2969" fill="#222222" rx="10" ry="10" style="stroke:#222222;stroke-width:1.0;"/><g id="Idle"><rect fill="#F1F1F1" height="50.2656" rx="12.5" ry="12.5" style="stroke:#181818;stroke-width:0.5;" width="307" x="304.35" y="124.2969"/><line style="stroke:#181818;stroke-width:0.5;" x1="304.35" x2="611.35" y1="150.5938" y2="150.5938"/><text fill="#000000" font-family="sans-serif" font-size="14" lengthAdjust="spacing" textLength="24" x="445.85" y="142.292">Idle</text><text fill="#000000" font-family="sans-serif" font-size="12" lengthAdjust="spacing" textLength="287" x="309.35" y="166.7324">Player is not moving or performing any action.</text></g><g id="Moving"><rect fill="#F1F1F1" height="50.2656" rx="12.5" ry="12.5" style="stroke:#181818;stroke-width:0.5;" width="246" x="197.85" y="251.5669"/><line style="stroke:#181818;stroke-width:0.5;" x1="197.85" x2="443.85" y1="277.8638" y2="277.8638"/><text fill="#000000" font-family="sans-serif" font-size="14" lengthAdjust="spacing" textLength="49" x="296.35" y="269.562">Moving</text><text fill="#000000" font-family="sans-serif" font-size="12" lengthAdjust="spacing" textLength="226" x="202.85" y="294.0024">Player inputs movement commands.</text></g><g id="PlacingBomb"><rect fill="#F1F1F1" height="50.2656" rx="12.5" ry="12.5" style="stroke:#181818;stroke-width:0.5;" width="176" x="278.85" y="378.8269"/><line style="stroke:#181818;stroke-width:0.5;" x1="278.85" x2="454.85" y1="405.1238" y2="405.1238"/><text fill="#000000" font-family="sans-serif" font-size="14" lengthAdjust="spacing" textLength="90" x="321.85" y="396.822">PlacingBomb</text><text fill="#000000" font-family="sans-serif" font-size="12" lengthAdjust="spacing" textLength="156" x="283.85" y="421.2624">Player is placing a bomb.</text></g><g id="UsingPowerUp"><rect fill="#F1F1F1" height="50.2656" rx="12.5" ry="12.5" style="stroke:#181818;stroke-width:0.5;" width="188" x="550.85" y="378.8269"/><line style="stroke:#181818;stroke-width:0.5;" x1="550.85" x2="738.85" y1="405.1238" y2="405.1238"/><text fill="#000000" font-family="sans-serif" font-size="14" lengthAdjust="spacing" textLength="101" x="594.35" y="396.822">UsingPowerUp</text><text fill="#000000" font-family="sans-serif" font-size="12" lengthAdjust="spacing" textLength="168" x="555.85" y="421.2624">Player is using a power-up.</text></g><g id="Damaged"><rect fill="#F1F1F1" height="50.2656" rx="12.5" ry="12.5" style="stroke:#181818;stroke-width:0.5;" width="184" x="274.85" y="506.0969"/><line style="stroke:#181818;stroke-width:0.5;" x1="274.85" x2="458.85" y1="532.3938" y2="532.3938"/><text fill="#000000" font-family="sans-serif" font-size="14" lengthAdjust="spacing" textLength="67" x="333.35" y="524.092">Damaged</text><text fill="#000000" font-family="sans-serif" font-size="12" lengthAdjust="spacing" textLength="164" x="279.85" y="548.5324">Player has taken damage.</text></g><g id="GameOver"><rect fill="#F1F1F1" height="50.2656" rx="12.5" ry="12.5" style="stroke:#181818;stroke-width:0.5;" width="221" x="256.35" y="633.3569"/><line style="stroke:#181818;stroke-width:0.5;" x1="256.35" x2="477.35" y1="659.6538" y2="659.6538"/><text fill="#000000" font-family="sans-serif" font-size="14" lengthAdjust="spacing" textLength="73" x="330.35" y="651.352">GameOver</text><text fill="#000000" font-family="sans-serif" font-size="12" lengthAdjust="spacing" textLength="201" x="261.35" y="675.7924">Player has lost all health points.</text></g><!--link *start* to Idle--><g id="link_*start*_Idle"><path d="M457.85,63.6669 C457.85,77.6169 457.85,98.3269 457.85,118.0469 " fill="none" id="*start*-to-Idle" style="stroke:#181818;stroke-width:1.0;"/><polygon fill="#181818" points="457.85,124.0469,461.85,115.0469,457.85,119.0469,453.85,115.0469,457.85,124.0469" style="stroke:#181818;stroke-width:1.0;"/></g><!--link Idle to Moving--><g id="link_Idle_Moving"><path d="M304.12,161.6169 C244.96,169.3969 187.15,182.5169 168.85,204.5669 C150.61,226.5369 162.987,240.0134 192.157,250.8734 " fill="none" id="Idle-to-Moving" style="stroke:#181818;stroke-width:1.0;"/><polygon fill="#181818" points="197.78,252.9669,190.7412,246.0781,193.0942,251.2224,187.95,253.5754,197.78,252.9669" style="stroke:#181818;stroke-width:1.0;"/><text fill="#000000" font-family="sans-serif" font-size="13" lengthAdjust="spacing" textLength="189" x="169.85" y="217.6338">inputs movement commands</text></g><!--link Moving to Idle--><g id="link_Moving_Idle"><path d="M347.52,251.3069 C371.64,229.2569 402.5427,201.0064 426.6827,178.9264 " fill="none" id="Moving-to-Idle" style="stroke:#181818;stroke-width:1.0;"/><polygon fill="#181818" points="431.11,174.8769,421.7693,177.9996,427.4206,178.2515,427.1687,183.9027,431.11,174.8769" style="stroke:#181818;stroke-width:1.0;"/><text fill="#000000" font-family="sans-serif" font-size="13" lengthAdjust="spacing" textLength="86" x="397.85" y="217.6338">stops moving</text></g><!--link Idle to PlacingBomb--><g id="link_Idle_PlacingBomb"><path d="M477.28,174.8969 C483.15,183.7269 488.84,194.1169 491.85,204.5669 C509.59,266.1769 527.04,295.2369 491.85,348.8269 C482.89,362.4669 474.9883,369.8901 460.4683,377.5401 " fill="none" id="Idle-to-PlacingBomb" style="stroke:#181818;stroke-width:1.0;"/><polygon fill="#181818" points="455.16,380.3369,464.987,379.6806,459.5836,378.0063,461.258,372.6029,455.16,380.3369" style="stroke:#181818;stroke-width:1.0;"/><text fill="#000000" font-family="sans-serif" font-size="13" lengthAdjust="spacing" textLength="118" x="512.85" y="281.2638">inputs place bomb</text></g><!--link PlacingBomb to Idle--><g id="link_PlacingBomb_Idle"><path d="M278.53,379.4469 C193.14,355.8169 74.79,320.3069 61.85,301.8269 C49.04,283.5269 50.23,270.6469 61.85,251.5669 C87.73,209.0669 198.1771,183.672 298.1271,168.592 " fill="none" id="PlacingBomb-to-Idle" style="stroke:#181818;stroke-width:1.0;"/><polygon fill="#181818" points="304.06,167.6969,294.564,165.0843,299.116,168.4428,295.7575,172.9948,304.06,167.6969" style="stroke:#181818;stroke-width:1.0;"/><text fill="#000000" font-family="sans-serif" font-size="13" lengthAdjust="spacing" textLength="116" x="62.85" y="281.2638">completes placing</text></g><!--link Moving to PlacingBomb--><g id="link_Moving_PlacingBomb"><path d="M231.19,302.2269 C206.79,313.5669 190.56,328.9869 204.85,348.8269 C214.42,362.1269 240.1461,372.3953 272.8461,381.6353 " fill="none" id="Moving-to-PlacingBomb" style="stroke:#181818;stroke-width:1.0;"/><polygon fill="#181818" points="278.62,383.2669,271.0468,376.9703,273.8084,381.9073,268.8714,384.6689,278.62,383.2669" style="stroke:#181818;stroke-width:1.0;"/><text fill="#000000" font-family="sans-serif" font-size="13" lengthAdjust="spacing" textLength="118" x="205.85" y="344.8938">inputs place bomb</text></g><!--link Idle to UsingPowerUp--><g id="link_Idle_UsingPowerUp"><path d="M539.64,174.9769 C576.87,190.6269 617.52,215.0069 639.85,251.5669 C663.7,290.6169 658.6341,340.6469 652.1741,372.4569 " fill="none" id="Idle-to-UsingPowerUp" style="stroke:#181818;stroke-width:1.0;"/><polygon fill="#181818" points="650.98,378.3369,656.6911,370.313,651.9751,373.4369,648.8512,368.7208,650.98,378.3369" style="stroke:#181818;stroke-width:1.0;"/><text fill="#000000" font-family="sans-serif" font-size="13" lengthAdjust="spacing" textLength="121" x="655.85" y="281.2638">activates power-up</text></g><!--link UsingPowerUp to Idle--><g id="link_UsingPowerUp_Idle"><path d="M696.56,378.5469 C750.19,349.8469 821.58,299.9669 785.85,251.5669 C761.87,219.0869 677.248,193.9543 597.378,176.2643 " fill="none" id="UsingPowerUp-to-Idle" style="stroke:#181818;stroke-width:1.0;"/><polygon fill="#181818" points="591.52,174.9669,599.4421,180.8184,596.4017,176.0481,601.172,173.0077,591.52,174.9669" style="stroke:#181818;stroke-width:1.0;"/><text fill="#000000" font-family="sans-serif" font-size="13" lengthAdjust="spacing" textLength="151" x="795.85" y="281.2638">power-up duration ends</text></g><!--link Moving to UsingPowerUp--><g id="link_Moving_UsingPowerUp"><path d="M384.47,302.2969 C441.42,324.3169 518.8737,354.2531 575.7737,376.2531 " fill="none" id="Moving-to-UsingPowerUp" style="stroke:#181818;stroke-width:1.0;"/><polygon fill="#181818" points="581.37,378.4169,574.4181,371.4404,576.7064,376.6137,571.5331,378.9021,581.37,378.4169" style="stroke:#181818;stroke-width:1.0;"/><text fill="#000000" font-family="sans-serif" font-size="13" lengthAdjust="spacing" textLength="121" x="502.85" y="344.8938">activates power-up</text></g><!--link Idle to Damaged--><g id="link_Idle_Damaged"><path d="M303.9,163.4069 C220.86,172.3069 127.96,185.9069 90.85,204.5669 C33.37,233.4669 30.43,268.0669 21.85,331.8269 C6,449.6069 161.2866,497.6147 268.7666,517.1347 " fill="none" id="Idle-to-Damaged" style="stroke:#181818;stroke-width:1.0;"/><polygon fill="#181818" points="274.67,518.2069,266.5296,512.663,269.7505,517.3134,265.1001,520.5343,274.67,518.2069" style="stroke:#181818;stroke-width:1.0;"/><text fill="#000000" font-family="sans-serif" font-size="13" lengthAdjust="spacing" textLength="92" x="22.85" y="344.8938">takes damage</text></g><!--link Damaged to Idle--><g id="link_Damaged_Idle"><path d="M459.27,523.4069 C556.9,515.1369 703.69,499.3369 754.85,476.0969 C862.49,427.1869 906.75,409.3869 955.85,301.8269 C965.13,281.5069 969.79,269.0269 955.85,251.5669 C913.46,198.4769 747.834,173.2251 617.814,161.0751 " fill="none" id="Damaged-to-Idle" style="stroke:#181818;stroke-width:1.0;"/><polygon fill="#181818" points="611.84,160.5169,620.4288,165.3369,616.8183,160.9821,621.1731,157.3716,611.84,160.5169" style="stroke:#181818;stroke-width:1.0;"/><text fill="#000000" font-family="sans-serif" font-size="13" lengthAdjust="spacing" textLength="124" x="940.85" y="344.8938">damage is not fatal</text></g><!--link Moving to Damaged--><g id="link_Moving_Damaged"><path d="M236.79,302.2269 C220.22,309.8069 203.93,319.5169 190.85,331.8269 C158.5,362.2769 144.62,391.2369 167.85,429.0969 C191.36,467.4169 228.8091,489.6413 268.8791,504.8213 " fill="none" id="Moving-to-Damaged" style="stroke:#181818;stroke-width:1.0;"/><polygon fill="#181818" points="274.49,506.9469,267.4908,500.0179,269.8143,505.1755,264.6566,507.499,274.49,506.9469" style="stroke:#181818;stroke-width:1.0;"/><text fill="#000000" font-family="sans-serif" font-size="13" lengthAdjust="spacing" textLength="92" x="168.85" y="408.5338">takes damage</text></g><!--link PlacingBomb to Damaged--><g id="link_PlacingBomb_Damaged"><path d="M366.85,429.4169 C366.85,451.4869 366.85,477.7869 366.85,499.8369 " fill="none" id="PlacingBomb-to-Damaged" style="stroke:#181818;stroke-width:1.0;"/><polygon fill="#181818" points="366.85,505.8369,370.85,496.8369,366.85,500.8369,362.85,496.8369,366.85,505.8369" style="stroke:#181818;stroke-width:1.0;"/><text fill="#000000" font-family="sans-serif" font-size="13" lengthAdjust="spacing" textLength="176" x="367.85" y="472.1638">takes damage while placing</text></g><!--link UsingPowerUp to Damaged--><g id="link_UsingPowerUp_Damaged"><path d="M618.9,429.3269 C601.4,444.6269 577.14,463.7369 552.85,476.0969 C523.77,490.8869 495.8173,500.6634 465.1173,509.0634 " fill="none" id="UsingPowerUp-to-Damaged" style="stroke:#181818;stroke-width:1.0;"/><polygon fill="#181818" points="459.33,510.6469,469.0666,512.1298,464.1527,509.3273,466.9553,504.4135,459.33,510.6469" style="stroke:#181818;stroke-width:1.0;"/><text fill="#000000" font-family="sans-serif" font-size="13" lengthAdjust="spacing" textLength="165" x="580.85" y="472.1638">takes damage while using</text></g><!--link Damaged to GameOver--><g id="link_Damaged_GameOver"><path d="M366.85,556.6769 C366.85,578.7469 366.85,605.0569 366.85,627.1069 " fill="none" id="Damaged-to-GameOver" style="stroke:#181818;stroke-width:1.0;"/><polygon fill="#181818" points="366.85,633.1069,370.85,624.1069,366.85,628.1069,362.85,624.1069,366.85,633.1069" style="stroke:#181818;stroke-width:1.0;"/><text fill="#000000" font-family="sans-serif" font-size="13" lengthAdjust="spacing" textLength="85" x="367.85" y="599.4238">HP reaches 0</text></g><!--SRC=[XP9DJyCm38Rl-HK-8wtYl0C7X0GS9YQXdH07h_NMY7nKZTjf_nutIsYA6BjKillujL_7hDaGR0sUgOTtHYROODrgHqfzt7t2QlK0huqXDNrYjF6ZTaTOWtRTm06i7ycIOwYzjUYQe1AHImKDxBj8IbxDKjAsbioZj_jPhvCamLvofT0jT1RT1U6s_aJzhXCKQzQZs19wogs6hfIz3QkoSs59t7Q68de1r4Ah8BCKD4EFhBq3chOqJ_o45e_K2Chu9O9DZCinhn2_H_iRWrEhfTFLCV-j6a9yiinC_3DQUXlbNDRmieMUv5oawdx19Ej9IWTmdk60ZERYUvrFBlswd0Ru7Zhg3xwtKuJk75_4koejOowxSdjLkPEoIN8F6C-bMcoXvA9VeVAZLTdM3zHYY8jooLsbya8MYF610Os1bj1mAuBQSQY-0G00]--></g></svg>