<?xml version="1.0" encoding="us-ascii" standalone="no"?><svg xmlns="http://www.w3.org/2000/svg" xmlns:xlink="http://www.w3.org/1999/xlink" contentStyleType="text/css" height="660px" preserveAspectRatio="none" style="width:1075px;height:660px;background:#FFFFFF;" version="1.1" viewBox="0 0 1075 660" width="1075px" zoomAndPan="magnify"><defs/><g><text fill="#000000" font-family="sans-serif" font-size="14" font-weight="bold" lengthAdjust="spacing" textLength="172" x="444.6637" y="22.9951">Player State Machine</text><ellipse cx="446.3273" cy="53.2969" fill="#222222" rx="10" ry="10" style="stroke:#222222;stroke-width:1.0;"/><g id="Idle"><rect fill="#F1F1F1" height="50.2656" rx="12.5" ry="12.5" style="stroke:#181818;stroke-width:0.5;" width="297" x="297.8273" y="124.2969"/><line style="stroke:#181818;stroke-width:0.5;" x1="297.8273" x2="594.8273" y1="150.5938" y2="150.5938"/><text fill="#000000" font-family="sans-serif" font-size="14" lengthAdjust="spacing" textLength="26" x="433.3273" y="142.292">Idle</text><text fill="#000000" font-family="sans-serif" font-size="12" lengthAdjust="spacing" textLength="277" x="302.8273" y="166.7324">Player is not moving or performing any action.</text></g><g id="Moving"><rect fill="#F1F1F1" height="50.2656" rx="12.5" ry="12.5" style="stroke:#181818;stroke-width:0.5;" width="237" x="194.8273" y="251.2969"/><line style="stroke:#181818;stroke-width:0.5;" x1="194.8273" x2="431.8273" y1="277.5938" y2="277.5938"/><text fill="#000000" font-family="sans-serif" font-size="14" lengthAdjust="spacing" textLength="51" x="287.8273" y="269.292">Moving</text><text fill="#000000" font-family="sans-serif" font-size="12" lengthAdjust="spacing" textLength="217" x="199.8273" y="293.7324">Player inputs movement commands.</text></g><g id="PlacingBomb"><rect fill="#F1F1F1" height="50.2656" rx="12.5" ry="12.5" style="stroke:#181818;stroke-width:0.5;" width="170" x="264.3273" y="378.2969"/><line style="stroke:#181818;stroke-width:0.5;" x1="264.3273" x2="434.3273" y1="404.5938" y2="404.5938"/><text fill="#000000" font-family="sans-serif" font-size="14" lengthAdjust="spacing" textLength="94" x="302.3273" y="396.292">PlacingBomb</text><text fill="#000000" font-family="sans-serif" font-size="12" lengthAdjust="spacing" textLength="150" x="269.3273" y="420.7324">Player is placing a bomb.</text></g><g id="UsingPowerUp"><rect fill="#F1F1F1" height="50.2656" rx="12.5" ry="12.5" style="stroke:#181818;stroke-width:0.5;" width="183" x="569.8273" y="378.2969"/><line style="stroke:#181818;stroke-width:0.5;" x1="569.8273" x2="752.8273" y1="404.5938" y2="404.5938"/><text fill="#000000" font-family="sans-serif" font-size="14" lengthAdjust="spacing" textLength="101" x="610.8273" y="396.292">UsingPowerUp</text><text fill="#000000" font-family="sans-serif" font-size="12" lengthAdjust="spacing" textLength="163" x="574.8273" y="420.7324">Player is using a power-up.</text></g><g id="Damaged"><rect fill="#F1F1F1" height="50.2656" rx="12.5" ry="12.5" style="stroke:#181818;stroke-width:0.5;" width="174" x="262.3273" y="505.2969"/><line style="stroke:#181818;stroke-width:0.5;" x1="262.3273" x2="436.3273" y1="531.5938" y2="531.5938"/><text fill="#000000" font-family="sans-serif" font-size="14" lengthAdjust="spacing" textLength="68" x="315.3273" y="523.292">Damaged</text><text fill="#000000" font-family="sans-serif" font-size="12" lengthAdjust="spacing" textLength="154" x="267.3273" y="547.7324">Player has taken damage.</text></g><ellipse cx="349.3273" cy="643.2969" fill="none" rx="11" ry="11" style="stroke:#222222;stroke-width:1.0;"/><ellipse cx="349.3273" cy="643.2969" fill="#222222" rx="6" ry="6" style="stroke:#222222;stroke-width:1.0;"/><!--link *start* to Idle--><g id="link_*start*_Idle"><path d="M446.3273,63.3099 C446.3273,77.1879 446.3273,98.2619 446.3273,118.1369 " fill="none" id="*start*-to-Idle" style="stroke:#181818;stroke-width:1.0;"/><polygon fill="#181818" points="446.3273,124.1369,450.3273,115.1369,446.3273,119.1369,442.3273,115.1369,446.3273,124.1369" style="stroke:#181818;stroke-width:1.0;"/></g><!--link Idle to Moving--><g id="link_Idle_Moving"><path d="M297.5223,160.5229 C235.9173,168.1459 174.3823,181.3819 155.3273,204.2969 C134.6583,229.1549 153.469,243.9087 188.906,254.6887 " fill="none" id="Idle-to-Moving" style="stroke:#181818;stroke-width:1.0;"/><polygon fill="#181818" points="194.6463,256.4349,187.2,249.9887,189.8627,254.9797,184.8717,257.6424,194.6463,256.4349" style="stroke:#181818;stroke-width:1.0;"/><text fill="#000000" font-family="sans-serif" font-size="13" lengthAdjust="spacing" textLength="190" x="156.3273" y="217.3638">inputs movement commands</text></g><!--link Moving to Idle--><g id="link_Moving_Idle"><path d="M338.1933,251.1589 C352.4873,237.3529 370.8283,219.7579 387.3273,204.2969 C397.8653,194.4219 405.146,187.7029 415.34,178.4019 " fill="none" id="Moving-to-Idle" style="stroke:#181818;stroke-width:1.0;"/><polygon fill="#181818" points="419.7723,174.3579,410.4278,177.4691,416.0787,177.7279,415.8198,183.3789,419.7723,174.3579" style="stroke:#181818;stroke-width:1.0;"/><text fill="#000000" font-family="sans-serif" font-size="13" lengthAdjust="spacing" textLength="87" x="388.3273" y="217.3638">stops moving</text></g><!--link Idle to PlacingBomb--><g id="link_Idle_PlacingBomb"><path d="M465.5743,174.4259 C471.5123,183.2959 477.2863,193.7589 480.3273,204.2969 C498.0733,265.7879 515.9293,295.1129 480.3273,348.2969 C469.3803,364.6509 457.9735,373.6389 439.9125,381.5919 " fill="none" id="Idle-to-PlacingBomb" style="stroke:#181818;stroke-width:1.0;"/><polygon fill="#181818" points="434.4213,384.0099,444.2701,384.0437,438.9973,381.9949,441.0461,376.7221,434.4213,384.0099" style="stroke:#181818;stroke-width:1.0;"/><text fill="#000000" font-family="sans-serif" font-size="13" lengthAdjust="spacing" textLength="118" x="502.3273" y="280.8638">inputs place bomb</text></g><!--link PlacingBomb to Idle--><g id="link_PlacingBomb_Idle"><path d="M264.1353,378.2309 C182.9673,354.4259 71.3709,319.0569 59.3276,301.2969 C46.8558,282.9049 48.2374,270.5539 59.3276,251.2969 C83.8235,208.7619 193.3584,183.3117 291.8484,168.2357 " fill="none" id="PlacingBomb-to-Idle" style="stroke:#181818;stroke-width:1.0;"/><polygon fill="#181818" points="297.7793,167.3279,288.2777,164.7357,292.8369,168.0844,289.4882,172.6436,297.7793,167.3279" style="stroke:#181818;stroke-width:1.0;"/><text fill="#000000" font-family="sans-serif" font-size="13" lengthAdjust="spacing" textLength="116" x="60.3276" y="280.8638">completes placing</text></g><!--link Moving to PlacingBomb--><g id="link_Moving_PlacingBomb"><path d="M217.0753,301.4349 C192.0703,312.5799 175.7523,327.9529 190.3273,348.2969 C199.8363,361.5679 225.6887,371.9161 258.2547,381.2111 " fill="none" id="Moving-to-PlacingBomb" style="stroke:#181818;stroke-width:1.0;"/><polygon fill="#181818" points="264.0243,382.8579,256.4678,376.5413,259.2163,381.4856,254.2721,384.2341,264.0243,382.8579" style="stroke:#181818;stroke-width:1.0;"/><text fill="#000000" font-family="sans-serif" font-size="13" lengthAdjust="spacing" textLength="118" x="191.3273" y="344.3638">inputs place bomb</text></g><!--link Idle to UsingPowerUp--><g id="link_Idle_UsingPowerUp"><path d="M520.7493,174.3259 C558.7673,190.3149 602.5393,215.1419 629.3273,251.2969 C657.3253,289.0849 661.9451,340.0279 662.1011,372.1039 " fill="none" id="Idle-to-UsingPowerUp" style="stroke:#181818;stroke-width:1.0;"/><polygon fill="#181818" points="662.1303,378.1039,666.0865,369.0845,662.106,373.1039,658.0866,369.1234,662.1303,378.1039" style="stroke:#181818;stroke-width:1.0;"/><text fill="#000000" font-family="sans-serif" font-size="13" lengthAdjust="spacing" textLength="124" x="652.3273" y="280.8638">activates power-up</text></g><!--link UsingPowerUp to Idle--><g id="link_UsingPowerUp_Idle"><path d="M705.5763,378.2759 C753.8033,348.9479 819.7943,297.5299 785.3273,251.2969 C760.5523,218.0639 673.5044,193.0356 591.2024,175.6266 " fill="none" id="UsingPowerUp-to-Idle" style="stroke:#181818;stroke-width:1.0;"/><polygon fill="#181818" points="585.3323,174.3849,593.3097,180.1608,590.2241,175.4196,594.9653,172.334,585.3323,174.3849" style="stroke:#181818;stroke-width:1.0;"/><text fill="#000000" font-family="sans-serif" font-size="13" lengthAdjust="spacing" textLength="153" x="795.3273" y="280.8638">power-up duration ends</text></g><!--link Moving to UsingPowerUp--><g id="link_Moving_UsingPowerUp"><path d="M380.4253,301.3979 C442.0483,323.5329 527.2316,354.1295 588.7886,376.2415 " fill="none" id="Moving-to-UsingPowerUp" style="stroke:#181818;stroke-width:1.0;"/><polygon fill="#181818" points="594.4353,378.2699,587.3174,371.4628,589.7297,376.5796,584.6129,378.9918,594.4353,378.2699" style="stroke:#181818;stroke-width:1.0;"/><text fill="#000000" font-family="sans-serif" font-size="13" lengthAdjust="spacing" textLength="124" x="509.3273" y="344.3638">activates power-up</text></g><!--link Idle to Damaged--><g id="link_Idle_Damaged"><path d="M297.3903,162.8149 C215.6033,171.6129 123.5933,185.2399 87.3276,204.2969 C31.0174,233.8869 29.8376,268.2569 21.3276,331.2969 C6,444.8399 153.9149,494.0311 256.1819,514.8481 " fill="none" id="Idle-to-Damaged" style="stroke:#181818;stroke-width:1.0;"/><polygon fill="#181818" points="262.0613,516.0449,254.04,510.3301,257.1618,515.0476,252.4443,518.1693,262.0613,516.0449" style="stroke:#181818;stroke-width:1.0;"/><text fill="#000000" font-family="sans-serif" font-size="13" lengthAdjust="spacing" textLength="92" x="22.3276" y="344.3638">takes damage</text></g><!--link Damaged to Idle--><g id="link_Damaged_Idle"><path d="M436.6423,523.2509 C537.2733,515.2899 695.8013,499.4139 750.3273,475.2969 C860.2413,426.6829 906.5823,410.2439 957.3273,301.2969 C966.7103,281.1529 971.2283,268.6349 957.3273,251.2969 C912.7453,195.6909 735.3151,170.7738 600.9381,159.4478 " fill="none" id="Damaged-to-Idle" style="stroke:#181818;stroke-width:1.0;"/><polygon fill="#181818" points="594.9593,158.9439,603.5916,163.6856,599.9416,159.3638,604.2635,155.7139,594.9593,158.9439" style="stroke:#181818;stroke-width:1.0;"/><text fill="#000000" font-family="sans-serif" font-size="13" lengthAdjust="spacing" textLength="125" x="942.3273" y="344.3638">damage is not fatal</text></g><!--link Moving to Damaged--><g id="link_Moving_Damaged"><path d="M226.0913,301.3609 C208.6103,308.9599 191.3373,318.7609 177.3273,331.2969 C144.1513,360.9849 129.1133,390.3079 152.3273,428.2969 C176.4263,467.7339 215.7231,490.3303 256.5931,505.4073 " fill="none" id="Moving-to-Damaged" style="stroke:#181818;stroke-width:1.0;"/><polygon fill="#181818" points="262.2223,507.4839,255.1629,500.6162,257.5313,505.7534,252.3941,508.1217,262.2223,507.4839" style="stroke:#181818;stroke-width:1.0;"/><text fill="#000000" font-family="sans-serif" font-size="13" lengthAdjust="spacing" textLength="92" x="153.3273" y="407.8638">takes damage</text></g><!--link PlacingBomb to Damaged--><g id="link_PlacingBomb_Damaged"><path d="M349.3273,428.3979 C349.3273,450.5329 349.3273,477.1579 349.3273,499.2699 " fill="none" id="PlacingBomb-to-Damaged" style="stroke:#181818;stroke-width:1.0;"/><polygon fill="#181818" points="349.3273,505.2699,353.3273,496.2699,349.3273,500.2699,345.3273,496.2699,349.3273,505.2699" style="stroke:#181818;stroke-width:1.0;"/><text fill="#000000" font-family="sans-serif" font-size="13" lengthAdjust="spacing" textLength="178" x="350.3273" y="471.3638">takes damage while placing</text></g><!--link UsingPowerUp to Damaged--><g id="link_UsingPowerUp_Damaged"><path d="M624.8143,428.3179 C600.7283,443.3689 568.0613,462.3079 537.3273,475.2969 C505.2663,488.8469 474.5304,498.6344 442.2554,507.3814 " fill="none" id="UsingPowerUp-to-Damaged" style="stroke:#181818;stroke-width:1.0;"/><polygon fill="#181818" points="436.4643,508.9509,446.1973,510.4574,441.2902,507.643,444.1046,502.7359,436.4643,508.9509" style="stroke:#181818;stroke-width:1.0;"/><text fill="#000000" font-family="sans-serif" font-size="13" lengthAdjust="spacing" textLength="167" x="574.3273" y="471.3638">takes damage while using</text></g><!--link Damaged to *end*--><g id="link_Damaged_*end*"><path d="M349.3273,555.3822 C349.3273,579.3566 349.3273,608.9923 349.3273,626.2322 " fill="none" id="Damaged-to-*end*" style="stroke:#181818;stroke-width:1.0;"/><polygon fill="#181818" points="349.3273,632.2322,353.3273,623.2322,349.3273,627.2322,345.3273,623.2322,349.3273,632.2322" style="stroke:#181818;stroke-width:1.0;"/><text fill="#000000" font-family="sans-serif" font-size="13" lengthAdjust="spacing" textLength="84" x="350.3273" y="598.3638">HP reaches 0</text></g><!--SRC=[XP8zRuGm38Rt_0hFbK2T6JfK7ThX9AJgfgg33tn7LFAX972wVryJGWbLwIsHuZn-xTTnaA4dg7kyaOFtW87WW4qdDGdnyV09HV44RsrFOZhYxM16gIzGWTHs21wK6KcH3j0OfL2tNYHYIMNK1sCZoN6nId7PXYFFHfrMFSj1WXF7Sg5xw2fwzCpLvahkQ1d59iYHRJ4znOh1vhBtOP5NpYonMzjJH6T0RBGoSf62Td0OfD50qvJMZbzGuOLQHWD-iM0RxtcREyJlrlx6uDf9hhJRvhzPWuzVjZ0JFwr51QyrEE9DuOJ7pNDodLIa1sq2d35WFrkkbcrBJ_DMW75WoPsDKzCDzIr-Xj5bciEQjhDsPJwEl4Wo3XWtfTmC8EUYLQQM_oeNMpzGXpxEI2TtvJS0]--></g></svg>