<?xml version="1.0" encoding="us-ascii" standalone="no"?><svg xmlns="http://www.w3.org/2000/svg" xmlns:xlink="http://www.w3.org/1999/xlink" contentStyleType="text/css" height="347px" preserveAspectRatio="none" style="width:586px;height:347px;background:#FFFFFF;" version="1.1" viewBox="0 0 586 347" width="586px" zoomAndPan="magnify"><defs/><g><!--cluster Player--><g id="cluster_Player"><rect fill="none" height="180" rx="2.5" ry="2.5" style="stroke:#181818;stroke-width:1.0;" width="570" x="7" y="161"/><rect fill="none" height="10" style="stroke:#181818;stroke-width:1.0;" width="15" x="557" y="166"/><rect fill="none" height="2" style="stroke:#181818;stroke-width:1.0;" width="4" x="555" y="168"/><rect fill="none" height="2" style="stroke:#181818;stroke-width:1.0;" width="4" x="555" y="172"/><text fill="#000000" font-family="sans-serif" font-size="14" font-weight="bold" lengthAdjust="spacing" textLength="50" x="267" y="186.9951">Player</text></g><!--entity Common--><g id="elem_Common"><rect fill="#F1F1F1" height="46.2969" rx="2.5" ry="2.5" style="stroke:#181818;stroke-width:0.5;" width="105" x="187.5" y="7"/><rect fill="#F1F1F1" height="10" style="stroke:#181818;stroke-width:0.5;" width="15" x="272.5" y="12"/><rect fill="#F1F1F1" height="2" style="stroke:#181818;stroke-width:0.5;" width="4" x="270.5" y="14"/><rect fill="#F1F1F1" height="2" style="stroke:#181818;stroke-width:0.5;" width="4" x="270.5" y="18"/><text fill="#000000" font-family="sans-serif" font-size="14" lengthAdjust="spacing" textLength="65" x="202.5" y="39.9951">Common</text></g><!--class Player--><g id="elem_Player"><rect codeLine="5" fill="#F1F1F1" height="48" id="Player" rx="2.5" ry="2.5" style="stroke:#181818;stroke-width:0.5;" width="76" x="23" y="236.5"/><ellipse cx="38" cy="252.5" fill="#ADD1B2" rx="11" ry="11" style="stroke:#181818;stroke-width:1.0;"/><path d="M40.3438,248.1719 C39.4063,247.7344 38.8125,247.5938 37.9375,247.5938 C35.3125,247.5938 33.3125,249.6719 33.3125,252.3906 L33.3125,253.5156 C33.3125,256.0938 35.4219,257.9844 38.3125,257.9844 C39.5313,257.9844 40.6875,257.6875 41.4375,257.1406 C42.0156,256.7344 42.3438,256.2813 42.3438,255.8906 C42.3438,255.4375 41.9531,255.0469 41.4844,255.0469 C41.2656,255.0469 41.0625,255.125 40.875,255.3125 C40.4219,255.7969 40.4219,255.7969 40.2344,255.8906 C39.8125,256.1563 39.125,256.2813 38.3594,256.2813 C36.3125,256.2813 35.0156,255.1875 35.0156,253.4844 L35.0156,252.3906 C35.0156,250.6094 36.2656,249.2969 38,249.2969 C38.5781,249.2969 39.1875,249.4531 39.6563,249.7031 C40.1406,249.9844 40.3125,250.2031 40.4063,250.6094 C40.4688,251.0156 40.5,251.1406 40.6406,251.2656 C40.7813,251.4063 41.0156,251.5156 41.2344,251.5156 C41.5,251.5156 41.7656,251.375 41.9375,251.1563 C42.0469,251 42.0781,250.8125 42.0781,250.3906 L42.0781,248.9688 C42.0781,248.5313 42.0625,248.4063 41.9688,248.25 C41.8125,247.9844 41.5313,247.8438 41.2344,247.8438 C40.9375,247.8438 40.7344,247.9375 40.5156,248.25 L40.3438,248.1719 Z " fill="#000000"/><text fill="#000000" font-family="sans-serif" font-size="14" lengthAdjust="spacing" textLength="44" x="52" y="257.3467">Player</text><line style="stroke:#181818;stroke-width:0.5;" x1="24" x2="98" y1="268.5" y2="268.5"/><line style="stroke:#181818;stroke-width:0.5;" x1="24" x2="98" y1="276.5" y2="276.5"/></g><!--class PlayerControlSystem--><g id="elem_PlayerControlSystem"><rect codeLine="8" fill="#F1F1F1" height="129.4844" id="PlayerControlSystem" rx="2.5" ry="2.5" style="stroke:#181818;stroke-width:0.5;" width="212" x="134" y="196"/><ellipse cx="161.6" cy="212" fill="#ADD1B2" rx="11" ry="11" style="stroke:#181818;stroke-width:1.0;"/><path d="M163.9438,207.6719 C163.0063,207.2344 162.4125,207.0938 161.5375,207.0938 C158.9125,207.0938 156.9125,209.1719 156.9125,211.8906 L156.9125,213.0156 C156.9125,215.5938 159.0219,217.4844 161.9125,217.4844 C163.1313,217.4844 164.2875,217.1875 165.0375,216.6406 C165.6156,216.2344 165.9438,215.7813 165.9438,215.3906 C165.9438,214.9375 165.5531,214.5469 165.0844,214.5469 C164.8656,214.5469 164.6625,214.625 164.475,214.8125 C164.0219,215.2969 164.0219,215.2969 163.8344,215.3906 C163.4125,215.6563 162.725,215.7813 161.9594,215.7813 C159.9125,215.7813 158.6156,214.6875 158.6156,212.9844 L158.6156,211.8906 C158.6156,210.1094 159.8656,208.7969 161.6,208.7969 C162.1781,208.7969 162.7875,208.9531 163.2563,209.2031 C163.7406,209.4844 163.9125,209.7031 164.0063,210.1094 C164.0688,210.5156 164.1,210.6406 164.2406,210.7656 C164.3813,210.9063 164.6156,211.0156 164.8344,211.0156 C165.1,211.0156 165.3656,210.875 165.5375,210.6563 C165.6469,210.5 165.6781,210.3125 165.6781,209.8906 L165.6781,208.4688 C165.6781,208.0313 165.6625,207.9063 165.5688,207.75 C165.4125,207.4844 165.1313,207.3438 164.8344,207.3438 C164.5375,207.3438 164.3344,207.4375 164.1156,207.75 L163.9438,207.6719 Z " fill="#000000"/><text fill="#000000" font-family="sans-serif" font-size="14" lengthAdjust="spacing" textLength="152" x="178.4" y="216.8467">PlayerControlSystem</text><line style="stroke:#181818;stroke-width:0.5;" x1="135" x2="345" y1="228" y2="228"/><rect fill="none" height="6" style="stroke:#C82930;stroke-width:1.0;" width="6" x="142" y="238.6484"/><text fill="#000000" font-family="sans-serif" font-size="14" lengthAdjust="spacing" textLength="145" x="154" y="244.9951">weapons: IWeapon[]</text><line style="stroke:#181818;stroke-width:0.5;" x1="135" x2="345" y1="252.2969" y2="252.2969"/><ellipse cx="145" cy="265.9453" fill="#84BE84" rx="3" ry="3" style="stroke:#038048;stroke-width:1.0;"/><text fill="#000000" font-family="sans-serif" font-size="14" lengthAdjust="spacing" textLength="108" x="154" y="269.292">placeWeapon()</text><ellipse cx="145" cy="282.2422" fill="#84BE84" rx="3" ry="3" style="stroke:#038048;stroke-width:1.0;"/><text fill="#000000" font-family="sans-serif" font-size="14" lengthAdjust="spacing" textLength="186" x="154" y="285.5889">takeDamage(amount: int)</text><ellipse cx="145" cy="298.5391" fill="#84BE84" rx="3" ry="3" style="stroke:#038048;stroke-width:1.0;"/><text fill="#000000" font-family="sans-serif" font-size="14" lengthAdjust="spacing" textLength="66" x="154" y="301.8857">process()</text><ellipse cx="145" cy="314.8359" fill="#84BE84" rx="3" ry="3" style="stroke:#038048;stroke-width:1.0;"/><text fill="#000000" font-family="sans-serif" font-size="14" lengthAdjust="spacing" textLength="164" x="154" y="318.1826">move(direction: Enum)</text></g><!--class PlayerPlugin--><g id="elem_PlayerPlugin"><rect codeLine="16" fill="#F1F1F1" height="113.1875" id="PlayerPlugin" rx="2.5" ry="2.5" style="stroke:#181818;stroke-width:0.5;" width="180" x="381" y="204"/><ellipse cx="423.45" cy="220" fill="#ADD1B2" rx="11" ry="11" style="stroke:#181818;stroke-width:1.0;"/><path d="M425.7938,215.6719 C424.8563,215.2344 424.2625,215.0938 423.3875,215.0938 C420.7625,215.0938 418.7625,217.1719 418.7625,219.8906 L418.7625,221.0156 C418.7625,223.5938 420.8719,225.4844 423.7625,225.4844 C424.9813,225.4844 426.1375,225.1875 426.8875,224.6406 C427.4656,224.2344 427.7938,223.7813 427.7938,223.3906 C427.7938,222.9375 427.4031,222.5469 426.9344,222.5469 C426.7156,222.5469 426.5125,222.625 426.325,222.8125 C425.8719,223.2969 425.8719,223.2969 425.6844,223.3906 C425.2625,223.6563 424.575,223.7813 423.8094,223.7813 C421.7625,223.7813 420.4656,222.6875 420.4656,220.9844 L420.4656,219.8906 C420.4656,218.1094 421.7156,216.7969 423.45,216.7969 C424.0281,216.7969 424.6375,216.9531 425.1063,217.2031 C425.5906,217.4844 425.7625,217.7031 425.8563,218.1094 C425.9188,218.5156 425.95,218.6406 426.0906,218.7656 C426.2313,218.9063 426.4656,219.0156 426.6844,219.0156 C426.95,219.0156 427.2156,218.875 427.3875,218.6563 C427.4969,218.5 427.5281,218.3125 427.5281,217.8906 L427.5281,216.4688 C427.5281,216.0313 427.5125,215.9063 427.4188,215.75 C427.2625,215.4844 426.9813,215.3438 426.6844,215.3438 C426.3875,215.3438 426.1844,215.4375 425.9656,215.75 L425.7938,215.6719 Z " fill="#000000"/><text fill="#000000" font-family="sans-serif" font-size="14" lengthAdjust="spacing" textLength="87" x="443.55" y="224.8467">PlayerPlugin</text><line style="stroke:#181818;stroke-width:0.5;" x1="382" x2="560" y1="236" y2="236"/><rect fill="none" height="6" style="stroke:#C82930;stroke-width:1.0;" width="6" x="389" y="246.6484"/><text fill="#000000" font-family="sans-serif" font-size="14" lengthAdjust="spacing" textLength="98" x="401" y="252.9951">player: Entity</text><line style="stroke:#181818;stroke-width:0.5;" x1="382" x2="560" y1="260.2969" y2="260.2969"/><ellipse cx="392" cy="273.9453" fill="#84BE84" rx="3" ry="3" style="stroke:#038048;stroke-width:1.0;"/><text fill="#000000" font-family="sans-serif" font-size="14" lengthAdjust="spacing" textLength="154" x="401" y="277.292">createPlayer(): Player</text><ellipse cx="392" cy="290.2422" fill="#84BE84" rx="3" ry="3" style="stroke:#038048;stroke-width:1.0;"/><text fill="#000000" font-family="sans-serif" font-size="14" lengthAdjust="spacing" textLength="45" x="401" y="293.5889">start()</text><ellipse cx="392" cy="306.5391" fill="#84BE84" rx="3" ry="3" style="stroke:#038048;stroke-width:1.0;"/><text fill="#000000" font-family="sans-serif" font-size="14" lengthAdjust="spacing" textLength="43" x="401" y="309.8857">stop()</text></g><!--reverse link Common to Player--><g id="link_Common_Player"><path codeLine="24" d="M199.169,64.8768 C172.247,87.8558 144.667,114.102 116,153 C96.494,179.468 80.1149,213.832 70.4334,236.264 " fill="none" id="Common-backto-Player" style="stroke:#181818;stroke-width:1.0;"/><polygon fill="none" points="212.86,53.191,195.2738,60.3131,203.0643,69.4404,212.86,53.191" style="stroke:#181818;stroke-width:1.0;"/><text fill="#000000" font-family="sans-serif" font-size="13" lengthAdjust="spacing" textLength="37" x="181" y="118.5669">Entity</text></g><!--reverse link Common to PlayerControlSystem--><g id="link_Common_PlayerControlSystem"><path codeLine="25" d="M240,71.326 C240,104.004 240,148.137 240,195.687 " fill="none" id="Common-backto-PlayerControlSystem" style="stroke:#181818;stroke-width:1.0;stroke-dasharray:7.0,7.0;"/><polygon fill="none" points="240,53.326,234,71.326,246,71.326,240,53.326" style="stroke:#181818;stroke-width:1.0;"/><text fill="#000000" font-family="sans-serif" font-size="13" lengthAdjust="spacing" textLength="37" x="302.5" y="96.0669">IActor</text><text fill="#000000" font-family="sans-serif" font-size="13" lengthAdjust="spacing" textLength="85" x="280.5" y="111.1997">IDamageable</text><text fill="#000000" font-family="sans-serif" font-size="13" lengthAdjust="spacing" textLength="156" x="245" y="126.3325">IEntityProcessingService</text><text fill="#000000" font-family="sans-serif" font-size="13" lengthAdjust="spacing" textLength="56" x="297" y="141.4653">IWeapon</text></g><!--reverse link Common to PlayerPlugin--><g id="link_Common_PlayerPlugin"><path codeLine="26" d="M310.3929,36.2431 C348.7579,41.1271 381.659,51.361 414,83 C446.455,114.75 460.451,165.069 466.475,203.869 " fill="none" id="Common-backto-PlayerPlugin" style="stroke:#181818;stroke-width:1.0;stroke-dasharray:7.0,7.0;"/><polygon fill="none" points="292.537,33.97,309.6352,42.1951,311.1506,30.2912,292.537,33.97" style="stroke:#181818;stroke-width:1.0;"/><text fill="#000000" font-family="sans-serif" font-size="13" lengthAdjust="spacing" textLength="127" x="451" y="118.5669">IGamePluginService</text></g><!--SRC=[VL31IiGm4BttAt9iaVO3YfTb5Td3Gg473-fXZ4C9cypKPBfITF_TsCH25SqfUU_DUvEdsOrCIABsx1oJUYykHQ5NjBCmeu-eYaTR264BHV5FPiyadcq_1q6NPRLwGuYMeLM7- -NsyBGGLsgqe35XPPKnWHFUW8C1It0yaRJAa7opesUD8QngnsSiNun7BOQfLRSqkUglxJex3ORMjSO5_9eH8tCsr1v1CEdBgisJcGm2NjRi83oMcx1mCZI21wTwV9sGD1xZil4hEsi6KZgschrouzSVTPqZckxtEgkgQRQgJS-nrvqMzkgHr25L1yyMbsSowr9hXeOU_TdenANY_mzAbSM4Et2O7jcYk7m2]--></g></svg>