<?xml version="1.0" encoding="us-ascii" standalone="no"?><svg xmlns="http://www.w3.org/2000/svg" xmlns:xlink="http://www.w3.org/1999/xlink" contentStyleType="text/css" height="451px" preserveAspectRatio="none" style="width:1126px;height:451px;background:#FFFFFF;" version="1.1" viewBox="0 0 1126 451" width="1126px" zoomAndPan="magnify"><defs/><g><!--entity Player--><g id="elem_Player"><ellipse cx="28" cy="246" fill="#F1F1F1" rx="8" ry="8" style="stroke:#181818;stroke-width:0.5;"/><path d="M28,254 L28,281 M15,262 L41,262 M28,281 L15,296 M28,281 L41,296 " fill="none" style="stroke:#181818;stroke-width:0.5;"/><text fill="#000000" font-family="sans-serif" font-size="14" lengthAdjust="spacing" textLength="44" x="6" y="310.4951">Player</text></g><g id="elem_MP"><ellipse cx="182.0233" cy="344.4047" fill="#F1F1F1" rx="67.5233" ry="15.9047" style="stroke:#181818;stroke-width:0.5;"/><text fill="#000000" font-family="sans-serif" font-size="14" lengthAdjust="spacing" textLength="86" x="136.0233" y="348.1522">Move Player</text></g><g id="elem_PB"><ellipse cx="458.6678" cy="106.3336" fill="#F1F1F1" rx="67.1678" ry="15.8336" style="stroke:#181818;stroke-width:0.5;"/><text fill="#000000" font-family="sans-serif" font-size="14" lengthAdjust="spacing" textLength="85" x="413.1678" y="110.0811">Place Bomb</text></g><g id="elem_DO"><ellipse cx="458.712" cy="280.4424" fill="#F1F1F1" rx="82.712" ry="18.9424" style="stroke:#181818;stroke-width:0.5;"/><text fill="#000000" font-family="sans-serif" font-size="14" lengthAdjust="spacing" textLength="125" x="395.5208" y="283.5215">Destroy Obstacle</text></g><g id="elem_PPU"><ellipse cx="744.6107" cy="280.5221" fill="#F1F1F1" rx="80.6107" ry="18.5221" style="stroke:#181818;stroke-width:0.5;"/><text fill="#000000" font-family="sans-serif" font-size="14" lengthAdjust="spacing" textLength="120" x="683.1726" y="283.8348">Pickup Power-up</text></g><g id="elem_PUB"><ellipse cx="181.8049" cy="22.561" fill="#F1F1F1" rx="70.8049" ry="16.561" style="stroke:#181818;stroke-width:0.5;"/><text fill="#000000" font-family="sans-serif" font-size="14" lengthAdjust="spacing" textLength="95" x="131.3049" y="26.3085">Pickup Bomb</text></g><g id="elem_UPU"><ellipse cx="1034.2198" cy="373.744" fill="#F1F1F1" rx="74.2198" ry="17.244" style="stroke:#181818;stroke-width:0.5;"/><text fill="#000000" font-family="sans-serif" font-size="14" lengthAdjust="spacing" textLength="104" x="979.2198" y="377.4915">Use Power-ups</text></g><g id="elem_APU"><ellipse cx="1034.1635" cy="204.6327" fill="#F1F1F1" rx="86.1635" ry="19.6327" style="stroke:#181818;stroke-width:0.5;"/><text fill="#000000" font-family="sans-serif" font-size="14" lengthAdjust="spacing" textLength="133" x="967.6635" y="207.4794">{Abstract} Pickup</text></g><!--link Player to UPU--><g id="link_Player_UPU"><path d="M43.5365,313.849 C65.2287,363.7108 111.153,444.5 181,444.5 C181,444.5 181,444.5 745.5,444.5 C838.3,444.5 937.5686,411.3695 991.3496,390.55 " fill="none" id="Player-to-UPU" style="stroke:#181818;stroke-width:1.0;"/><polygon fill="#181818" points="996.945,388.3839,987.1079,387.9027,992.2822,390.1889,989.996,395.3632,996.945,388.3839" style="stroke:#181818;stroke-width:1.0;"/></g><!--link Player to MP--><g id="link_Player_MP"><path d="M50.1785,286.71 C59.286,291.422 70.095,296.873 80,301.5 C102.1017,311.824 121.8086,320.2781 141.5326,328.4471 " fill="none" id="Player-to-MP" style="stroke:#181818;stroke-width:1.0;"/><polygon fill="#181818" points="147.076,330.743,140.2915,323.6036,142.4565,328.8298,137.2304,330.9948,147.076,330.743" style="stroke:#181818;stroke-width:1.0;"/></g><!--link Player to PB--><g id="link_Player_PB"><path d="M40.0087,237.389 C47.8811,216.869 60.5844,192.884 80,178.5 C172.747,109.791 306.5381,100.9489 387.4341,102.5139 " fill="none" id="Player-to-PB" style="stroke:#181818;stroke-width:1.0;"/><polygon fill="#181818" points="393.433,102.63,384.5121,98.4567,388.4339,102.5333,384.3573,106.4552,393.433,102.63" style="stroke:#181818;stroke-width:1.0;"/></g><!--link Player to DO--><g id="link_Player_DO"><path d="M50.2494,275.748 C108.764,276.431 268.5994,278.296 369.6954,279.475 " fill="none" id="Player-to-DO" style="stroke:#181818;stroke-width:1.0;"/><polygon fill="#181818" points="375.695,279.545,366.7423,275.4403,370.6953,279.4867,366.649,283.4398,375.695,279.545" style="stroke:#181818;stroke-width:1.0;"/></g><!--link Player to APU--><g id="link_Player_APU"><path d="M50.196,258.313 C78.3136,237.3 130.321,204.5 181,204.5 C181,204.5 181,204.5 745.5,204.5 C813.507,204.5 884.562,204.5 941.771,204.5 " fill="none" id="Player-to-APU" style="stroke:#181818;stroke-width:1.0;"/><polygon fill="#181818" points="947.771,204.5,938.771,200.5,942.771,204.5,938.771,208.5,947.771,204.5" style="stroke:#181818;stroke-width:1.0;"/></g><!--link PPU to APU--><g id="link_PPU_APU"><path d="M797.898,266.649 C848.592,253.248 919.3662,234.5384 971.2342,220.8274 " fill="none" id="PPU-to-APU" style="stroke:#181818;stroke-width:1.0;stroke-dasharray:7.0,7.0;"/><polygon fill="#181818" points="977.035,219.294,967.3116,217.7269,972.201,220.5718,969.3561,225.4613,977.035,219.294" style="stroke:#181818;stroke-width:1.0;"/></g><!--link PUB to APU--><g id="link_PUB_APU"><path d="M253.036,23.36 C281.922,24.383 315.671,26.441 346,30.5 C591.119,63.304 869.1429,149.9788 979.7399,186.5168 " fill="none" id="PUB-to-APU" style="stroke:#181818;stroke-width:1.0;stroke-dasharray:7.0,7.0;"/><polygon fill="#181818" points="985.437,188.399,978.1461,181.7777,980.6894,186.8305,975.6365,189.3738,985.437,188.399" style="stroke:#181818;stroke-width:1.0;"/></g><!--reverse link PPU to UPU--><g id="link_PPU_UPU"><path d="M797.7198,297.3917 C852.5488,315.1277 937.198,342.51 990.309,359.6905 " fill="none" id="PPU-backto-UPU" style="stroke:#181818;stroke-width:1.0;stroke-dasharray:7.0,7.0;"/><polygon fill="#181818" points="792.011,295.545,799.343,302.1208,796.7683,297.0839,801.8052,294.5092,792.011,295.545" style="stroke:#181818;stroke-width:1.0;"/><text fill="#000000" font-family="sans-serif" font-size="13" lengthAdjust="spacing" textLength="61" x="856" y="311.5669">&#171;extend&#187;</text></g><!--reverse link PUB to PB--><g id="link_PUB_PB"><path d="M231.3264,37.2887 C283.4304,53.2327 365.285,78.281 416.605,93.986 " fill="none" id="PUB-backto-PB" style="stroke:#181818;stroke-width:1.0;stroke-dasharray:7.0,7.0;"/><polygon fill="#181818" points="225.589,35.533,233.0246,41.9914,230.3702,36.9961,235.3655,34.3416,225.589,35.533" style="stroke:#181818;stroke-width:1.0;"/><text fill="#000000" font-family="sans-serif" font-size="13" lengthAdjust="spacing" textLength="61" x="284" y="51.5669">&#171;extend&#187;</text></g><!--reverse link DO to PPU--><g id="link_DO_PPU"><path d="M547.264,280.5 C585.772,280.5 625.535,280.5 663.781,280.5 " fill="none" id="DO-backto-PPU" style="stroke:#181818;stroke-width:1.0;stroke-dasharray:7.0,7.0;"/><polygon fill="#181818" points="541.264,280.5,550.264,284.5,546.264,280.5,550.264,276.5,541.264,280.5" style="stroke:#181818;stroke-width:1.0;"/><text fill="#000000" font-family="sans-serif" font-size="13" lengthAdjust="spacing" textLength="61" x="572" y="276.5669">&#171;extend&#187;</text></g><!--link MP to PB--><g id="link_MP_PB"><path d="M201.011,328.884 C250.868,285.657 385.7397,168.7185 435.2467,125.7945 " fill="none" id="MP-to-PB" style="stroke:#181818;stroke-width:1.0;stroke-dasharray:7.0,7.0;"/><polygon fill="#181818" points="439.78,121.864,430.3597,124.7376,436.0022,125.1394,435.6004,130.782,439.78,121.864" style="stroke:#181818;stroke-width:1.0;"/><text fill="#000000" font-family="sans-serif" font-size="13" lengthAdjust="spacing" textLength="61" x="284" y="199.5669">&#171;extend&#187;</text></g><!--link MP to DO--><g id="link_MP_DO"><path d="M242.719,337.457 C273.776,333.171 312.208,326.888 346,318.5 C369.322,312.711 389.0835,306.2729 409.7425,298.7919 " fill="none" id="MP-to-DO" style="stroke:#181818;stroke-width:1.0;stroke-dasharray:7.0,7.0;"/><polygon fill="#181818" points="415.384,296.749,405.5598,296.0523,410.6827,298.4514,408.2837,303.5743,415.384,296.749" style="stroke:#181818;stroke-width:1.0;"/><text fill="#000000" font-family="sans-serif" font-size="13" lengthAdjust="spacing" textLength="61" x="284" y="314.5669">&#171;extend&#187;</text></g><!--link MP to UPU--><g id="link_MP_UPU"><path d="M248.991,346.7515 C405.405,352.0879 791.7315,365.2685 954.4885,370.8214 " fill="none" id="MP-to-UPU" style="stroke:#181818;stroke-width:1.0;stroke-dasharray:7.0,7.0;"/><polygon fill="#181818" points="960.485,371.026,951.6266,366.7214,955.4879,370.8555,951.3538,374.7168,960.485,371.026" style="stroke:#181818;stroke-width:1.0;"/><text fill="#000000" font-family="sans-serif" font-size="13" lengthAdjust="spacing" textLength="61" x="572" y="353.5669">&#171;extend&#187;</text></g><!--SRC=[RKzB3e8m4DrpYWbxE80X912sX6vwW5969Q8rRL69yUuEBOQARfg-xymCkBTW5UZ-SBJGzHgbxTKb4j8g3MmG4-ee6WrAOH3YMjrmOMCG1cgsQaHBX5ATMoUnSfKgD5Qh2PhMM247T8Qg2RAzF8rNOEgEEXclle3n7yFQpeDwJiydQfpCm-opeB6QBdg1ht6MWYoHFmMI97UH0D9b0Q9Z0aIR1yWNCGvfwW7jjlw9pz9qReSTP1a-B5wwF7UcMM3bDryrdjxwQ-Owj_Q5fjG_UZlr3G00]--></g></svg>