<?xml version="1.0" encoding="us-ascii" standalone="no"?><svg xmlns="http://www.w3.org/2000/svg" xmlns:xlink="http://www.w3.org/1999/xlink" contentStyleType="text/css" height="450px" preserveAspectRatio="none" style="width:1102px;height:450px;background:#FFFFFF;" version="1.1" viewBox="0 0 1102 450" width="1102px" zoomAndPan="magnify"><defs/><g><!--entity Player--><g id="elem_Player"><ellipse cx="26.5" cy="244.62" fill="#F1F1F1" rx="8" ry="8" style="stroke:#181818;stroke-width:0.5;"/><path d="M26.5,252.62 L26.5,279.62 M13.5,260.62 L39.5,260.62 M26.5,279.62 L13.5,294.62 M26.5,279.62 L39.5,294.62 " fill="none" style="stroke:#181818;stroke-width:0.5;"/><text fill="#000000" font-family="sans-serif" font-size="14" lengthAdjust="spacing" textLength="41" x="6" y="309.1151">Player</text></g><g id="elem_MP"><ellipse cx="177.333" cy="343.2726" fill="#F1F1F1" rx="66.113" ry="15.6226" style="stroke:#181818;stroke-width:0.5;"/><text fill="#000000" font-family="sans-serif" font-size="14" lengthAdjust="spacing" textLength="82" x="133.333" y="347.0202">Move Player</text></g><g id="elem_PB"><ellipse cx="448.853" cy="105.2726" fill="#F1F1F1" rx="66.113" ry="15.6226" style="stroke:#181818;stroke-width:0.5;"/><text fill="#000000" font-family="sans-serif" font-size="14" lengthAdjust="spacing" textLength="82" x="404.853" y="109.0202">Place Bomb</text></g><g id="elem_DO"><ellipse cx="448.8463" cy="279.2693" fill="#F1F1F1" rx="80.1963" ry="18.4393" style="stroke:#181818;stroke-width:0.5;"/><text fill="#000000" font-family="sans-serif" font-size="14" lengthAdjust="spacing" textLength="119" x="387.7539" y="282.6279">Destroy Obstacle</text></g><g id="elem_PPU"><ellipse cx="730.0152" cy="279.273" fill="#F1F1F1" rx="78.9652" ry="18.193" style="stroke:#181818;stroke-width:0.5;"/><text fill="#000000" font-family="sans-serif" font-size="14" lengthAdjust="spacing" textLength="116" x="669.95" y="282.7686">Pickup Power-up</text></g><g id="elem_PUB"><ellipse cx="177.3288" cy="22.2658" fill="#F1F1F1" rx="69.3288" ry="16.2658" style="stroke:#181818;stroke-width:0.5;"/><text fill="#000000" font-family="sans-serif" font-size="14" lengthAdjust="spacing" textLength="91" x="128.8288" y="26.0133">Pickup Bomb</text></g><g id="elem_UPU"><ellipse cx="1013.6866" cy="372.2713" fill="#F1F1F1" rx="74.6066" ry="17.3213" style="stroke:#181818;stroke-width:0.5;"/><text fill="#000000" font-family="sans-serif" font-size="14" lengthAdjust="spacing" textLength="105" x="958.1866" y="376.0189">Use Power-ups</text></g><g id="elem_APU"><ellipse cx="1013.692" cy="203.2724" fill="#F1F1F1" rx="82.712" ry="18.9424" style="stroke:#181818;stroke-width:0.5;"/><text fill="#000000" font-family="sans-serif" font-size="14" lengthAdjust="spacing" textLength="125" x="950.5008" y="206.3515">{Abstract} Pickup</text></g><!--link Player to UPU--><g id="link_Player_UPU"><path d="M41.5,312.62 C62.47,362.48 107.13,443.27 176.33,443.27 C176.33,443.27 176.33,443.27 731.02,443.27 C821.29,443.27 917.447,410.7578 970.487,389.8778 " fill="none" id="Player-to-UPU" style="stroke:#181818;stroke-width:1.0;"/><polygon fill="#181818" points="976.07,387.68,966.2303,387.2548,971.4175,389.5115,969.1608,394.6987,976.07,387.68" style="stroke:#181818;stroke-width:1.0;"/></g><!--link Player to MP--><g id="link_Player_MP"><path d="M47.08,284.99 C56.11,289.82 67.02,295.5 77,300.27 C98.7,310.65 117.9979,319.0771 137.4079,327.2271 " fill="none" id="Player-to-MP" style="stroke:#181818;stroke-width:1.0;"/><polygon fill="#181818" points="142.94,329.55,136.1904,322.3776,138.3299,327.6143,133.0933,329.7538,142.94,329.55" style="stroke:#181818;stroke-width:1.0;"/></g><!--link Player to PB--><g id="link_Player_PB"><path d="M38.11,235.72 C45.68,215.32 57.97,191.6 77,177.27 C167.38,109.22 298.3508,100.0892 378.0808,101.4292 " fill="none" id="Player-to-PB" style="stroke:#181818;stroke-width:1.0;"/><polygon fill="#181818" points="384.08,101.53,375.1485,97.3793,379.0807,101.446,375.0141,105.3782,384.08,101.53" style="stroke:#181818;stroke-width:1.0;"/></g><!--link Player to DO--><g id="link_Player_DO"><path d="M47.49,274.51 C104.27,275.18 262.8204,277.0683 362.4104,278.2583 " fill="none" id="Player-to-DO" style="stroke:#181818;stroke-width:1.0;"/><polygon fill="#181818" points="368.41,278.33,359.4584,274.2228,363.4104,278.2703,359.3628,282.2222,368.41,278.33" style="stroke:#181818;stroke-width:1.0;"/></g><!--link Player to APU--><g id="link_Player_APU"><path d="M47.26,257.8 C74.49,236.83 125.94,203.27 176.33,203.27 C176.33,203.27 176.33,203.27 731.02,203.27 C798.26,203.27 868.53,203.27 924.73,203.27 " fill="none" id="Player-to-APU" style="stroke:#181818;stroke-width:1.0;"/><polygon fill="#181818" points="930.73,203.27,921.73,199.27,925.73,203.27,921.73,207.27,930.73,203.27" style="stroke:#181818;stroke-width:1.0;"/></g><!--link PPU to APU--><g id="link_PPU_APU"><path d="M782.68,265.33 C832.71,251.83 902.447,233.0125 953.167,219.3325 " fill="none" id="PPU-to-APU" style="stroke:#181818;stroke-width:1.0;stroke-dasharray:7.0,7.0;"/><polygon fill="#181818" points="958.96,217.77,949.2289,216.2517,954.1325,219.0721,951.3122,223.9757,958.96,217.77" style="stroke:#181818;stroke-width:1.0;"/></g><!--link PUB to APU--><g id="link_PUB_APU"><path d="M246.83,22.57 C275.33,23.4 308.69,25.26 338.66,29.27 C580.04,61.53 853.3375,148.8842 961.1875,185.4342 " fill="none" id="PUB-to-APU" style="stroke:#181818;stroke-width:1.0;stroke-dasharray:7.0,7.0;"/><polygon fill="#181818" points="966.87,187.36,959.63,180.6829,962.1345,185.7552,957.0623,188.2597,966.87,187.36" style="stroke:#181818;stroke-width:1.0;"/></g><!--reverse link PPU to UPU--><g id="link_PPU_UPU"><path d="M782.2776,296.2007 C835.5376,313.7807 917.29,340.77 969.5,358.01 " fill="none" id="PPU-backto-UPU" style="stroke:#181818;stroke-width:1.0;stroke-dasharray:7.0,7.0;"/><polygon fill="#181818" points="776.58,294.32,783.8727,300.9394,781.328,295.8872,786.3802,293.3426,776.58,294.32" style="stroke:#181818;stroke-width:1.0;"/><text fill="#000000" font-family="sans-serif" font-size="13" lengthAdjust="spacing" textLength="60" x="839.98" y="314.3369">&#171;extend&#187;</text></g><!--reverse link PUB to PB--><g id="link_PUB_PB"><path d="M226.4742,37.096 C277.6142,52.846 357.22,77.36 407.45,92.83 " fill="none" id="PUB-backto-PB" style="stroke:#181818;stroke-width:1.0;stroke-dasharray:7.0,7.0;"/><polygon fill="#181818" points="220.74,35.33,228.164,41.8018,225.5185,36.8017,230.5187,34.1562,220.74,35.33" style="stroke:#181818;stroke-width:1.0;"/><text fill="#000000" font-family="sans-serif" font-size="13" lengthAdjust="spacing" textLength="60" x="277.66" y="50.3369">&#171;extend&#187;</text></g><!--reverse link DO to PPU--><g id="link_DO_PPU"><path d="M535.48,279.27 C573.51,279.27 612.88,279.27 650.73,279.27 " fill="none" id="DO-backto-PPU" style="stroke:#181818;stroke-width:1.0;stroke-dasharray:7.0,7.0;"/><polygon fill="#181818" points="529.48,279.27,538.48,283.27,534.48,279.27,538.48,275.27,529.48,279.27" style="stroke:#181818;stroke-width:1.0;"/><text fill="#000000" font-family="sans-serif" font-size="13" lengthAdjust="spacing" textLength="60" x="560.05" y="275.3369">&#171;extend&#187;</text></g><!--link MP to PB--><g id="link_MP_PB"><path d="M195.6,328.02 C244.16,285.13 377.0625,167.7815 425.8825,124.6715 " fill="none" id="MP-to-PB" style="stroke:#181818;stroke-width:1.0;stroke-dasharray:7.0,7.0;"/><polygon fill="#181818" points="430.38,120.7,420.9861,123.6589,426.6321,124.0096,426.2814,129.6555,430.38,120.7" style="stroke:#181818;stroke-width:1.0;"/><text fill="#000000" font-family="sans-serif" font-size="13" lengthAdjust="spacing" textLength="60" x="277.66" y="199.3369">&#171;extend&#187;</text></g><!--link MP to DO--><g id="link_MP_DO"><path d="M237.09,336.24 C267.64,331.96 305.44,325.67 338.66,317.27 C361.62,311.46 380.9825,305.0112 401.2625,297.5112 " fill="none" id="MP-to-DO" style="stroke:#181818;stroke-width:1.0;stroke-dasharray:7.0,7.0;"/><polygon fill="#181818" points="406.89,295.43,397.0613,294.8001,402.2004,297.1643,399.8362,302.3034,406.89,295.43" style="stroke:#181818;stroke-width:1.0;"/><text fill="#000000" font-family="sans-serif" font-size="13" lengthAdjust="spacing" textLength="60" x="277.66" y="313.3369">&#171;extend&#187;</text></g><!--link MP to UPU--><g id="link_MP_UPU"><path d="M243.11,345.52 C395.97,350.83 772.3936,363.9218 933.4136,369.5118 " fill="none" id="MP-to-UPU" style="stroke:#181818;stroke-width:1.0;stroke-dasharray:7.0,7.0;"/><polygon fill="#181818" points="939.41,369.72,930.5542,365.4102,934.413,369.5465,930.2766,373.4053,939.41,369.72" style="stroke:#181818;stroke-width:1.0;"/><text fill="#000000" font-family="sans-serif" font-size="13" lengthAdjust="spacing" textLength="60" x="560.05" y="352.3369">&#171;extend&#187;</text></g><!--SRC=[RKzB3e8m4DrpYWbxE80X912sX6vwW5969Q8rRL69yUuEBOQARfg-xymCkBTW5UZ-SBJGzHgbxTKb4j8g3MmG4-ee6WrAOH3YMjrmOMCG1cgsQaHBX5ATMoUnSfKgD5Qh2PhMM247T8Qg2RAzF8rNOEgEEXclle3n7yFQpeDwJiydQfpCm-opeB6QBdg1ht6MWYoHFmMI97UH0D9b0Q9Z0aIR1yWNCGvfwW7jjlw9pz9qReSTP1a-B5wwF7UcMM3bDryrdjxwQ-Owj_Q5fjG_UZlr3G00]--></g></svg>