<?xml version="1.0" encoding="us-ascii" standalone="no"?><svg xmlns="http://www.w3.org/2000/svg" xmlns:xlink="http://www.w3.org/1999/xlink" contentStyleType="text/css" height="650px" preserveAspectRatio="none" style="width:530px;height:650px;background:#FFFFFF;" version="1.1" viewBox="0 0 530 650" width="530px" zoomAndPan="magnify"><defs/><g><rect fill="#FFFFFF" height="551.125" style="stroke:#181818;stroke-width:1.0;" width="10" x="63.5" y="46.2969"/><rect fill="#FFFFFF" height="359.3281" style="stroke:#181818;stroke-width:1.0;" width="10" x="68.5" y="238.0938"/><rect fill="#FFFFFF" height="119.5313" style="stroke:#181818;stroke-width:1.0;" width="10" x="279.5" y="67.4297"/><rect fill="#FFFFFF" height="29.1328" style="stroke:#181818;stroke-width:1.0;" width="10" x="383.5" y="272.2266"/><rect fill="#FFFFFF" height="14" style="stroke:#181818;stroke-width:1.0;" width="10" x="383.5" y="446.0234"/><rect fill="#FFFFFF" height="56.1328" style="stroke:#181818;stroke-width:1.0;" width="10" x="383.5" y="541.2891"/><rect fill="#FFFFFF" height="14" style="stroke:#181818;stroke-width:1.0;" width="10" x="460.5" y="378.7578"/><rect fill="none" height="119.5313" style="stroke:#000000;stroke-width:1.5;" width="368.5" x="20" y="82.4297"/><rect fill="none" height="46.2656" style="stroke:#000000;stroke-width:1.5;" width="309" x="30" y="148.6953"/><rect fill="none" height="196.7969" style="stroke:#000000;stroke-width:1.5;" width="514.5" x="10" y="316.3594"/><rect fill="none" height="165.6641" style="stroke:#000000;stroke-width:1.5;" width="494.5" x="20" y="340.4922"/><rect fill="none" height="91.3984" style="stroke:#000000;stroke-width:1.5;" width="396.5" x="30" y="407.7578"/><rect fill="none" height="17.1328" style="stroke:#000000;stroke-width:1.5;" width="93" x="50" y="475.0234"/><line style="stroke:#181818;stroke-width:0.5;stroke-dasharray:5.0,5.0;" x1="68" x2="68" y1="36.2969" y2="615.4219"/><line style="stroke:#181818;stroke-width:0.5;stroke-dasharray:5.0,5.0;" x1="284" x2="284" y1="36.2969" y2="615.4219"/><line style="stroke:#181818;stroke-width:0.5;stroke-dasharray:5.0,5.0;" x1="388.5" x2="388.5" y1="36.2969" y2="615.4219"/><line style="stroke:#181818;stroke-width:0.5;stroke-dasharray:5.0,5.0;" x1="465.5" x2="465.5" y1="36.2969" y2="615.4219"/><rect fill="#E2E2F0" height="30.2969" rx="2.5" ry="2.5" style="stroke:#181818;stroke-width:0.5;" width="57" x="40" y="5"/><text fill="#000000" font-family="sans-serif" font-size="14" lengthAdjust="spacing" textLength="43" x="47" y="24.9951">Bomb</text><rect fill="#E2E2F0" height="30.2969" rx="2.5" ry="2.5" style="stroke:#181818;stroke-width:0.5;" width="57" x="40" y="614.4219"/><text fill="#000000" font-family="sans-serif" font-size="14" lengthAdjust="spacing" textLength="43" x="47" y="634.417">Bomb</text><rect fill="#E2E2F0" height="30.2969" rx="2.5" ry="2.5" style="stroke:#181818;stroke-width:0.5;" width="89" x="240" y="5"/><text fill="#000000" font-family="sans-serif" font-size="14" lengthAdjust="spacing" textLength="75" x="247" y="24.9951">DeltaTime</text><rect fill="#E2E2F0" height="30.2969" rx="2.5" ry="2.5" style="stroke:#181818;stroke-width:0.5;" width="89" x="240" y="614.4219"/><text fill="#000000" font-family="sans-serif" font-size="14" lengthAdjust="spacing" textLength="75" x="247" y="634.417">DeltaTime</text><rect fill="#E2E2F0" height="30.2969" rx="2.5" ry="2.5" style="stroke:#181818;stroke-width:0.5;" width="56" x="360.5" y="5"/><text fill="#000000" font-family="sans-serif" font-size="14" lengthAdjust="spacing" textLength="42" x="367.5" y="24.9951">World</text><rect fill="#E2E2F0" height="30.2969" rx="2.5" ry="2.5" style="stroke:#181818;stroke-width:0.5;" width="56" x="360.5" y="614.4219"/><text fill="#000000" font-family="sans-serif" font-size="14" lengthAdjust="spacing" textLength="42" x="367.5" y="634.417">World</text><rect fill="#E2E2F0" height="30.2969" rx="2.5" ry="2.5" style="stroke:#181818;stroke-width:0.5;" width="78" x="426.5" y="5"/><text fill="#000000" font-family="sans-serif" font-size="14" lengthAdjust="spacing" textLength="64" x="433.5" y="24.9951">ICollision</text><rect fill="#E2E2F0" height="30.2969" rx="2.5" ry="2.5" style="stroke:#181818;stroke-width:0.5;" width="78" x="426.5" y="614.4219"/><text fill="#000000" font-family="sans-serif" font-size="14" lengthAdjust="spacing" textLength="64" x="433.5" y="634.417">ICollision</text><rect fill="#FFFFFF" height="551.125" style="stroke:#181818;stroke-width:1.0;" width="10" x="63.5" y="46.2969"/><rect fill="#FFFFFF" height="359.3281" style="stroke:#181818;stroke-width:1.0;" width="10" x="68.5" y="238.0938"/><rect fill="#FFFFFF" height="119.5313" style="stroke:#181818;stroke-width:1.0;" width="10" x="279.5" y="67.4297"/><rect fill="#FFFFFF" height="29.1328" style="stroke:#181818;stroke-width:1.0;" width="10" x="383.5" y="272.2266"/><rect fill="#FFFFFF" height="14" style="stroke:#181818;stroke-width:1.0;" width="10" x="383.5" y="446.0234"/><rect fill="#FFFFFF" height="56.1328" style="stroke:#181818;stroke-width:1.0;" width="10" x="383.5" y="541.2891"/><rect fill="#FFFFFF" height="14" style="stroke:#181818;stroke-width:1.0;" width="10" x="460.5" y="378.7578"/><polygon fill="#181818" points="267.5,63.4297,277.5,67.4297,267.5,71.4297,271.5,67.4297" style="stroke:#181818;stroke-width:1.0;"/><line style="stroke:#181818;stroke-width:1.0;" x1="73.5" x2="273.5" y1="67.4297" y2="67.4297"/><text fill="#000000" font-family="sans-serif" font-size="13" lengthAdjust="spacing" textLength="187" x="80.5" y="62.3638">startTimer(TimeTillExplosion)</text><path d="M20,82.4297 L98,82.4297 L98,89.5625 L88,99.5625 L20,99.5625 L20,82.4297 " fill="#EEEEEE" style="stroke:#000000;stroke-width:1.5;"/><rect fill="none" height="119.5313" style="stroke:#000000;stroke-width:1.5;" width="368.5" x="20" y="82.4297"/><text fill="#000000" font-family="sans-serif" font-size="13" font-weight="bold" lengthAdjust="spacing" textLength="33" x="35" y="95.4966">loop</text><text fill="#000000" font-family="sans-serif" font-size="11" font-weight="bold" lengthAdjust="spacing" textLength="61" x="113" y="94.6401">[Forever]</text><line style="stroke:#181818;stroke-width:1.0;" x1="289.5" x2="331.5" y1="120.6953" y2="120.6953"/><line style="stroke:#181818;stroke-width:1.0;" x1="331.5" x2="331.5" y1="120.6953" y2="133.6953"/><line style="stroke:#181818;stroke-width:1.0;" x1="290.5" x2="331.5" y1="133.6953" y2="133.6953"/><polygon fill="#181818" points="300.5,129.6953,290.5,133.6953,300.5,137.6953,296.5,133.6953" style="stroke:#181818;stroke-width:1.0;"/><text fill="#000000" font-family="sans-serif" font-size="13" lengthAdjust="spacing" textLength="80" x="296.5" y="115.6294">Check Timer</text><path d="M30,148.6953 L96,148.6953 L96,155.8281 L86,165.8281 L30,165.8281 L30,148.6953 " fill="#EEEEEE" style="stroke:#000000;stroke-width:1.5;"/><rect fill="none" height="46.2656" style="stroke:#000000;stroke-width:1.5;" width="309" x="30" y="148.6953"/><text fill="#000000" font-family="sans-serif" font-size="13" font-weight="bold" lengthAdjust="spacing" textLength="21" x="45" y="161.7622">alt</text><text fill="#000000" font-family="sans-serif" font-size="11" font-weight="bold" lengthAdjust="spacing" textLength="103" x="111" y="160.9058">[Timer ran out]</text><polygon fill="#181818" points="84.5,182.9609,74.5,186.9609,84.5,190.9609,80.5,186.9609" style="stroke:#181818;stroke-width:1.0;"/><line style="stroke:#181818;stroke-width:1.0;stroke-dasharray:2.0,2.0;" x1="78.5" x2="283.5" y1="186.9609" y2="186.9609"/><text fill="#000000" font-family="sans-serif" font-size="13" lengthAdjust="spacing" textLength="67" x="90.5" y="181.895">break loop</text><line style="stroke:#181818;stroke-width:1.0;" x1="73.5" x2="120.5" y1="225.0938" y2="225.0938"/><line style="stroke:#181818;stroke-width:1.0;" x1="120.5" x2="120.5" y1="225.0938" y2="238.0938"/><line style="stroke:#181818;stroke-width:1.0;" x1="79.5" x2="120.5" y1="238.0938" y2="238.0938"/><polygon fill="#181818" points="89.5,234.0938,79.5,238.0938,89.5,242.0938,85.5,238.0938" style="stroke:#181818;stroke-width:1.0;"/><text fill="#000000" font-family="sans-serif" font-size="13" lengthAdjust="spacing" textLength="114" x="85.5" y="220.0278">handleExplosion()</text><polygon fill="#181818" points="371.5,268.2266,381.5,272.2266,371.5,276.2266,375.5,272.2266" style="stroke:#181818;stroke-width:1.0;"/><line style="stroke:#181818;stroke-width:1.0;" x1="78.5" x2="377.5" y1="272.2266" y2="272.2266"/><text fill="#000000" font-family="sans-serif" font-size="13" lengthAdjust="spacing" textLength="88" x="85.5" y="267.1606">getMapData()</text><polygon fill="#181818" points="89.5,297.3594,79.5,301.3594,89.5,305.3594,85.5,301.3594" style="stroke:#181818;stroke-width:1.0;"/><line style="stroke:#181818;stroke-width:1.0;stroke-dasharray:2.0,2.0;" x1="83.5" x2="387.5" y1="301.3594" y2="301.3594"/><text fill="#000000" font-family="sans-serif" font-size="13" lengthAdjust="spacing" textLength="112" x="95.5" y="296.2935">returns map data</text><path d="M10,316.3594 L88,316.3594 L88,323.4922 L78,333.4922 L10,333.4922 L10,316.3594 " fill="#EEEEEE" style="stroke:#000000;stroke-width:1.5;"/><rect fill="none" height="196.7969" style="stroke:#000000;stroke-width:1.5;" width="514.5" x="10" y="316.3594"/><text fill="#000000" font-family="sans-serif" font-size="13" font-weight="bold" lengthAdjust="spacing" textLength="33" x="25" y="329.4263">loop</text><text fill="#000000" font-family="sans-serif" font-size="11" font-weight="bold" lengthAdjust="spacing" textLength="189" x="103" y="328.5698">[For each cardinal direction]</text><path d="M20,340.4922 L98,340.4922 L98,347.625 L88,357.625 L20,357.625 L20,340.4922 " fill="#EEEEEE" style="stroke:#000000;stroke-width:1.5;"/><rect fill="none" height="165.6641" style="stroke:#000000;stroke-width:1.5;" width="494.5" x="20" y="340.4922"/><text fill="#000000" font-family="sans-serif" font-size="13" font-weight="bold" lengthAdjust="spacing" textLength="33" x="35" y="353.5591">loop</text><text fill="#000000" font-family="sans-serif" font-size="11" font-weight="bold" lengthAdjust="spacing" textLength="327" x="113" y="352.7026">[For each step in direction until explosion range]</text><polygon fill="#181818" points="448.5,374.7578,458.5,378.7578,448.5,382.7578,452.5,378.7578" style="stroke:#181818;stroke-width:1.0;"/><line style="stroke:#181818;stroke-width:1.0;" x1="78.5" x2="454.5" y1="378.7578" y2="378.7578"/><text fill="#000000" font-family="sans-serif" font-size="13" lengthAdjust="spacing" textLength="248" x="85.5" y="373.6919">handleCollision(mapData, coordinates)</text><polygon fill="#181818" points="89.5,388.7578,79.5,392.7578,89.5,396.7578,85.5,392.7578" style="stroke:#181818;stroke-width:1.0;"/><line style="stroke:#181818;stroke-width:1.0;stroke-dasharray:2.0,2.0;" x1="83.5" x2="464.5" y1="392.7578" y2="392.7578"/><path d="M30,407.7578 L96,407.7578 L96,414.8906 L86,424.8906 L30,424.8906 L30,407.7578 " fill="#EEEEEE" style="stroke:#000000;stroke-width:1.5;"/><rect fill="none" height="91.3984" style="stroke:#000000;stroke-width:1.5;" width="396.5" x="30" y="407.7578"/><text fill="#000000" font-family="sans-serif" font-size="13" font-weight="bold" lengthAdjust="spacing" textLength="21" x="45" y="420.8247">alt</text><text fill="#000000" font-family="sans-serif" font-size="11" font-weight="bold" lengthAdjust="spacing" textLength="287" x="111" y="419.9683">[If collision and destructible object/entity]</text><polygon fill="#181818" points="371.5,442.0234,381.5,446.0234,371.5,450.0234,375.5,446.0234" style="stroke:#181818;stroke-width:1.0;"/><line style="stroke:#181818;stroke-width:1.0;" x1="78.5" x2="377.5" y1="446.0234" y2="446.0234"/><text fill="#000000" font-family="sans-serif" font-size="13" lengthAdjust="spacing" textLength="139" x="85.5" y="440.9575">destroyObject(object)</text><polygon fill="#181818" points="89.5,456.0234,79.5,460.0234,89.5,464.0234,85.5,460.0234" style="stroke:#181818;stroke-width:1.0;"/><line style="stroke:#181818;stroke-width:1.0;stroke-dasharray:2.0,2.0;" x1="83.5" x2="387.5" y1="460.0234" y2="460.0234"/><path d="M50,475.0234 L138,475.0234 L138,482.1563 L128,492.1563 L50,492.1563 L50,475.0234 " fill="#EEEEEE" style="stroke:#000000;stroke-width:1.5;"/><rect fill="none" height="17.1328" style="stroke:#000000;stroke-width:1.5;" width="93" x="50" y="475.0234"/><text fill="#000000" font-family="sans-serif" font-size="13" font-weight="bold" lengthAdjust="spacing" textLength="43" x="65" y="488.0903">break</text><polygon fill="#181818" points="371.5,537.2891,381.5,541.2891,371.5,545.2891,375.5,541.2891" style="stroke:#181818;stroke-width:1.0;"/><line style="stroke:#181818;stroke-width:1.0;" x1="78.5" x2="377.5" y1="541.2891" y2="541.2891"/><text fill="#000000" font-family="sans-serif" font-size="13" lengthAdjust="spacing" textLength="124" x="85.5" y="536.2231">removeObject(this)</text><line style="stroke:#181818;stroke-width:1.0;" x1="78.5" x2="120.5" y1="570.4219" y2="570.4219"/><line style="stroke:#181818;stroke-width:1.0;" x1="120.5" x2="120.5" y1="570.4219" y2="583.4219"/><line style="stroke:#181818;stroke-width:1.0;" x1="79.5" x2="120.5" y1="583.4219" y2="583.4219"/><polygon fill="#181818" points="89.5,579.4219,79.5,583.4219,89.5,587.4219,85.5,583.4219" style="stroke:#181818;stroke-width:1.0;"/><text fill="#000000" font-family="sans-serif" font-size="13" lengthAdjust="spacing" textLength="38" x="85.5" y="565.356">stop()</text><polygon fill="#181818" points="79.5,593.4219,69.5,597.4219,79.5,601.4219,75.5,597.4219" style="stroke:#181818;stroke-width:1.0;"/><line style="stroke:#181818;stroke-width:1.0;stroke-dasharray:2.0,2.0;" x1="73.5" x2="387.5" y1="597.4219" y2="597.4219"/><!--SRC=[RLAxRiCm39obh-1M6wZHFKE6fYsGeUWIeBDiix4QMJ8aEcZ-ldhudIoMVEAHH_8wOKbMiXEQuDMq9UyMm1ig4YVPuWhzDbRLA-HuC4f99utcd8kAv5KGfdISXQFOJwbsuCXJmzLcuNkIIht_TSe4Vku9KuAvF5F6TF1XB5xHSZOzGB67HUP3WzK5OchEc52Kxc251jEJnsPgKUo3iXsK5iK5Ge7mNkEZyWnrpUCdzHFg9dOZTArmqf_b2_t30DWJV8eEQa42f8FIK0Ec_CMA77Wse2P94fsF77F74U_WZEIPRvuOyiw9qmOy4YzGJ6eiKc-rWtQenrSD3JGFZkC4_zX09MmjjL1GI-jLXJMoROmZx43gEGHwBri1Zfs78Pyn99_Rc7qn3ce2iZOrzWoLCR4yeSiZUzAxj5LucF-dbYE-Q75B2Huu_lWQ8p4Cl4P7jlUKKk6mYPUuX5laRBSGmytjAmPcAJufVR0HjbrAmkws4D5elNID1flFT2J3RVLORCqL1pdKIFVO6skVEZ9Tbjzxvg53bb0oyGRu1m00]--></g></svg>